<?xml version="1.0"?>
<svg xmlns="http://www.w3.org/2000/svg" xmlns:xlink="http://www.w3.org/1999/xlink" width="500" zoomAndPan="magnify" viewBox="0 0 375 374.999991" height="500" preserveAspectRatio="xMidYMid meet" version="1.0" style="background-color:transparent;">
  <defs>
    <filter x="0%" y="0%" width="100%" height="100%" id="c1c5cd723f">
      <feColorMatrix values="0 0 0 0 1 0 0 0 0 1 0 0 0 0 1 0 0 0 1 0" color-interpolation-filters="sRGB"/>
    </filter>
    <clipPath id="eb836f275c">
      <path d="M 267 286 L 326.765625 286 L 326.765625 348 L 267 348 Z M 267 286 " clip-rule="nonzero"/>
    </clipPath>
    <clipPath id="8744bd2458">
      <path d="M 48.515625 286 L 108 286 L 108 348 L 48.515625 348 Z M 48.515625 286 " clip-rule="nonzero"/>
    </clipPath>
    <mask id="de4f5bed39">
      <g filter="url(#c1c5cd723f)">
        <rect x="-37.5" width="450" fill="#000000" y="-37.499999" height="449.999989" fill-opacity="0.35"/>
      </g>
    </mask>
    <clipPath id="ab8e4703f7">
      <rect x="0" width="12" y="0" height="13"/>
    </clipPath>
    <mask id="e54fda6823">
      <g filter="url(#c1c5cd723f)">
        <rect x="-37.5" width="450" fill="#000000" y="-37.499999" height="449.999989" fill-opacity="0.35"/>
      </g>
    </mask>
    <clipPath id="d7368f90e8">
      <rect x="0" width="11" y="0" height="13"/>
    </clipPath>
  </defs>
  <rect x="-37.5" width="450" fill="none" y="-37.499999" height="449.999989" fill-opacity="1"/>
  <rect x="-37.5" width="450" fill="none" y="-37.499999" height="449.999989" fill-opacity="1"/>
  <path fill="#f92b3b" d="M 308.570312 243.507812 C 292.695312 225.125 263.398438 202.148438 263.398438 202.148438 C 230.132812 187.808594 187.640625 196.816406 187.640625 196.816406 C 187.640625 196.816406 145.148438 187.808594 111.882812 202.148438 C 111.882812 202.148438 82.585938 225.125 66.710938 243.507812 C 50.835938 261.890625 57.828125 283.949219 66.710938 289.832031 C 75.59375 295.710938 90.148438 297.183594 93.359375 289.832031 C 93.359375 289.832031 101.722656 292.175781 104.132812 285.96875 C 106.542969 279.765625 101.722656 273.285156 101.722656 273.285156 C 101.722656 273.285156 113.773438 260.601562 120.859375 255.640625 C 120.859375 255.640625 113.773438 287.441406 108.859375 308.210938 C 103.945312 328.984375 101.109375 349.207031 101.109375 349.207031 C 101.109375 349.207031 89.847656 352.882812 89.050781 361.152344 C 88.253906 369.425781 99.597656 372.734375 116.226562 372.734375 C 132.859375 372.734375 154.027344 373.46875 157.429688 366.851562 C 160.832031 360.234375 158.753906 339.828125 163.289062 329.902344 C 167.824219 319.976562 180.867188 314.09375 180.867188 314.09375 L 187.640625 313.910156 L 194.410156 314.09375 C 194.410156 314.09375 207.453125 319.976562 211.988281 329.902344 C 216.527344 339.828125 214.445312 360.234375 217.847656 366.851562 C 221.25 373.46875 242.417969 372.734375 259.050781 372.734375 C 275.683594 372.734375 287.023438 369.425781 286.226562 361.152344 C 285.429688 352.882812 274.171875 349.207031 274.171875 349.207031 C 274.171875 349.207031 271.335938 328.984375 266.421875 308.210938 C 261.507812 287.441406 254.417969 255.640625 254.417969 255.640625 C 261.507812 260.601562 273.554688 273.285156 273.554688 273.285156 C 273.554688 273.285156 268.734375 279.765625 271.144531 285.96875 C 273.554688 292.175781 281.917969 289.832031 281.917969 289.832031 C 285.132812 297.183594 299.683594 295.710938 308.566406 289.832031 C 317.453125 283.949219 324.445312 261.890625 308.570312 243.507812 Z M 308.570312 243.507812 " fill-opacity="1" fill-rule="nonzero"/>
  <path fill="#31a1f4" d="M 63.316406 290.566406 C 63.316406 290.566406 54.285156 307.699219 51.882812 314.710938 C 49.480469 321.722656 50.675781 324.457031 53.972656 329.636719 C 57.265625 334.820312 65.765625 345.714844 65.765625 345.714844 L 81.375 315.691406 C 81.375 315.691406 82.636719 313.195312 85.125 313.128906 C 87.617188 313.0625 98.5 316.179688 104.269531 322.410156 C 105.832031 323.746094 106.261719 319.984375 106.261719 319.984375 L 119.984375 259.546875 L 117.609375 258.148438 L 102.175781 272.597656 L 102.242188 274.070312 C 102.242188 274.070312 107.625 283.695312 102.382812 288.449219 C 99.347656 291 93.480469 290.105469 91.960938 291.757812 C 90.445312 293.414062 83.363281 295.660156 76.761719 294.054688 C 70.15625 292.449219 65.113281 288.578125 65.113281 288.578125 Z M 63.316406 290.566406 " fill-opacity="1" fill-rule="nonzero"/>
  <path fill="#31a1f4" d="M 312.125 290.566406 C 312.125 290.566406 321.152344 307.699219 323.558594 314.710938 C 325.960938 321.722656 324.765625 324.457031 321.46875 329.636719 C 318.171875 334.820312 309.675781 345.714844 309.675781 345.714844 L 294.066406 315.691406 C 294.066406 315.691406 292.804688 313.195312 290.3125 313.128906 C 287.824219 313.0625 276.941406 316.179688 271.167969 322.410156 C 269.605469 323.746094 269.179688 319.984375 269.179688 319.984375 L 255.453125 259.546875 L 257.832031 258.148438 L 273.265625 272.597656 L 273.195312 274.070312 C 273.195312 274.070312 267.8125 283.695312 273.058594 288.449219 C 276.09375 291 281.957031 290.105469 283.476562 291.757812 C 284.996094 293.414062 292.074219 295.660156 298.679688 294.054688 C 305.28125 292.449219 310.324219 288.578125 310.324219 288.578125 Z M 312.125 290.566406 " fill-opacity="1" fill-rule="nonzero"/>
  <path fill="#31a1f4" d="M 170.746094 320.625 C 170.746094 320.625 177.804688 315.199219 179.460938 314.75 C 181.117188 314.300781 184.1875 314.09375 184.1875 314.09375 L 193.882812 314.09375 C 193.882812 314.09375 196.804688 315.25 198.355469 316.222656 C 199.90625 317.195312 206.621094 322.527344 206.621094 322.527344 C 206.621094 322.527344 206.632812 324.734375 203.320312 326.433594 C 200.011719 328.132812 189.625 332.484375 179.882812 329.699219 C 170.144531 326.914062 168.441406 323.882812 168.441406 323.882812 C 168.441406 323.882812 169.585938 321.5 170.746094 320.625 Z M 170.746094 320.625 " fill-opacity="1" fill-rule="nonzero"/>
  <path fill="#31a1f4" d="M 265.050781 253.316406 C 265.050781 253.316406 272 243.175781 281.589844 236.769531 C 291.175781 230.363281 294.878906 229.339844 295.964844 230.390625 C 297.050781 231.441406 311.492188 247.296875 311.492188 247.296875 C 311.492188 247.296875 323.054688 262.980469 316.015625 279.371094 C 308.976562 295.757812 293.753906 295.707031 288.222656 294.390625 C 282.6875 293.070312 281.136719 290.003906 281.136719 290.003906 C 281.136719 290.003906 273.050781 291.042969 271.316406 286.367188 C 269.578125 281.695312 271.050781 275.90625 273.554688 273.285156 L 269.957031 269.597656 L 261.984375 261.359375 L 261.984375 258.285156 Z M 265.050781 253.316406 " fill-opacity="1" fill-rule="nonzero"/>
  <path fill="#31a1f4" d="M 236.957031 329.503906 C 236.957031 329.503906 245.730469 327.980469 255.941406 328.757812 C 266.152344 329.535156 269.273438 330.855469 269.273438 330.855469 L 271.234375 332.433594 L 273.898438 347.351562 C 273.898438 347.351562 273.742188 348.84375 275.792969 349.84375 C 277.847656 350.84375 285.378906 353.800781 285.863281 361.039062 C 286.347656 368.277344 278.550781 372.78125 260.125 372.730469 C 241.699219 372.675781 222.289062 372.644531 218.539062 367.84375 C 214.789062 363.039062 214.789062 338.359375 214.652344 337.808594 C 214.511719 337.257812 214.96875 334.613281 216.023438 334.269531 C 217.078125 333.929688 228.898438 330.714844 236.957031 329.503906 Z M 236.957031 329.503906 " fill-opacity="1" fill-rule="nonzero"/>
  <path fill="#31a1f4" d="M 110.214844 253.316406 C 110.214844 253.316406 103.265625 243.175781 93.675781 236.769531 C 84.089844 230.363281 80.386719 229.339844 79.300781 230.390625 C 78.214844 231.441406 63.773438 247.296875 63.773438 247.296875 C 63.773438 247.296875 52.210938 262.980469 59.25 279.371094 C 66.285156 295.757812 81.507812 295.707031 87.042969 294.390625 C 92.578125 293.070312 94.128906 290.003906 94.128906 290.003906 C 94.128906 290.003906 102.210938 291.042969 103.949219 286.367188 C 105.6875 281.695312 104.214844 275.90625 101.707031 273.285156 L 105.308594 269.597656 L 113.277344 261.359375 L 113.277344 258.285156 Z M 110.214844 253.316406 " fill-opacity="1" fill-rule="nonzero"/>
  <path fill="#31a1f4" d="M 138.308594 329.503906 C 138.308594 329.503906 129.535156 327.980469 119.324219 328.757812 C 109.113281 329.535156 105.992188 330.855469 105.992188 330.855469 L 104.03125 332.433594 L 101.367188 347.351562 C 101.367188 347.351562 101.523438 348.84375 99.46875 349.84375 C 97.417969 350.84375 89.886719 353.800781 89.402344 361.039062 C 88.917969 368.277344 96.710938 372.78125 115.140625 372.730469 C 133.566406 372.675781 152.976562 372.644531 156.726562 367.84375 C 160.476562 363.039062 160.476562 338.359375 160.613281 337.808594 C 160.753906 337.257812 160.296875 334.613281 159.242188 334.269531 C 158.1875 333.929688 146.363281 330.714844 138.308594 329.503906 Z M 138.308594 329.503906 " fill-opacity="1" fill-rule="nonzero"/>
  <path fill="none" d="M 60.132812 258.148438 C 60.132812 258.148438 74.4375 240.542969 80.992188 235.648438 C 82.648438 235.027344 97.691406 242.265625 105.210938 247.917969 C 105.210938 247.917969 103.621094 244.746094 99.242188 241.09375 C 94.859375 237.441406 86.582031 232.410156 86.582031 232.410156 C 86.582031 232.410156 114.914062 206.125 118.449219 202.574219 C 121.980469 199.023438 116.933594 200.167969 116.933594 200.167969 L 111.34375 202.574219 C 111.34375 202.574219 87.699219 221.101562 72.824219 236.851562 C 57.945312 252.605469 60.132812 258.148438 60.132812 258.148438 Z M 60.132812 258.148438 " fill-opacity="0.4" fill-rule="nonzero"/>
  <path fill="none" d="M 90.46875 359.40625 C 90.410156 360.082031 97.875 354.398438 101.324219 353.707031 C 104.773438 353.019531 114.878906 352.875 117.1875 350.351562 L 107.351562 349.199219 C 107.351562 349.199219 113.976562 316.027344 114.894531 308.027344 C 115.8125 300.03125 114.019531 292.042969 114.019531 292.042969 L 102.566406 340.839844 L 101.109375 348.382812 C 101.109375 348.382812 98.800781 350.136719 98.660156 350.222656 C 98.519531 350.308594 90.992188 353.339844 90.46875 359.40625 Z M 90.46875 359.40625 " fill-opacity="0.4" fill-rule="nonzero"/>
  <path fill="none" d="M 52.332031 315.933594 C 52.332031 315.933594 55.460938 313.820312 58.632812 309.222656 C 61.808594 304.625 68.433594 291.667969 68.433594 291.667969 C 68.433594 291.667969 66.554688 289.730469 66.347656 289.578125 C 66.136719 289.425781 64.101562 289.699219 64.101562 289.699219 C 64.101562 289.699219 56.195312 304.582031 56.105469 304.8125 C 56.011719 305.042969 52.011719 313.636719 52.332031 315.933594 Z M 52.332031 315.933594 " fill-opacity="0.4" fill-rule="nonzero"/>
  <path fill="none" d="M 315.042969 258.148438 C 315.042969 258.148438 300.738281 240.542969 294.183594 235.648438 C 292.527344 235.027344 277.484375 242.265625 269.964844 247.917969 C 269.964844 247.917969 271.554688 244.746094 275.933594 241.09375 C 280.316406 237.441406 288.59375 232.410156 288.59375 232.410156 C 288.59375 232.410156 260.261719 206.125 256.730469 202.574219 C 253.195312 199.023438 258.242188 200.167969 258.242188 200.167969 L 263.832031 202.574219 C 263.832031 202.574219 287.476562 221.101562 302.355469 236.851562 C 317.230469 252.605469 315.042969 258.148438 315.042969 258.148438 Z M 315.042969 258.148438 " fill-opacity="0.4" fill-rule="nonzero"/>
  <path fill="none" d="M 284.707031 359.40625 C 284.765625 360.082031 277.300781 354.398438 273.851562 353.707031 C 270.398438 353.019531 260.296875 352.875 257.988281 350.351562 L 267.824219 349.199219 C 267.824219 349.199219 261.199219 316.027344 260.28125 308.027344 C 259.359375 300.03125 261.15625 292.042969 261.15625 292.042969 L 272.609375 340.839844 L 274.066406 348.382812 C 274.066406 348.382812 276.375 350.136719 276.515625 350.222656 C 276.65625 350.308594 284.183594 353.339844 284.707031 359.40625 Z M 284.707031 359.40625 " fill-opacity="0.4" fill-rule="nonzero"/>
  <path fill="none" d="M 322.84375 315.933594 C 322.84375 315.933594 319.714844 313.820312 316.542969 309.222656 C 313.367188 304.625 306.742188 291.667969 306.742188 291.667969 C 306.742188 291.667969 308.621094 289.730469 308.832031 289.578125 C 309.039062 289.425781 311.074219 289.699219 311.074219 289.699219 C 311.074219 289.699219 318.980469 304.582031 319.074219 304.8125 C 319.164062 305.042969 323.164062 313.636719 322.84375 315.933594 Z M 322.84375 315.933594 " fill-opacity="0.4" fill-rule="nonzero"/>
  <path fill="#690001" d="M 323.660156 316.300781 C 323.660156 316.300781 318.875 321.632812 312.527344 320.527344 C 306.179688 319.425781 294.125 295.4375 294.125 295.4375 C 294.125 295.4375 310.5625 293.410156 315.636719 281.144531 C 320.714844 268.875 315.9375 255.015625 315.9375 255.015625 C 315.9375 255.015625 313.816406 276.734375 302.496094 282.660156 C 291.179688 288.589844 288.941406 273.148438 282.261719 265.425781 C 275.585938 257.707031 259.714844 245.988281 256.542969 241.164062 C 253.371094 236.335938 245.601562 222.796875 245.601562 222.796875 C 245.601562 222.796875 245.359375 297.824219 187.8125 297.824219 C 130.265625 297.824219 130.019531 222.796875 130.019531 222.796875 C 130.019531 222.796875 122.253906 236.335938 119.082031 241.164062 C 115.90625 245.988281 100.035156 257.707031 93.359375 265.425781 C 86.683594 273.148438 84.441406 288.589844 73.125 282.660156 C 61.808594 276.734375 59.683594 255.015625 59.683594 255.015625 C 59.683594 255.015625 54.910156 268.875 59.984375 281.144531 C 65.0625 293.410156 81.5 295.4375 81.5 295.4375 C 81.5 295.4375 69.445312 319.425781 63.097656 320.527344 C 56.75 321.632812 51.964844 316.300781 51.964844 316.300781 C 51.964844 316.300781 50.675781 321.722656 52.65625 327.167969 C 54.632812 332.617188 65.398438 344.519531 65.398438 344.519531 L 67.273438 342.816406 L 86.375 308.167969 C 95.757812 307.476562 107.214844 315.75 107.214844 315.75 L 111.960938 294.914062 C 117.261719 282.765625 133.296875 302.378906 139.636719 312.304688 C 145.976562 322.230469 149.167969 357.660156 136.472656 362.074219 C 123.777344 366.484375 88.953125 358.671875 89.054688 361.152344 C 89.160156 363.636719 89.136719 367.128906 96.542969 370.207031 C 103.953125 373.289062 119.128906 372.742188 133.761719 372.492188 C 148.390625 372.242188 153.078125 370.710938 156.117188 368.597656 C 159.152344 366.484375 159.429688 356.851562 159.976562 349.042969 C 160.523438 341.234375 161.519531 335.625 162.832031 332.363281 C 164.140625 329.097656 166.628906 324.722656 166.628906 324.722656 C 166.628906 324.722656 169.042969 324.78125 169.324219 324.84375 C 169.605469 324.90625 175.71875 328.328125 180.871094 329.328125 C 186.023438 330.332031 187.8125 329.328125 187.8125 329.328125 C 187.8125 329.328125 189.605469 330.332031 194.757812 329.328125 C 199.910156 328.328125 206.023438 324.90625 206.304688 324.84375 C 206.585938 324.78125 209 324.722656 209 324.722656 C 209 324.722656 211.488281 329.097656 212.796875 332.363281 C 214.109375 335.625 215.105469 341.234375 215.652344 349.042969 C 216.199219 356.851562 216.476562 366.484375 219.511719 368.597656 C 222.546875 370.710938 227.238281 372.242188 241.867188 372.492188 C 256.5 372.742188 271.675781 373.289062 279.082031 370.207031 C 286.492188 367.128906 286.46875 363.636719 286.574219 361.152344 C 286.675781 358.671875 251.851562 366.484375 239.15625 362.074219 C 226.460938 357.660156 229.652344 322.230469 235.992188 312.304688 C 242.332031 302.378906 258.367188 282.765625 263.667969 294.914062 L 268.414062 315.75 C 268.414062 315.75 279.867188 307.476562 289.253906 308.167969 L 308.355469 342.816406 L 310.230469 344.519531 C 310.230469 344.519531 320.996094 332.617188 322.972656 327.167969 C 324.949219 321.722656 323.660156 316.300781 323.660156 316.300781 Z M 219.085938 308.953125 C 210.273438 311.816406 201.753906 313.480469 201.210938 313.550781 C 200.667969 313.621094 199.40625 314.09375 199.40625 314.09375 L 187.8125 314.578125 L 176.21875 314.09375 C 176.21875 314.09375 174.957031 313.621094 174.414062 313.550781 C 173.867188 313.480469 165.351562 311.816406 156.539062 308.953125 C 147.726562 306.089844 141.203125 299.394531 141.203125 299.394531 C 159.785156 309.140625 187.8125 308.578125 187.8125 308.578125 C 187.8125 308.578125 215.839844 309.140625 234.417969 299.394531 C 234.417969 299.394531 227.898438 306.089844 219.085938 308.953125 Z M 219.085938 308.953125 " fill-opacity="0.2" fill-rule="nonzero"/>
  <path fill="#690001" d="M 252.367188 256.210938 C 250.613281 250.308594 249.089844 244.34375 247.648438 238.359375 C 246.332031 232.285156 244.382812 226.433594 244.328125 220.117188 C 244.324219 219.941406 244.578125 219.863281 244.667969 220.023438 C 246.335938 222.75 247.441406 225.636719 248.40625 228.5625 C 251.316406 237.328125 254.132812 246.128906 256.472656 255.066406 C 257.085938 257.753906 253.242188 258.835938 252.367188 256.210938 Z M 252.367188 256.210938 " fill-opacity="1" fill-rule="nonzero"/>
  <path fill="#690001" d="M 280.28125 288.46875 C 281.101562 287.261719 282.285156 285.558594 282.925781 284.277344 C 283.859375 282.535156 283.8125 281.40625 284.742188 279.398438 C 284.792969 279.277344 284.945312 279.222656 285.0625 279.289062 C 287.5625 280.773438 286.847656 284.03125 286.265625 286.320312 C 285.65625 288.117188 284.835938 289.75 283.558594 291.191406 C 281.695312 293.160156 278.695312 290.644531 280.28125 288.46875 Z M 280.28125 288.46875 " fill-opacity="1" fill-rule="nonzero"/>
  <path fill="#690001" d="M 260.75 262.929688 C 260.480469 262.929688 260.207031 262.878906 259.941406 262.769531 C 258.855469 262.324219 258.335938 261.085938 258.777344 260 C 259.136719 259.121094 267.839844 238.433594 294.148438 227.472656 C 295.234375 227.019531 296.484375 227.53125 296.933594 228.617188 C 297.386719 229.703125 296.875 230.949219 295.789062 231.402344 C 271.1875 241.652344 262.804688 261.410156 262.722656 261.609375 C 262.382812 262.433594 261.585938 262.929688 260.75 262.929688 Z M 260.75 262.929688 " fill-opacity="1" fill-rule="nonzero"/>
  <path fill="#690001" d="M 213.648438 337.230469 C 212.792969 337.230469 211.988281 336.714844 211.660156 335.867188 C 211.234375 334.773438 211.78125 333.539062 212.878906 333.117188 C 214.148438 332.625 244.328125 321.1875 271.839844 329.359375 C 272.96875 329.695312 273.613281 330.882812 273.273438 332.007812 C 272.941406 333.132812 271.753906 333.777344 270.625 333.441406 C 244.496094 325.679688 214.714844 336.96875 214.414062 337.085938 C 214.164062 337.1875 213.902344 337.230469 213.648438 337.230469 Z M 213.648438 337.230469 " fill-opacity="1" fill-rule="nonzero"/>
  <path fill="#690001" d="M 274.128906 351.332031 C 271.40625 351.410156 268.597656 351.359375 265.859375 351.328125 C 262.933594 351.167969 260.308594 351.738281 257.386719 350.664062 C 257.242188 350.617188 257.203125 350.417969 257.316406 350.320312 C 258.539062 349.195312 259.941406 348.683594 261.347656 348.375 C 264.160156 347.734375 267.007812 347.300781 269.886719 347.128906 C 271.324219 347.035156 272.734375 346.996094 274.214844 347.078125 C 275.386719 347.140625 276.289062 348.140625 276.226562 349.316406 C 276.167969 350.441406 275.238281 351.320312 274.128906 351.332031 Z M 274.128906 351.332031 " fill-opacity="1" fill-rule="nonzero"/>
  <g clip-path="url(#eb836f275c)">
    <path fill="#690001" d="M 309.515625 347.839844 C 309.429688 347.839844 309.34375 347.835938 309.253906 347.824219 C 308.558594 347.738281 307.949219 347.316406 307.625 346.691406 L 291.238281 315.171875 C 287.90625 315.421875 278.417969 316.871094 271.40625 325.140625 C 270.648438 326.039062 269.304688 326.152344 268.40625 325.390625 C 267.507812 324.632812 267.394531 323.289062 268.15625 322.390625 C 278.109375 310.648438 291.972656 310.851562 292.554688 310.863281 C 293.332031 310.882812 294.035156 311.324219 294.394531 312.011719 L 309.945312 341.925781 C 314.703125 336.171875 322.503906 325.664062 322.503906 320.527344 C 322.503906 314.367188 312.585938 295.84375 308.765625 289.226562 C 308.175781 288.207031 308.527344 286.90625 309.542969 286.320312 C 310.566406 285.730469 311.867188 286.082031 312.453125 287.097656 C 313.917969 289.636719 326.765625 312.113281 326.765625 320.527344 C 326.765625 329.175781 312.710938 345.3125 311.109375 347.121094 C 310.703125 347.582031 310.121094 347.839844 309.515625 347.839844 Z M 309.515625 347.839844 " fill-opacity="1" fill-rule="nonzero"/>
  </g>
  <path fill="#690001" d="M 292.507812 315.121094 C 291.753906 315.121094 291.023438 314.722656 290.636719 314.015625 L 278.351562 291.585938 C 277.785156 290.558594 278.164062 289.261719 279.195312 288.699219 C 280.230469 288.136719 281.523438 288.515625 282.085938 289.542969 L 294.371094 311.972656 C 294.9375 313 294.558594 314.296875 293.527344 314.859375 C 293.203125 315.035156 292.851562 315.121094 292.507812 315.121094 Z M 292.507812 315.121094 " fill-opacity="1" fill-rule="nonzero"/>
  <path fill="#690001" d="M 187.640625 332.769531 C 186.464844 332.769531 185.511719 331.816406 185.511719 330.640625 C 185.511719 329.464844 186.464844 328.511719 187.640625 328.511719 C 199.367188 328.511719 205.808594 321.9375 205.871094 321.871094 C 206.683594 321.027344 208.03125 320.992188 208.882812 321.800781 C 209.730469 322.605469 209.769531 323.945312 208.964844 324.796875 C 208.660156 325.125 201.285156 332.769531 187.640625 332.769531 Z M 187.640625 332.769531 " fill-opacity="1" fill-rule="nonzero"/>
  <path fill="#690001" d="M 194.390625 311.964844 C 203.5 311.433594 212.679688 309.628906 221.105469 306.058594 C 226.289062 303.902344 230.8125 300.761719 235.519531 297.703125 C 235.667969 297.601562 235.878906 297.792969 235.773438 297.949219 C 231.683594 304.683594 224.328125 308.617188 217.242188 311.535156 C 211.820312 313.6875 206.109375 315.074219 200.324219 315.800781 C 198.378906 316.039062 196.492188 316.199219 194.433594 316.222656 C 193.257812 316.238281 192.292969 315.296875 192.28125 314.121094 C 192.261719 312.941406 193.214844 311.976562 194.390625 311.964844 Z M 194.390625 311.964844 " fill-opacity="1" fill-rule="nonzero"/>
  <path fill="#690001" d="M 250.867188 374.882812 C 231.832031 374.882812 219.1875 374.117188 215.953125 367.824219 C 214.164062 364.34375 213.769531 358.25 213.3125 351.195312 C 212.84375 343.945312 212.308594 335.726562 210.050781 330.785156 C 206.304688 322.585938 195.988281 317.226562 193.90625 316.210938 L 187.640625 316.039062 L 181.378906 316.210938 C 179.296875 317.226562 168.964844 322.609375 165.230469 330.785156 C 162.972656 335.726562 162.4375 343.945312 161.96875 351.195312 C 161.511719 358.25 161.117188 364.34375 159.328125 367.824219 C 155.890625 374.507812 141.84375 374.957031 120.789062 374.875 C 119.242188 374.867188 117.71875 374.863281 116.230469 374.863281 C 102.394531 374.863281 93.339844 372.617188 89.316406 368.195312 C 87.46875 366.160156 86.664062 363.722656 86.933594 360.949219 C 87.6875 353.117188 95.953125 348.984375 99.179688 347.65625 C 99.886719 342.914062 102.597656 325.417969 106.785156 307.722656 C 110.375 292.546875 115.175781 271.246094 117.464844 261.054688 C 112.4375 265.398438 106.789062 271.117188 104.417969 273.558594 C 105.867188 276.105469 108.183594 281.417969 106.117188 286.738281 C 104 292.199219 98.253906 292.800781 94.441406 292.230469 C 93.144531 294.082031 91.132812 295.441406 88.53125 296.207031 C 82.097656 298.105469 72.425781 296.167969 65.535156 291.605469 C 60.449219 288.238281 56.589844 281.042969 55.457031 272.832031 C 53.960938 261.957031 57.382812 251.050781 65.097656 242.117188 C 80.925781 223.789062 110.273438 200.703125 110.566406 200.472656 C 110.710938 200.359375 110.871094 200.265625 111.039062 200.191406 C 143.105469 186.367188 182.761719 193.667969 187.640625 194.640625 C 192.519531 193.664062 232.171875 186.367188 264.242188 200.191406 C 264.410156 200.265625 264.570312 200.359375 264.714844 200.472656 C 265.007812 200.703125 294.355469 223.789062 310.183594 242.117188 C 317.898438 251.050781 321.320312 261.957031 319.824219 272.832031 C 318.691406 281.042969 314.832031 288.238281 309.746094 291.605469 C 302.855469 296.167969 293.183594 298.105469 286.75 296.207031 C 284.148438 295.441406 282.136719 294.082031 280.839844 292.230469 C 277.027344 292.804688 271.28125 292.199219 269.164062 286.738281 C 267.09375 281.417969 269.414062 276.105469 270.863281 273.558594 C 268.488281 271.117188 262.84375 265.398438 257.816406 261.054688 C 260.101562 271.246094 264.90625 292.542969 268.496094 307.722656 C 272.683594 325.417969 275.394531 342.914062 276.101562 347.65625 C 279.328125 348.984375 287.59375 353.117188 288.347656 360.949219 C 288.613281 363.726562 287.8125 366.160156 285.964844 368.195312 C 281.941406 372.621094 272.886719 374.863281 259.050781 374.863281 C 257.5625 374.863281 256.035156 374.867188 254.488281 374.875 C 253.257812 374.878906 252.046875 374.882812 250.867188 374.882812 Z M 187.640625 311.78125 C 187.660156 311.78125 187.679688 311.78125 187.699219 311.78125 L 194.46875 311.964844 C 194.753906 311.972656 195.03125 312.039062 195.289062 312.152344 C 195.851562 312.40625 209.113281 318.488281 213.929688 329.019531 C 216.511719 334.671875 217.070312 343.304688 217.566406 350.917969 C 217.972656 357.226562 218.359375 363.183594 219.746094 365.878906 C 222.246094 370.742188 240.875 370.671875 254.476562 370.617188 C 256.027344 370.613281 257.558594 370.605469 259.050781 370.605469 C 271.28125 370.605469 279.71875 368.734375 282.8125 365.332031 C 283.847656 364.191406 284.257812 362.929688 284.105469 361.355469 C 283.453125 354.585938 273.605469 351.257812 273.507812 351.226562 C 272.738281 350.972656 272.175781 350.300781 272.0625 349.5 C 272.035156 349.296875 269.183594 329.132812 264.351562 308.699219 C 259.488281 288.152344 252.414062 256.417969 252.34375 256.101562 C 252.152344 255.242188 252.507812 254.355469 253.238281 253.867188 C 253.96875 253.382812 254.921875 253.390625 255.644531 253.894531 C 262.824219 258.921875 274.605469 271.292969 275.105469 271.820312 C 275.816406 272.570312 275.886719 273.722656 275.269531 274.550781 C 275.230469 274.605469 271.191406 280.191406 273.136719 285.195312 C 274.808594 289.511719 281.085938 287.847656 281.351562 287.777344 C 282.371094 287.5 283.453125 288.007812 283.875 288.976562 C 284.519531 290.457031 285.894531 291.515625 287.957031 292.125 C 293.199219 293.671875 301.554688 291.917969 307.394531 288.054688 C 311.425781 285.382812 314.648438 279.179688 315.605469 272.25 C 316.375 266.664062 316.273438 255.683594 306.960938 244.894531 C 292.113281 227.707031 265.007812 206.128906 262.300781 203.988281 C 230.070312 190.234375 188.503906 198.804688 188.085938 198.894531 C 187.792969 198.957031 187.492188 198.957031 187.203125 198.894531 C 186.78125 198.808594 145.1875 190.25 112.984375 203.988281 C 110.28125 206.128906 83.171875 227.707031 68.324219 244.894531 C 59.011719 255.679688 58.910156 266.660156 59.679688 272.246094 C 60.636719 279.179688 63.859375 285.382812 67.890625 288.054688 C 73.726562 291.917969 82.082031 293.667969 87.328125 292.121094 C 89.390625 291.515625 90.765625 290.457031 91.410156 288.976562 C 91.835938 288.003906 92.914062 287.492188 93.9375 287.777344 C 94.199219 287.851562 100.472656 289.511719 102.148438 285.195312 C 104.09375 280.191406 100.054688 274.605469 100.011719 274.546875 C 99.402344 273.71875 99.472656 272.566406 100.179688 271.816406 C 100.679688 271.292969 112.457031 258.921875 119.640625 253.894531 C 120.359375 253.390625 121.316406 253.378906 122.046875 253.867188 C 122.777344 254.355469 123.132812 255.242188 122.941406 256.097656 C 122.871094 256.417969 115.796875 288.152344 110.933594 308.699219 C 106.101562 329.128906 103.25 349.292969 103.222656 349.496094 C 103.109375 350.300781 102.546875 350.972656 101.773438 351.222656 C 101.679688 351.257812 91.832031 354.582031 91.179688 361.351562 C 91.027344 362.925781 91.4375 364.1875 92.472656 365.328125 C 95.566406 368.730469 104.003906 370.601562 116.234375 370.601562 C 117.726562 370.601562 119.257812 370.609375 120.808594 370.613281 C 134.40625 370.667969 153.039062 370.738281 155.539062 365.875 C 156.925781 363.183594 157.3125 357.226562 157.71875 350.917969 C 158.214844 343.300781 158.773438 334.667969 161.355469 329.015625 C 166.167969 318.484375 179.433594 312.402344 179.996094 312.152344 C 180.253906 312.035156 180.53125 311.972656 180.8125 311.964844 L 187.585938 311.78125 C 187.601562 311.78125 187.621094 311.78125 187.640625 311.78125 Z M 187.640625 311.78125 " fill-opacity="1" fill-rule="nonzero"/>
  <path fill="#690001" d="M 118.808594 255.066406 C 120.359375 249.109375 122.144531 243.21875 124.007812 237.351562 C 126.03125 231.472656 127.386719 225.453125 130.613281 220.023438 C 130.699219 219.871094 130.960938 219.933594 130.953125 220.117188 C 130.96875 223.316406 130.417969 226.355469 129.726562 229.359375 C 127.683594 238.367188 125.539062 247.355469 122.910156 256.210938 C 122.0625 258.824219 118.183594 257.757812 118.808594 255.066406 Z M 118.808594 255.066406 " fill-opacity="1" fill-rule="nonzero"/>
  <path fill="#690001" d="M 91.722656 291.191406 C 89.605469 288.707031 88.328125 285.523438 88.503906 282.230469 C 88.578125 281.117188 89.054688 279.902344 90.21875 279.289062 C 90.34375 279.222656 90.5 279.285156 90.546875 279.417969 C 91.472656 281.421875 91.421875 282.539062 92.355469 284.28125 C 92.992188 285.550781 94.1875 287.269531 95 288.46875 C 96.589844 290.660156 93.566406 293.152344 91.722656 291.191406 Z M 91.722656 291.191406 " fill-opacity="1" fill-rule="nonzero"/>
  <path fill="#690001" d="M 114.53125 262.933594 C 113.691406 262.933594 112.898438 262.433594 112.558594 261.613281 C 112.476562 261.414062 104.089844 241.652344 79.492188 231.402344 C 78.40625 230.949219 77.890625 229.703125 78.34375 228.617188 C 78.796875 227.53125 80.046875 227.019531 81.132812 227.472656 C 107.4375 238.4375 116.144531 259.125 116.503906 260 C 116.945312 261.085938 116.425781 262.332031 115.335938 262.773438 C 115.070312 262.882812 114.796875 262.933594 114.53125 262.933594 Z M 114.53125 262.933594 " fill-opacity="1" fill-rule="nonzero"/>
  <path fill="#690001" d="M 161.632812 337.230469 C 161.378906 337.230469 161.117188 337.183594 160.867188 337.085938 C 160.570312 336.972656 130.75 325.6875 104.65625 333.441406 C 103.527344 333.777344 102.339844 333.136719 102.007812 332.007812 C 101.667969 330.882812 102.3125 329.695312 103.441406 329.363281 C 130.953125 321.1875 161.128906 332.628906 162.402344 333.117188 C 163.5 333.542969 164.046875 334.773438 163.621094 335.871094 C 163.292969 336.710938 162.488281 337.230469 161.632812 337.230469 Z M 161.632812 337.230469 " fill-opacity="1" fill-rule="nonzero"/>
  <path fill="#690001" d="M 101.066406 347.078125 C 105.417969 346.890625 109.703125 347.429688 113.933594 348.371094 C 115.34375 348.683594 116.742188 349.191406 117.964844 350.316406 C 118.050781 350.394531 118.054688 350.527344 117.976562 350.609375 C 115.074219 351.78125 112.359375 351.148438 109.425781 351.328125 C 106.671875 351.359375 103.851562 351.410156 101.113281 351.332031 C 98.417969 351.1875 98.382812 347.28125 101.066406 347.078125 Z M 101.066406 347.078125 " fill-opacity="1" fill-rule="nonzero"/>
  <g clip-path="url(#8744bd2458)">
    <path fill="#690001" d="M 65.765625 347.839844 C 65.160156 347.839844 64.574219 347.582031 64.167969 347.121094 C 62.566406 345.308594 48.515625 329.171875 48.515625 320.527344 C 48.515625 312.113281 61.359375 289.632812 62.824219 287.097656 C 63.414062 286.082031 64.714844 285.730469 65.734375 286.320312 C 66.753906 286.90625 67.101562 288.207031 66.515625 289.226562 C 62.695312 295.84375 52.777344 314.363281 52.777344 320.527344 C 52.777344 325.671875 60.574219 336.171875 65.335938 341.925781 L 80.886719 312.011719 C 81.242188 311.324219 81.949219 310.882812 82.726562 310.863281 C 83.296875 310.847656 97.167969 310.648438 107.125 322.390625 C 107.882812 323.289062 107.773438 324.632812 106.875 325.390625 C 105.976562 326.152344 104.632812 326.039062 103.871094 325.140625 C 96.863281 316.875 87.378906 315.421875 84.042969 315.171875 L 67.65625 346.691406 C 67.332031 347.316406 66.722656 347.738281 66.023438 347.824219 C 65.9375 347.835938 65.851562 347.839844 65.765625 347.839844 Z M 65.765625 347.839844 " fill-opacity="1" fill-rule="nonzero"/>
  </g>
  <path fill="#690001" d="M 82.773438 315.121094 C 82.429688 315.121094 82.078125 315.035156 81.753906 314.859375 C 80.722656 314.292969 80.34375 313 80.90625 311.972656 L 93.191406 289.542969 C 93.757812 288.511719 95.050781 288.136719 96.082031 288.699219 C 97.117188 289.265625 97.496094 290.558594 96.929688 291.585938 L 84.644531 314.015625 C 84.257812 314.71875 83.527344 315.121094 82.773438 315.121094 Z M 82.773438 315.121094 " fill-opacity="1" fill-rule="nonzero"/>
  <path fill="#690001" d="M 187.640625 332.769531 C 173.996094 332.769531 166.621094 325.125 166.316406 324.796875 C 165.507812 323.941406 165.550781 322.597656 166.402344 321.789062 C 167.257812 320.984375 168.601562 321.023438 169.410156 321.871094 C 169.488281 321.957031 175.925781 328.511719 187.640625 328.511719 C 188.816406 328.511719 189.769531 329.464844 189.769531 330.640625 C 189.769531 331.816406 188.816406 332.769531 187.640625 332.769531 Z M 187.640625 332.769531 " fill-opacity="1" fill-rule="nonzero"/>
  <path fill="#690001" d="M 180.847656 316.222656 C 167.355469 315.953125 146.914062 309.996094 139.507812 297.949219 C 139.414062 297.792969 139.609375 297.59375 139.765625 297.707031 C 145.945312 301.847656 152.179688 305.804688 159.324219 308.003906 C 166.277344 310.265625 173.601562 311.566406 180.890625 311.96875 C 183.699219 312.074219 183.675781 316.167969 180.847656 316.222656 Z M 180.847656 316.222656 " fill-opacity="1" fill-rule="nonzero"/>
  <path fill="#ed8f20" d="M 179.808594 266.261719 L 172.777344 266.90625 L 176.433594 260.871094 L 189.023438 240.085938 L 185.890625 239.890625 L 179.964844 239.53125 L 183.070312 234.476562 L 192.15625 219.679688 L 179.582031 219.679688 L 163.125 245.09375 L 180.089844 245.09375 L 177.40625 250.289062 L 166.84375 270.734375 L 187.457031 270.734375 L 193.578125 265.003906 Z M 179.808594 266.261719 " fill-opacity="1" fill-rule="nonzero"/>
  <path fill="#ffd03b" d="M 195.121094 236.890625 L 186.105469 236.339844 L 198.527344 216.117188 L 177.640625 216.117188 L 156.574219 248.65625 L 174.238281 248.65625 L 160.988281 274.296875 L 188.867188 274.296875 L 203.585938 260.511719 L 179.480469 262.714844 Z M 166.84375 270.734375 L 177.40625 250.289062 L 180.089844 245.09375 L 163.125 245.09375 L 179.582031 219.679688 L 192.15625 219.679688 L 183.070312 234.476562 L 179.964844 239.53125 L 185.890625 239.894531 L 189.023438 240.085938 L 176.433594 260.875 L 172.777344 266.90625 L 179.808594 266.265625 L 193.578125 265.003906 L 187.457031 270.734375 Z M 166.84375 270.734375 " fill-opacity="1" fill-rule="nonzero"/>
  <path fill="#690001" d="M 188.867188 276.425781 L 160.988281 276.425781 C 160.246094 276.425781 159.554688 276.039062 159.167969 275.402344 C 158.78125 274.769531 158.753906 273.980469 159.09375 273.320312 L 170.742188 250.78125 L 156.574219 250.78125 C 155.792969 250.78125 155.074219 250.355469 154.703125 249.671875 C 154.328125 248.988281 154.359375 248.152344 154.785156 247.496094 L 175.851562 214.960938 C 176.246094 214.355469 176.917969 213.988281 177.640625 213.988281 L 198.527344 213.988281 C 199.296875 213.988281 200.007812 214.40625 200.386719 215.078125 C 200.761719 215.75 200.746094 216.574219 200.34375 217.230469 L 189.777344 234.429688 L 195.253906 234.765625 C 195.996094 234.808594 196.664062 235.242188 197.007812 235.902344 C 197.355469 236.5625 197.332031 237.355469 196.945312 237.992188 L 183.488281 260.214844 L 203.390625 258.390625 C 204.296875 258.308594 205.15625 258.808594 205.53125 259.636719 C 205.902344 260.46875 205.707031 261.441406 205.042969 262.0625 L 190.324219 275.847656 C 189.929688 276.21875 189.410156 276.425781 188.867188 276.425781 Z M 164.488281 272.167969 L 188.023438 272.167969 L 197.605469 263.195312 L 179.675781 264.835938 C 178.875 264.914062 178.101562 264.527344 177.675781 263.84375 C 177.25 263.164062 177.242188 262.300781 177.660156 261.613281 L 191.476562 238.800781 L 185.976562 238.460938 C 185.230469 238.417969 184.5625 237.984375 184.214844 237.320312 C 183.871094 236.65625 183.898438 235.863281 184.292969 235.222656 L 194.722656 218.246094 L 178.800781 218.246094 L 160.488281 246.523438 L 174.238281 246.523438 C 174.980469 246.523438 175.671875 246.910156 176.058594 247.546875 C 176.445312 248.179688 176.472656 248.96875 176.132812 249.628906 Z M 164.488281 272.167969 " fill-opacity="1" fill-rule="nonzero"/>
  <path fill="#ffd03b" d="M 161.863281 245.851562 C 161.933594 245.644531 184.011719 239.097656 184.011719 239.097656 C 184.011719 239.097656 182.703125 238.0625 182.703125 237.785156 C 182.703125 237.511719 192.636719 220 192.636719 220 L 192.636719 219.3125 L 179.460938 219.3125 Z M 161.863281 245.851562 " fill-opacity="1" fill-rule="nonzero"/>
  <path fill="#ffd03b" d="M 170.214844 245.851562 L 189.257812 239.578125 L 189.808594 240.265625 L 188.15625 242.714844 L 177.664062 245.851562 Z M 170.214844 245.851562 " fill-opacity="1" fill-rule="nonzero"/>
  <path fill="#ffd03b" d="M 177.253906 248.746094 L 185.285156 246.253906 L 186.152344 246.253906 L 184.359375 248.746094 L 176.699219 250.8125 Z M 177.253906 248.746094 " fill-opacity="1" fill-rule="nonzero"/>
  <path fill="#690001" d="M 124.292969 206.007812 C 124.292969 206.007812 150.058594 227.480469 185.351562 235.082031 C 213.097656 229.4375 248.726562 204.078125 248.726562 204.078125 L 251.554688 194.023438 C 251.554688 194.023438 180.109375 189.839844 178.550781 189.761719 C 176.992188 189.683594 146.121094 189.761719 146.121094 189.761719 L 133.898438 193.398438 C 133.898438 193.398438 121.507812 200.492188 124.292969 206.007812 Z M 124.292969 206.007812 " fill-opacity="0.3" fill-rule="nonzero"/>
  <path fill="#b2421f" d="M 294.351562 66.867188 C 294.351562 66.867188 298.492188 50.601562 289.109375 37.917969 C 279.726562 25.234375 266.199219 27.164062 266.199219 27.164062 C 266.199219 27.164062 259.851562 20.820312 240.808594 23.578125 C 240.808594 23.578125 247.707031 15.304688 251.019531 13.101562 C 251.019531 13.101562 212.195312 1.796875 187.71875 21.371094 C 163.246094 1.796875 124.421875 13.101562 124.421875 13.101562 C 127.734375 15.308594 134.632812 23.578125 134.632812 23.578125 C 115.589844 20.820312 109.242188 27.164062 109.242188 27.164062 C 109.242188 27.164062 95.714844 25.234375 86.332031 37.917969 C 76.945312 50.601562 81.085938 66.867188 81.085938 66.867188 C 58.453125 86.996094 55.96875 114.019531 58.175781 117.878906 C 60.386719 121.738281 66.273438 119.347656 66.273438 119.347656 C 55.050781 142.878906 69.402344 175.230469 73.449219 177.070312 C 77.5 178.90625 82.097656 170.632812 82.097656 170.632812 C 91.113281 201.699219 121.84375 210.339844 124.789062 210.339844 C 127.734375 210.339844 126.628906 200.046875 126.628906 200.046875 C 126.628906 200.046875 146.871094 213.648438 163.796875 217.324219 C 180.726562 221.003906 187.71875 225.414062 187.71875 225.414062 C 187.71875 225.414062 194.710938 221.003906 211.640625 217.324219 C 228.570312 213.648438 248.8125 200.046875 248.8125 200.046875 C 248.8125 200.046875 247.707031 210.339844 250.652344 210.339844 C 253.59375 210.339844 284.324219 201.699219 293.339844 170.632812 C 293.339844 170.632812 297.941406 178.90625 301.988281 177.070312 C 306.039062 175.230469 320.390625 142.878906 309.164062 119.347656 C 309.164062 119.347656 315.054688 121.738281 317.261719 117.878906 C 319.46875 114.019531 316.988281 86.996094 294.351562 66.867188 Z M 294.351562 66.867188 " fill-opacity="1" fill-rule="nonzero"/>
  <path fill="#ffb946" d="M 105.433594 126.078125 C 105.433594 126.078125 131.777344 143.523438 150.304688 139.386719 C 168.828125 135.25 179.09375 118.171875 188.820312 118.851562 C 198.546875 119.535156 211.300781 141.390625 234.457031 140.019531 C 257.613281 138.652344 274.675781 122.558594 274.675781 122.558594 C 274.675781 122.558594 276.320312 121.464844 277.878906 122.707031 C 279.441406 123.945312 284.644531 149.230469 275.039062 168.367188 C 265.433594 187.503906 227.511719 201.464844 193.0625 202.503906 C 158.617188 203.542969 125.035156 193.019531 108.886719 178.796875 C 92.738281 164.570312 94.097656 141.410156 94.246094 134.421875 C 94.398438 127.4375 98.464844 120.605469 98.464844 120.605469 Z M 105.433594 126.078125 " fill-opacity="1" fill-rule="nonzero"/>
  <path fill="none" d="M 233.605469 146.1875 C 220.410156 142.144531 216.824219 137.730469 216.824219 137.730469 C 216.824219 137.730469 211.082031 134.398438 207.226562 131.113281 C 203.367188 127.832031 193.460938 118.15625 187.71875 118.15625 C 181.976562 118.15625 172.074219 127.832031 168.214844 131.113281 C 164.355469 134.398438 158.617188 137.730469 158.617188 137.730469 C 158.617188 137.730469 155.027344 142.144531 141.832031 146.1875 C 128.636719 150.230469 121.078125 157.308594 129.265625 174.957031 C 137.449219 192.601562 157.359375 199.167969 157.359375 199.167969 C 167.789062 201.507812 187.71875 201.699219 187.71875 201.699219 C 187.71875 201.699219 207.648438 201.507812 218.078125 199.167969 C 218.078125 199.167969 237.992188 192.601562 246.175781 174.957031 C 254.363281 157.308594 246.800781 150.230469 233.605469 146.1875 Z M 233.605469 146.1875 " fill-opacity="1" fill-rule="nonzero"/>
  <path fill="#ffb946" d="M 120.195312 82.996094 C 120.195312 82.996094 127.945312 62.800781 147.511719 58.539062 C 167.078125 54.277344 184.921875 70.292969 186.488281 72.761719 C 188.054688 75.230469 191.25 70.410156 191.25 70.410156 C 191.25 70.410156 205.902344 55.789062 223.175781 57.742188 C 240.453125 59.699219 249.652344 73.46875 252.304688 77.960938 C 254.953125 82.453125 257.835938 88.25 257.835938 88.25 C 257.835938 88.25 242.523438 82.328125 227.066406 86.246094 C 211.609375 90.167969 193.867188 101.023438 186.078125 99.25 C 178.289062 97.472656 162.203125 89.476562 148.816406 86.996094 C 135.429688 84.511719 118.636719 89.480469 118.636719 89.480469 L 117.925781 87.550781 Z M 120.195312 82.996094 " fill-opacity="1" fill-rule="nonzero"/>
  <path fill="#f92b3b" d="M 169.210938 93.730469 C 169.210938 93.730469 185.027344 102.371094 192.289062 99.445312 C 199.550781 96.519531 218.28125 88.46875 228.398438 86.492188 C 238.519531 84.515625 256.503906 89.597656 262.300781 91.375 C 268.101562 93.15625 268.355469 94.222656 269.613281 96.984375 C 270.871094 99.746094 275.96875 113.089844 276.527344 114.984375 C 277.089844 116.875 278.382812 120.1875 276.527344 121.371094 C 274.675781 122.558594 250.269531 140.917969 233.605469 140.058594 C 216.945312 139.203125 208.277344 132.371094 200.835938 125.539062 C 193.394531 118.707031 187.59375 116.273438 179.507812 122.347656 C 171.417969 128.421875 157.46875 143.558594 137.15625 139.726562 C 116.847656 135.894531 99.734375 121.648438 99.734375 121.648438 C 99.734375 121.648438 97.648438 119.28125 98.265625 117.171875 C 98.886719 115.0625 105.933594 95.820312 105.933594 95.820312 L 111.710938 91.949219 C 111.710938 91.949219 123.929688 85.960938 140.121094 86.25 C 156.3125 86.535156 169.210938 93.730469 169.210938 93.730469 Z M 169.210938 93.730469 " fill-opacity="1" fill-rule="nonzero"/>
  <path fill="#ffb946" d="M 92.570312 80.363281 C 92.570312 80.363281 77.835938 72.828125 80.59375 52.339844 C 83.355469 31.851562 100.84375 27.164062 105.042969 27.164062 C 109.238281 27.164062 116.261719 26.882812 122.808594 32.765625 C 129.359375 38.652344 130.125 42.050781 130.125 42.050781 L 128.621094 44.351562 C 128.621094 44.351562 113.992188 50.03125 109.667969 53.761719 C 105.34375 57.492188 110.15625 62.273438 111.304688 62.777344 C 112.453125 63.277344 112.84375 65.675781 112.84375 65.675781 C 112.84375 65.675781 100.007812 75.601562 97.523438 77.808594 C 95.039062 80.011719 92.570312 80.363281 92.570312 80.363281 Z M 92.570312 80.363281 " fill-opacity="1" fill-rule="nonzero"/>
  <path fill="#ff5d64" d="M 104.394531 66.867188 C 104.394531 66.867188 93.902344 63.15625 96.957031 53.203125 C 100.007812 43.246094 110.214844 44.425781 112.632812 46.0625 C 115.050781 47.703125 115.464844 49.496094 115.464844 49.496094 C 115.464844 49.496094 115.648438 50.417969 112.246094 53.171875 C 108.84375 55.929688 106.628906 58.054688 108.964844 60.414062 C 111.304688 62.777344 112.027344 63.097656 112.363281 64.058594 C 112.695312 65.023438 107.738281 68.125 107.738281 68.125 Z M 104.394531 66.867188 " fill-opacity="1" fill-rule="nonzero"/>
  <path fill="#ffb946" d="M 282.230469 80.363281 C 282.230469 80.363281 296.96875 72.828125 294.207031 52.339844 C 291.445312 31.851562 273.957031 27.164062 269.761719 27.164062 C 265.5625 27.164062 258.542969 26.882812 251.992188 32.765625 C 245.445312 38.652344 244.679688 42.050781 244.679688 42.050781 L 246.183594 44.351562 C 246.183594 44.351562 260.808594 50.03125 265.132812 53.761719 C 269.457031 57.492188 264.648438 62.273438 263.5 62.777344 C 262.351562 63.277344 261.960938 65.675781 261.960938 65.675781 C 261.960938 65.675781 274.796875 75.601562 277.28125 77.808594 C 279.765625 80.011719 282.230469 80.363281 282.230469 80.363281 Z M 282.230469 80.363281 " fill-opacity="1" fill-rule="nonzero"/>
  <path fill="#ff5d64" d="M 270.40625 66.867188 C 270.40625 66.867188 280.902344 63.15625 277.847656 53.203125 C 274.796875 43.246094 264.589844 44.425781 262.171875 46.0625 C 259.753906 47.703125 259.339844 49.496094 259.339844 49.496094 C 259.339844 49.496094 259.152344 50.417969 262.558594 53.171875 C 265.960938 55.929688 268.175781 58.054688 265.839844 60.414062 C 263.5 62.777344 262.777344 63.097656 262.441406 64.058594 C 262.105469 65.023438 267.066406 68.125 267.066406 68.125 Z M 270.40625 66.867188 " fill-opacity="1" fill-rule="nonzero"/>
  <path fill="#690001" d="M 187.71875 132.585938 C 187.71875 132.585938 175.207031 132.769531 175.574219 136.078125 C 175.941406 139.386719 187.71875 146.1875 187.71875 146.1875 C 187.71875 146.1875 199.496094 139.386719 199.863281 136.078125 C 200.234375 132.769531 187.71875 132.585938 187.71875 132.585938 Z M 187.71875 132.585938 " fill-opacity="1" fill-rule="nonzero"/>
  <path fill="#690001" d="M 135.523438 111.683594 C 135.144531 121.636719 141.457031 129.960938 149.621094 130.28125 C 157.78125 130.601562 164.707031 122.792969 165.082031 112.839844 C 165.226562 109.105469 164.425781 105.605469 162.941406 102.664062 C 162.941406 102.664062 147.507812 93.882812 146.261719 94.621094 C 141.230469 97.59375 135.800781 104.417969 135.523438 111.683594 Z M 135.523438 111.683594 " fill-opacity="1" fill-rule="nonzero"/>
  <path fill="none" d="M 155.777344 104.761719 C 156.085938 104.773438 156.394531 104.824219 156.695312 104.910156 C 156.996094 105 157.285156 105.125 157.566406 105.289062 C 157.847656 105.449219 158.113281 105.644531 158.363281 105.875 C 158.613281 106.105469 158.84375 106.363281 159.050781 106.652344 C 159.261719 106.941406 159.445312 107.253906 159.605469 107.589844 C 159.765625 107.925781 159.898438 108.28125 160.003906 108.652344 C 160.109375 109.023438 160.183594 109.402344 160.230469 109.792969 C 160.277344 110.1875 160.292969 110.578125 160.28125 110.976562 C 160.265625 111.375 160.222656 111.765625 160.148438 112.152344 C 160.070312 112.539062 159.96875 112.914062 159.835938 113.277344 C 159.703125 113.640625 159.546875 113.980469 159.363281 114.304688 C 159.179688 114.628906 158.972656 114.929688 158.742188 115.199219 C 158.511719 115.472656 158.265625 115.714844 158 115.925781 C 157.734375 116.136719 157.457031 116.3125 157.164062 116.457031 C 156.871094 116.597656 156.570312 116.703125 156.265625 116.769531 C 155.957031 116.835938 155.648438 116.863281 155.339844 116.851562 C 155.03125 116.839844 154.722656 116.789062 154.421875 116.703125 C 154.121094 116.613281 153.832031 116.488281 153.550781 116.324219 C 153.269531 116.164062 153.003906 115.96875 152.753906 115.738281 C 152.503906 115.507812 152.273438 115.25 152.066406 114.960938 C 151.855469 114.671875 151.671875 114.359375 151.511719 114.023438 C 151.351562 113.6875 151.21875 113.332031 151.113281 112.960938 C 151.007812 112.589844 150.929688 112.210938 150.886719 111.820312 C 150.839844 111.425781 150.824219 111.03125 150.835938 110.636719 C 150.851562 110.238281 150.894531 109.847656 150.96875 109.460938 C 151.042969 109.074219 151.148438 108.699219 151.28125 108.335938 C 151.410156 107.972656 151.570312 107.628906 151.753906 107.308594 C 151.9375 106.984375 152.144531 106.683594 152.375 106.410156 C 152.605469 106.140625 152.851562 105.898438 153.117188 105.6875 C 153.382812 105.476562 153.660156 105.296875 153.953125 105.15625 C 154.246094 105.015625 154.542969 104.910156 154.851562 104.84375 C 155.160156 104.777344 155.46875 104.75 155.777344 104.761719 Z M 155.777344 104.761719 " fill-opacity="1" fill-rule="nonzero"/>
  <g mask="url(#de4f5bed39)">
    <g transform="matrix(1, 0, 0, 1, 138, 113)">
      <g clip-path="url(#ab8e4703f7)">
        <path fill="none" d="M 8.605469 5.300781 C 8.757812 5.589844 8.890625 5.882812 9.007812 6.183594 C 9.125 6.484375 9.222656 6.785156 9.300781 7.085938 C 9.378906 7.386719 9.4375 7.683594 9.472656 7.972656 C 9.507812 8.261719 9.523438 8.539062 9.515625 8.804688 C 9.503906 9.070312 9.476562 9.316406 9.425781 9.550781 C 9.371094 9.785156 9.300781 9.996094 9.207031 10.183594 C 9.113281 10.375 9 10.542969 8.871094 10.683594 C 8.738281 10.824219 8.59375 10.9375 8.429688 11.023438 C 8.265625 11.109375 8.085938 11.164062 7.898438 11.195312 C 7.707031 11.222656 7.507812 11.21875 7.296875 11.1875 C 7.085938 11.15625 6.871094 11.097656 6.648438 11.007812 C 6.429688 10.917969 6.207031 10.800781 5.984375 10.65625 C 5.757812 10.511719 5.539062 10.34375 5.320312 10.152344 C 5.101562 9.957031 4.890625 9.746094 4.6875 9.507812 C 4.484375 9.273438 4.292969 9.023438 4.109375 8.757812 C 3.929688 8.488281 3.761719 8.210938 3.609375 7.921875 C 3.457031 7.632812 3.324219 7.335938 3.203125 7.035156 C 3.085938 6.734375 2.988281 6.433594 2.910156 6.132812 C 2.832031 5.832031 2.777344 5.535156 2.742188 5.25 C 2.707031 4.960938 2.691406 4.683594 2.699219 4.417969 C 2.707031 4.152344 2.738281 3.902344 2.789062 3.667969 C 2.839844 3.4375 2.914062 3.226562 3.007812 3.035156 C 3.101562 2.84375 3.210938 2.679688 3.34375 2.539062 C 3.472656 2.394531 3.621094 2.28125 3.785156 2.195312 C 3.949219 2.109375 4.125 2.054688 4.316406 2.027344 C 4.507812 1.996094 4.707031 2 4.917969 2.03125 C 5.128906 2.0625 5.34375 2.121094 5.5625 2.210938 C 5.785156 2.300781 6.007812 2.417969 6.230469 2.5625 C 6.453125 2.707031 6.675781 2.875 6.894531 3.066406 C 7.109375 3.261719 7.320312 3.476562 7.523438 3.710938 C 7.730469 3.945312 7.921875 4.195312 8.101562 4.464844 C 8.285156 4.730469 8.453125 5.007812 8.605469 5.300781 Z M 8.605469 5.300781 " fill-opacity="1" fill-rule="nonzero"/>
      </g>
    </g>
  </g>
  <path fill="#690001" d="M 142.300781 91.824219 C 149.058594 95.707031 156.011719 98.550781 162.773438 102.464844 C 164.347656 103.433594 165.628906 104.433594 167.320312 104.945312 C 167.992188 105.277344 169.921875 105.035156 169.722656 106.25 C 169.664062 106.5 169.484375 106.691406 169.261719 106.777344 C 166.601562 107.996094 163.324219 107.109375 160.894531 105.917969 C 156.253906 103.675781 151.363281 101.609375 147.136719 98.484375 C 144.988281 96.882812 142.972656 95.054688 141.363281 92.890625 C 140.898438 92.285156 141.640625 91.4375 142.300781 91.824219 Z M 142.300781 91.824219 " fill-opacity="1" fill-rule="nonzero"/>
  <path fill="#690001" d="M 239.914062 111.683594 C 240.292969 121.636719 233.984375 129.960938 225.820312 130.28125 C 217.65625 130.601562 210.734375 122.792969 210.355469 112.839844 C 210.214844 109.105469 211.015625 105.605469 212.5 102.664062 C 212.5 102.664062 227.933594 93.882812 229.179688 94.621094 C 234.210938 97.59375 239.640625 104.417969 239.914062 111.683594 Z M 239.914062 111.683594 " fill-opacity="1" fill-rule="nonzero"/>
  <path fill="none" d="M 224.613281 110.613281 C 224.625 111.011719 224.609375 111.402344 224.5625 111.796875 C 224.515625 112.1875 224.441406 112.566406 224.335938 112.9375 C 224.230469 113.308594 224.097656 113.664062 223.9375 114 C 223.777344 114.335938 223.59375 114.648438 223.382812 114.9375 C 223.175781 115.226562 222.945312 115.484375 222.695312 115.714844 C 222.445312 115.945312 222.179688 116.140625 221.898438 116.300781 C 221.617188 116.464844 221.328125 116.589844 221.023438 116.679688 C 220.722656 116.765625 220.417969 116.816406 220.109375 116.828125 C 219.796875 116.839844 219.488281 116.8125 219.183594 116.746094 C 218.875 116.679688 218.578125 116.574219 218.285156 116.433594 C 217.992188 116.292969 217.714844 116.113281 217.449219 115.902344 C 217.183594 115.691406 216.933594 115.449219 216.707031 115.179688 C 216.476562 114.90625 216.269531 114.605469 216.085938 114.285156 C 215.902344 113.960938 215.742188 113.617188 215.613281 113.253906 C 215.480469 112.890625 215.375 112.515625 215.300781 112.128906 C 215.226562 111.742188 215.183594 111.351562 215.167969 110.953125 C 215.152344 110.558594 215.171875 110.164062 215.214844 109.773438 C 215.261719 109.378906 215.339844 109 215.445312 108.628906 C 215.550781 108.257812 215.683594 107.902344 215.84375 107.566406 C 216.003906 107.230469 216.1875 106.917969 216.398438 106.628906 C 216.605469 106.339844 216.835938 106.082031 217.085938 105.851562 C 217.335938 105.621094 217.601562 105.425781 217.882812 105.265625 C 218.160156 105.101562 218.453125 104.976562 218.753906 104.890625 C 219.054688 104.800781 219.359375 104.75 219.671875 104.738281 C 219.980469 104.726562 220.289062 104.753906 220.597656 104.824219 C 220.902344 104.890625 221.203125 104.992188 221.496094 105.132812 C 221.785156 105.277344 222.066406 105.453125 222.332031 105.664062 C 222.597656 105.875 222.84375 106.117188 223.074219 106.390625 C 223.304688 106.660156 223.511719 106.960938 223.695312 107.285156 C 223.878906 107.609375 224.035156 107.949219 224.167969 108.3125 C 224.300781 108.675781 224.402344 109.050781 224.476562 109.4375 C 224.550781 109.824219 224.597656 110.214844 224.613281 110.613281 Z M 224.613281 110.613281 " fill-opacity="1" fill-rule="nonzero"/>
  <g mask="url(#e54fda6823)">
    <g transform="matrix(1, 0, 0, 1, 226, 113)">
      <g clip-path="url(#d7368f90e8)">
        <path fill="none" d="M 7.660156 2.207031 C 7.824219 2.292969 7.96875 2.410156 8.101562 2.550781 C 8.234375 2.691406 8.34375 2.855469 8.4375 3.046875 C 8.53125 3.238281 8.601562 3.449219 8.65625 3.679688 C 8.707031 3.914062 8.738281 4.164062 8.746094 4.429688 C 8.753906 4.695312 8.738281 4.972656 8.703125 5.261719 C 8.667969 5.546875 8.609375 5.84375 8.53125 6.144531 C 8.453125 6.445312 8.355469 6.746094 8.238281 7.046875 C 8.121094 7.347656 7.988281 7.644531 7.835938 7.933594 C 7.683594 8.222656 7.515625 8.5 7.332031 8.769531 C 7.152344 9.035156 6.960938 9.285156 6.757812 9.519531 C 6.550781 9.757812 6.339844 9.96875 6.125 10.164062 C 5.90625 10.355469 5.683594 10.523438 5.460938 10.667969 C 5.238281 10.8125 5.015625 10.929688 4.792969 11.019531 C 4.574219 11.109375 4.359375 11.167969 4.148438 11.199219 C 3.9375 11.230469 3.738281 11.234375 3.546875 11.207031 C 3.355469 11.175781 3.179688 11.121094 3.015625 11.035156 C 2.851562 10.949219 2.703125 10.835938 2.574219 10.695312 C 2.441406 10.554688 2.332031 10.386719 2.238281 10.195312 C 2.144531 10.007812 2.070312 9.796875 2.019531 9.5625 C 1.96875 9.332031 1.9375 9.082031 1.929688 8.816406 C 1.921875 8.550781 1.9375 8.273438 1.972656 7.984375 C 2.007812 7.695312 2.0625 7.398438 2.140625 7.097656 C 2.21875 6.796875 2.316406 6.496094 2.4375 6.195312 C 2.554688 5.894531 2.6875 5.601562 2.839844 5.3125 C 2.992188 5.019531 3.160156 4.742188 3.339844 4.476562 C 3.523438 4.207031 3.714844 3.957031 3.917969 3.722656 C 4.121094 3.488281 4.332031 3.273438 4.550781 3.078125 C 4.769531 2.886719 4.988281 2.71875 5.214844 2.574219 C 5.4375 2.429688 5.660156 2.3125 5.878906 2.222656 C 6.101562 2.132812 6.316406 2.074219 6.527344 2.042969 C 6.738281 2.011719 6.9375 2.011719 7.128906 2.039062 C 7.316406 2.066406 7.496094 2.121094 7.660156 2.207031 Z M 7.660156 2.207031 " fill-opacity="1" fill-rule="nonzero"/>
      </g>
    </g>
  </g>
  <path fill="#690001" d="M 234.078125 92.890625 C 230.859375 97.171875 226.1875 100.207031 221.492188 102.582031 C 219.148438 103.757812 216.824219 104.816406 214.546875 105.917969 C 212.117188 107.105469 208.835938 107.996094 206.179688 106.777344 C 205.796875 106.632812 205.601562 106.207031 205.746094 105.824219 C 205.835938 105.582031 206.042969 105.414062 206.277344 105.359375 C 206.9375 105.210938 207.574219 105.105469 208.121094 104.945312 C 209.808594 104.433594 211.09375 103.433594 212.667969 102.464844 C 217.152344 99.789062 221.828125 97.777344 226.398438 95.417969 C 228.648438 94.28125 230.847656 93.070312 233.140625 91.824219 C 233.796875 91.441406 234.546875 92.285156 234.078125 92.890625 Z M 234.078125 92.890625 " fill-opacity="1" fill-rule="nonzero"/>
  <path fill="#690001" d="M 85.359375 39.320312 C 85.359375 39.320312 80.054688 63.890625 101.761719 74.890625 C 101.761719 74.890625 96.523438 79.828125 96.398438 80 C 96.269531 80.171875 92.441406 79.515625 92.441406 79.515625 C 92.441406 79.515625 82.578125 75.019531 80.757812 62.992188 C 78.941406 50.96875 84.386719 40.726562 85.359375 39.320312 Z M 85.359375 39.320312 " fill-opacity="0.2" fill-rule="nonzero"/>
  <path fill="#690001" d="M 100.101562 65.214844 C 100.285156 64.386719 98.445312 56.113281 103.320312 52.4375 C 108.195312 48.761719 113.566406 52.4375 113.566406 52.4375 L 122.742188 47.011719 C 122.742188 47.011719 117.964844 39.386719 106.78125 40.121094 C 95.59375 40.855469 93.335938 53.171875 95.570312 59.238281 C 97.800781 65.308594 100.101562 65.214844 100.101562 65.214844 Z M 100.101562 65.214844 " fill-opacity="0.3" fill-rule="nonzero"/>
  <path fill="#690001" d="M 162.707031 148.265625 C 162.707031 148.265625 169.609375 152.691406 175.566406 152.347656 C 181.523438 152 181.59375 144.144531 181.800781 144.144531 C 182.007812 144.144531 186.078125 146.1875 186.078125 146.1875 C 186.078125 146.1875 188.042969 148.347656 187.882812 148.554688 C 187.71875 148.761719 187.425781 152.941406 187.425781 152.941406 C 187.425781 152.941406 185.1875 155.058594 184.839844 155.269531 C 184.492188 155.476562 179.5625 159.304688 173.402344 157.894531 C 167.242188 156.484375 162.707031 148.265625 162.707031 148.265625 Z M 162.707031 148.265625 " fill-opacity="0.3" fill-rule="nonzero"/>
  <path fill="#690001" d="M 301.511719 74.890625 C 301.511719 74.890625 308.421875 97.300781 307.871094 106.140625 C 307.320312 114.984375 302.488281 109.054688 300.003906 110.847656 C 297.519531 112.640625 304.972656 126.703125 302.765625 147.105469 C 301.523438 155.929688 299.453125 163.238281 298.488281 162.824219 C 297.519531 162.410156 292.550781 155.515625 290.066406 157.445312 C 287.582031 159.375 284.386719 168.890625 280.601562 174.679688 C 280.601562 174.679688 282.636719 154.417969 280.488281 145.179688 L 279.738281 131.957031 C 279.738281 131.957031 270.710938 189.71875 187.425781 189.929688 C 104.140625 189.71875 95.109375 131.957031 95.109375 131.957031 L 94.363281 145.179688 C 92.214844 154.417969 94.246094 174.679688 94.246094 174.679688 C 90.464844 168.890625 87.265625 159.378906 84.78125 157.445312 C 82.296875 155.515625 77.332031 162.410156 76.363281 162.824219 C 75.398438 163.238281 73.328125 155.929688 72.085938 147.105469 C 69.878906 126.703125 77.332031 112.640625 74.847656 110.847656 C 72.363281 109.054688 67.53125 114.984375 66.980469 106.140625 C 66.429688 97.300781 73.339844 74.890625 73.339844 74.890625 C 58.445312 93.117188 56.628906 110.160156 57.960938 116.039062 C 59.296875 121.921875 64.863281 119.347656 65.542969 119.597656 C 66.226562 119.84375 65.144531 121.960938 63.925781 125.582031 C 62.707031 129.203125 60.355469 141.867188 64.105469 156.210938 C 67.851562 170.554688 71.257812 175.988281 73.742188 176.679688 C 76.226562 177.367188 81.234375 172.019531 81.882812 171.855469 C 82.53125 171.6875 83.621094 175.167969 83.621094 175.167969 C 92.71875 191.207031 118.867188 203.769531 119.972656 202.804688 C 121.078125 201.839844 120.664062 193.707031 122.457031 193.015625 C 124.25 192.328125 127.289062 193.84375 137.914062 199.910156 C 148.539062 205.976562 162.757812 210.386719 172.003906 213.007812 C 179.242188 215.058594 184.863281 217.101562 186.96875 217.898438 L 187.882812 217.898438 C 189.988281 217.101562 195.609375 215.058594 202.847656 213.007812 C 212.09375 210.386719 226.308594 205.976562 236.933594 199.910156 C 247.5625 193.84375 250.597656 192.328125 252.390625 193.015625 C 254.1875 193.707031 253.773438 201.839844 254.875 202.804688 C 255.980469 203.769531 282.128906 191.207031 291.226562 175.167969 C 291.226562 175.167969 292.320312 171.6875 292.96875 171.855469 C 293.617188 172.019531 298.625 177.367188 301.109375 176.679688 C 303.59375 175.988281 306.996094 170.554688 310.746094 156.210938 C 314.496094 141.867188 312.144531 129.203125 310.921875 125.582031 C 309.703125 121.960938 308.625 119.84375 309.304688 119.597656 C 309.988281 119.347656 315.554688 121.921875 316.886719 116.039062 C 318.222656 110.160156 316.40625 93.117188 301.511719 74.890625 Z M 301.511719 74.890625 " fill-opacity="0.2" fill-rule="nonzero"/>
  <path fill="#690001" d="M 264.078125 109.425781 C 264.078125 109.425781 246.417969 130.5625 229.484375 132.585938 C 212.972656 134.558594 199.777344 109.796875 187.882812 108.558594 L 187.882812 108.503906 C 187.730469 108.503906 187.578125 108.511719 187.425781 108.519531 C 187.273438 108.511719 187.121094 108.503906 186.96875 108.503906 L 186.96875 108.558594 C 175.070312 109.796875 161.878906 134.558594 145.367188 132.585938 C 128.429688 130.5625 110.773438 109.425781 110.773438 109.425781 L 101.941406 123.394531 C 101.941406 123.394531 113.257812 132.308594 127.820312 137.46875 C 142.386719 142.625 160.363281 138.835938 166.804688 133.964844 C 172.574219 129.601562 184.917969 124.058594 187.425781 122.953125 C 189.929688 124.058594 202.273438 129.601562 208.046875 133.964844 C 214.488281 138.835938 232.464844 142.625 247.027344 137.46875 C 261.59375 132.308594 272.910156 123.394531 272.910156 123.394531 Z M 264.078125 109.425781 " fill-opacity="0.2" fill-rule="nonzero"/>
  <path fill="#690001" d="M 279.28125 83.320312 C 279.28125 83.320312 264.628906 81.207031 260.671875 77.714844 C 256.714844 74.222656 243.222656 60.710938 244.726562 60.34375 C 246.226562 59.976562 252.117188 59.371094 250.460938 57.742188 C 248.804688 56.117188 236.945312 47.6875 219.035156 48.394531 C 200.410156 49.128906 187.425781 61.078125 187.425781 61.078125 C 187.425781 61.078125 174.441406 49.128906 155.8125 48.394531 C 137.902344 47.6875 126.046875 56.113281 124.390625 57.742188 C 122.734375 59.371094 128.621094 59.976562 130.125 60.34375 C 131.628906 60.710938 118.132812 74.222656 114.175781 77.714844 C 110.222656 81.207031 95.570312 83.320312 95.570312 83.320312 C 93.890625 84.421875 94.78125 86.128906 96.117188 87.761719 C 97.453125 89.398438 105.1875 93.058594 105.1875 93.058594 L 109.179688 93.058594 C 109.179688 93.058594 113.074219 91.316406 115.46875 90.0625 C 117.859375 88.808594 119.238281 86.042969 119.238281 86.042969 C 119.238281 86.042969 124.539062 75.851562 129.832031 69.277344 C 135.128906 62.707031 145.824219 55.746094 160.730469 58.503906 C 175.636719 61.261719 187.425781 72.660156 187.425781 72.660156 C 187.425781 72.660156 199.210938 61.261719 214.117188 58.503906 C 229.019531 55.746094 239.722656 62.703125 245.015625 69.277344 C 250.3125 75.851562 255.609375 86.042969 255.609375 86.042969 C 255.609375 86.042969 256.988281 88.808594 259.382812 90.0625 C 261.773438 91.316406 265.667969 93.058594 265.667969 93.058594 L 269.660156 93.058594 C 269.660156 93.058594 277.394531 89.398438 278.730469 87.761719 C 280.070312 86.128906 280.960938 84.421875 279.28125 83.320312 Z M 279.28125 83.320312 " fill-opacity="0.2" fill-rule="nonzero"/>
  <path fill="#690001" d="M 289.492188 39.320312 C 289.492188 39.320312 294.796875 63.890625 273.085938 74.890625 C 273.085938 74.890625 278.324219 79.828125 278.453125 80 C 278.578125 80.171875 282.410156 79.515625 282.410156 79.515625 C 282.410156 79.515625 292.273438 75.019531 294.089844 62.992188 C 295.910156 50.964844 290.464844 40.726562 289.492188 39.320312 Z M 289.492188 39.320312 " fill-opacity="0.3" fill-rule="nonzero"/>
  <path fill="#690001" d="M 274.75 65.214844 C 274.566406 64.386719 276.40625 56.113281 271.53125 52.4375 C 266.652344 48.761719 261.285156 52.4375 261.285156 52.4375 L 252.109375 47.011719 C 252.109375 47.011719 256.882812 39.386719 268.070312 40.121094 C 279.257812 40.855469 281.511719 53.171875 279.28125 59.238281 C 277.050781 65.308594 274.75 65.214844 274.75 65.214844 Z M 274.75 65.214844 " fill-opacity="0.3" fill-rule="nonzero"/>
  <path fill="#690001" d="M 212.140625 148.265625 C 212.140625 148.265625 205.242188 152.691406 199.285156 152.347656 C 193.324219 152.003906 193.257812 144.144531 193.050781 144.144531 C 192.84375 144.144531 188.773438 146.1875 188.773438 146.1875 C 188.773438 146.1875 186.808594 148.347656 186.96875 148.554688 C 187.132812 148.761719 187.425781 152.941406 187.425781 152.941406 C 187.425781 152.941406 189.660156 155.058594 190.011719 155.269531 C 190.359375 155.476562 195.289062 159.304688 201.449219 157.894531 C 207.609375 156.484375 212.140625 148.265625 212.140625 148.265625 Z M 212.140625 148.265625 " fill-opacity="0.3" fill-rule="nonzero"/>
  <path fill="none" d="M 83.539062 42.902344 C 83.539062 42.902344 94.835938 32.863281 105.933594 32.496094 C 117.03125 32.128906 124.292969 40.238281 126.640625 45.144531 C 126.640625 45.144531 129.554688 43.800781 129.238281 41.710938 C 128.925781 39.625 125.484375 31.054688 113.714844 28.007812 C 101.941406 24.957031 89.058594 30.792969 83.539062 42.902344 Z M 83.539062 42.902344 " fill-opacity="0.4" fill-rule="nonzero"/>
  <path fill="none" d="M 291.898438 42.902344 C 291.898438 42.902344 280.605469 32.863281 269.507812 32.496094 C 258.410156 32.128906 251.148438 40.238281 248.796875 45.144531 C 248.796875 45.144531 245.886719 43.800781 246.199219 41.710938 C 246.515625 39.625 249.957031 31.054688 261.726562 28.007812 C 273.5 24.957031 286.378906 30.792969 291.898438 42.902344 Z M 291.898438 42.902344 " fill-opacity="0.4" fill-rule="nonzero"/>
  <path fill="none" d="M 255.605469 23.25 C 250.871094 22.921875 242.894531 23.304688 242.894531 23.304688 C 242.894531 23.304688 242.402344 22.75 242.160156 21.992188 C 241.921875 21.230469 249.578125 13.375 249.601562 12.726562 C 249.625 12.078125 225.472656 7.675781 208.925781 11.59375 C 192.375 15.507812 187.71875 21.871094 187.71875 21.871094 C 187.71875 21.871094 183.0625 15.507812 166.515625 11.59375 C 149.96875 7.675781 125.8125 12.078125 125.839844 12.726562 C 125.863281 13.375 133.519531 21.230469 133.277344 21.992188 C 133.039062 22.75 132.546875 23.304688 132.546875 23.304688 C 132.546875 23.304688 124.566406 22.921875 119.832031 23.25 C 115.097656 23.578125 110.269531 25.96875 114.9375 28.542969 C 115.1875 28.679688 122.335938 26.957031 130.125 27.921875 C 137.914062 28.886719 140.878906 27.714844 140.984375 24.820312 C 141.089844 21.925781 135.566406 17.375 136.328125 16.6875 C 137.085938 15.996094 151.855469 12.824219 167.035156 18.617188 C 182.214844 24.40625 184.769531 27.992188 187.425781 27.992188 L 188.011719 27.992188 C 190.667969 27.992188 193.222656 24.40625 208.402344 18.617188 C 223.585938 12.824219 238.351562 15.996094 239.109375 16.6875 C 239.871094 17.375 234.347656 21.925781 234.453125 24.820312 C 234.558594 27.714844 237.523438 28.886719 245.3125 27.921875 C 253.101562 26.957031 260.25 28.679688 260.5 28.542969 C 265.171875 25.96875 260.34375 23.578125 255.605469 23.25 Z M 255.605469 23.25 " fill-opacity="0.4" fill-rule="nonzero"/>
  <path fill="none" d="M 217.628906 58.082031 C 200.355469 59.910156 187.71875 74.890625 187.71875 74.890625 C 187.71875 74.890625 175.085938 59.910156 157.8125 58.082031 C 140.535156 56.253906 128.667969 67.558594 121.285156 82.308594 C 121.285156 82.308594 138.472656 64.203125 155.8125 65.214844 C 173.152344 66.226562 182.117188 82.308594 187.71875 82.308594 C 193.320312 82.308594 202.285156 66.226562 219.625 65.214844 C 236.964844 64.203125 254.152344 82.308594 254.152344 82.308594 C 246.769531 67.558594 234.902344 56.253906 217.628906 58.082031 Z M 217.628906 58.082031 " fill-opacity="0.4" fill-rule="nonzero"/>
  <path fill="none" d="M 266.261719 93.058594 C 266.261719 93.058594 256.5625 86.671875 239.042969 86.042969 C 221.523438 85.414062 208.136719 92.941406 207.539062 93.058594 C 206.9375 93.171875 187.71875 101.335938 187.71875 101.335938 C 187.71875 101.335938 168.5 93.175781 167.902344 93.058594 C 167.304688 92.941406 153.917969 85.414062 136.398438 86.042969 C 118.878906 86.671875 109.179688 93.058594 109.179688 93.058594 C 109.179688 93.058594 106.136719 96.199219 105.1875 99.25 C 105.1875 99.25 127.578125 89.308594 147.515625 92.359375 C 167.449219 95.40625 173.609375 104.78125 187.71875 104.78125 C 201.828125 104.78125 207.992188 95.40625 227.925781 92.359375 C 247.859375 89.308594 270.25 99.25 270.25 99.25 C 269.304688 96.199219 266.261719 93.058594 266.261719 93.058594 Z M 266.261719 93.058594 " fill-opacity="0.4" fill-rule="nonzero"/>
  <path fill="#690001" d="M 187.71875 227.542969 C 187.324219 227.542969 186.929688 227.433594 186.582031 227.214844 C 186.519531 227.175781 179.59375 222.9375 163.34375 219.40625 C 150.289062 216.574219 135.601562 208.164062 128.980469 204.078125 C 128.980469 206.804688 128.632812 209.835938 127.292969 211.328125 C 126.628906 212.0625 125.738281 212.46875 124.789062 212.46875 C 121.59375 212.46875 92.175781 204.265625 81.414062 175.347656 C 79.261719 177.910156 76.011719 180.570312 72.566406 179.007812 C 69.148438 177.453125 65.464844 167.757812 64.757812 165.828125 C 62.574219 159.847656 56.378906 139.976562 62.769531 122.222656 C 60.367188 122.273438 57.808594 121.527344 56.328125 118.933594 C 53.363281 113.75 56.851562 86.25 78.746094 66.113281 C 77.941406 61.867188 76.191406 48.035156 84.617188 36.652344 C 93.28125 24.941406 105.132812 24.746094 108.582031 24.964844 C 110.6875 23.445312 116.890625 20.066406 129.457031 20.886719 C 127.265625 18.472656 124.734375 15.867188 123.238281 14.871094 C 122.550781 14.410156 122.191406 13.59375 122.316406 12.777344 C 122.441406 11.957031 123.027344 11.285156 123.824219 11.054688 C 125.425781 10.589844 162.660156 0.0507812 187.71875 18.683594 C 212.78125 0.0507812 250.015625 10.589844 251.617188 11.054688 C 252.410156 11.285156 253 11.957031 253.125 12.777344 C 253.25 13.59375 252.890625 14.410156 252.199219 14.871094 C 250.703125 15.867188 248.171875 18.472656 245.984375 20.886719 C 258.554688 20.0625 264.75 23.445312 266.859375 24.964844 C 270.3125 24.746094 282.160156 24.941406 290.824219 36.652344 C 299.246094 48.039062 297.5 61.867188 296.691406 66.113281 C 318.589844 86.25 322.078125 113.75 319.113281 118.933594 C 317.632812 121.523438 315.078125 122.277344 312.667969 122.222656 C 319.058594 139.976562 312.863281 159.847656 310.679688 165.828125 C 309.976562 167.757812 306.289062 177.453125 302.871094 179.007812 C 299.429688 180.570312 296.175781 177.910156 294.027344 175.347656 C 283.261719 204.265625 253.84375 212.46875 250.652344 212.46875 C 249.699219 212.46875 248.808594 212.0625 248.144531 211.328125 C 246.804688 209.835938 246.457031 206.804688 246.457031 204.078125 C 239.835938 208.167969 225.152344 216.574219 212.09375 219.40625 C 195.847656 222.9375 188.921875 227.175781 188.851562 227.21875 C 188.503906 227.433594 188.113281 227.542969 187.71875 227.542969 Z M 126.628906 197.921875 C 127.046875 197.921875 127.460938 198.042969 127.820312 198.28125 C 128.019531 198.417969 147.925781 211.703125 164.25 215.25 C 177.746094 218.179688 185.082031 221.578125 187.71875 222.976562 C 190.359375 221.582031 197.691406 218.179688 211.1875 215.25 C 227.515625 211.703125 247.421875 198.417969 247.621094 198.28125 C 248.308594 197.820312 249.203125 197.800781 249.910156 198.226562 C 250.621094 198.652344 251.015625 199.453125 250.929688 200.273438 C 250.59375 203.417969 250.710938 206.878906 251.15625 208.140625 C 253.179688 207.753906 260.390625 205.773438 268.726562 200.242188 C 276.527344 195.070312 286.773438 185.628906 291.296875 170.042969 C 291.535156 169.21875 292.246094 168.617188 293.101562 168.519531 C 293.964844 168.421875 294.785156 168.851562 295.203125 169.601562 C 296.71875 172.308594 299.65625 175.695312 301.066406 175.152344 C 304.082031 173.035156 317.9375 142.6875 307.242188 120.265625 C 306.867188 119.472656 307.011719 118.53125 307.617188 117.890625 C 308.21875 117.253906 309.152344 117.046875 309.96875 117.378906 C 310.003906 117.394531 314.183594 118.976562 315.414062 116.824219 C 316.023438 115.671875 316.226562 108.675781 313.054688 99.003906 C 310.386719 90.855469 304.726562 78.945312 292.9375 68.460938 C 292.34375 67.929688 292.09375 67.117188 292.289062 66.347656 C 292.324219 66.195312 296.046875 50.871094 287.394531 39.183594 C 278.921875 27.730469 267 29.203125 266.496094 29.273438 C 265.835938 29.359375 265.164062 29.140625 264.695312 28.671875 C 264.65625 28.636719 258.59375 23.15625 241.113281 25.6875 C 240.234375 25.8125 239.378906 25.386719 238.949219 24.621094 C 238.515625 23.851562 238.605469 22.894531 239.171875 22.21875 C 239.695312 21.585938 243.242188 17.363281 246.476562 14.207031 C 236.164062 12.039062 207.902344 7.957031 189.050781 23.035156 C 188.273438 23.660156 187.167969 23.660156 186.390625 23.035156 C 167.539062 7.957031 139.277344 12.035156 128.964844 14.203125 C 132.195312 17.359375 135.742188 21.585938 136.269531 22.214844 C 136.835938 22.890625 136.925781 23.847656 136.492188 24.617188 C 136.0625 25.386719 135.199219 25.808594 134.328125 25.683594 C 116.851562 23.152344 110.785156 28.632812 110.726562 28.6875 C 110.25 29.160156 109.605469 29.363281 108.941406 29.269531 C 108.441406 29.203125 96.515625 27.730469 88.046875 39.179688 C 79.394531 50.871094 83.117188 66.191406 83.152344 66.347656 C 83.347656 67.113281 83.097656 67.929688 82.503906 68.457031 C 70.714844 78.941406 65.058594 90.851562 62.386719 99 C 59.21875 108.671875 59.417969 115.667969 60.03125 116.824219 C 61.261719 118.976562 65.441406 117.390625 65.480469 117.375 C 66.296875 117.050781 67.230469 117.257812 67.828125 117.894531 C 68.425781 118.535156 68.574219 119.472656 68.199219 120.265625 C 57.503906 142.683594 71.359375 173.03125 74.375 175.148438 C 75.785156 175.695312 78.722656 172.304688 80.238281 169.597656 C 80.65625 168.851562 81.480469 168.421875 82.339844 168.519531 C 83.191406 168.617188 83.90625 169.21875 84.144531 170.042969 C 88.667969 185.625 98.914062 195.066406 106.714844 200.242188 C 115.039062 205.765625 122.242188 207.75 124.289062 208.136719 C 124.730469 206.875 124.847656 203.414062 124.511719 200.273438 C 124.425781 199.449219 124.820312 198.652344 125.53125 198.226562 C 125.867188 198.019531 126.25 197.921875 126.628906 197.921875 Z M 126.628906 197.921875 " fill-opacity="1" fill-rule="nonzero"/>
  <path fill="#690001" d="M 187.722656 204.933594 C 187.699219 204.933594 187.679688 204.933594 187.660156 204.933594 C 184.949219 204.855469 121.011719 202.714844 100.394531 172.382812 C 91.769531 159.695312 89.929688 141.898438 95.070312 120.914062 C 98.003906 108.953125 102.34375 99.257812 104.347656 95.121094 C 100.53125 93.539062 93.710938 90.167969 92.296875 85.820312 C 91.605469 83.679688 92.296875 80.269531 102.695312 71.195312 C 105.546875 68.710938 108.421875 66.410156 110.527344 64.773438 C 108.027344 63.546875 105.832031 61.523438 106.105469 58.496094 C 106.597656 53.105469 118.726562 45.675781 127.4375 42.898438 C 125.960938 39.046875 121.355469 30.636719 109.007812 29.28125 C 107.835938 29.152344 106.992188 28.101562 107.121094 26.933594 C 107.25 25.765625 108.296875 24.917969 109.472656 25.050781 C 128.351562 27.121094 132.171875 43.730469 132.207031 43.898438 C 132.453125 45.03125 131.75 46.148438 130.625 46.417969 C 121.082031 48.707031 110.566406 56.503906 110.351562 58.882812 C 110.21875 60.332031 113.640625 61.597656 115.417969 61.925781 C 116.253906 62.078125 116.921875 62.714844 117.113281 63.542969 C 117.304688 64.371094 116.984375 65.230469 116.300781 65.734375 C 105.625 73.582031 96.554688 82.167969 96.382812 84.585938 C 97.335938 87.171875 103.730469 90.457031 108.019531 91.976562 C 108.605469 92.183594 109.070312 92.636719 109.292969 93.214844 C 109.519531 93.792969 109.480469 94.441406 109.1875 94.988281 C 108.9375 95.449219 84.644531 141.636719 103.917969 169.992188 C 123.3125 198.523438 187.136719 200.660156 187.78125 200.679688 C 188.957031 200.710938 189.882812 201.691406 189.847656 202.867188 C 189.816406 204.019531 188.871094 204.933594 187.722656 204.933594 Z M 187.722656 204.933594 " fill-opacity="1" fill-rule="nonzero"/>
  <path fill="#690001" d="M 95.570312 83.695312 C 95.359375 83.695312 95.148438 83.664062 94.9375 83.597656 C 83 79.898438 79.207031 68 79.050781 67.496094 C 78.707031 66.371094 79.335938 65.179688 80.460938 64.832031 C 81.585938 64.488281 82.773438 65.117188 83.121094 66.234375 C 83.15625 66.347656 86.453125 76.511719 96.199219 79.53125 C 97.324219 79.878906 97.953125 81.074219 97.605469 82.195312 C 97.320312 83.109375 96.476562 83.695312 95.570312 83.695312 Z M 95.570312 83.695312 " fill-opacity="1" fill-rule="nonzero"/>
  <path fill="#690001" d="M 109.714844 70.253906 C 109.699219 70.253906 109.6875 70.253906 109.675781 70.253906 C 105.015625 70.171875 95.890625 67.203125 94.703125 56.535156 C 93.925781 49.566406 98.929688 44.988281 104.234375 43.546875 C 110.488281 41.847656 116.453125 44.238281 118.746094 49.359375 C 119.226562 50.433594 118.746094 51.691406 117.671875 52.171875 C 116.597656 52.652344 115.339844 52.171875 114.859375 51.101562 C 113.203125 47.40625 108.769531 46.722656 105.355469 47.652344 C 102.0625 48.550781 98.40625 51.289062 98.9375 56.0625 C 100 65.640625 109.359375 65.988281 109.757812 65.996094 C 110.929688 66.027344 111.863281 67 111.839844 68.167969 C 111.8125 69.328125 110.871094 70.253906 109.714844 70.253906 Z M 109.714844 70.253906 " fill-opacity="1" fill-rule="nonzero"/>
  <path fill="#690001" d="M 187.71875 101.992188 C 183.359375 101.992188 177.625 99.578125 170.980469 96.78125 C 162.324219 93.132812 151.546875 88.597656 140.945312 88.390625 C 122.796875 88.050781 108.476562 95.769531 108.332031 95.847656 C 107.304688 96.414062 106.007812 96.035156 105.441406 95.003906 C 104.878906 93.976562 105.253906 92.683594 106.28125 92.117188 C 106.90625 91.777344 121.714844 83.769531 141.027344 84.132812 C 152.449219 84.355469 163.640625 89.070312 172.636719 92.859375 C 178.855469 95.476562 184.222656 97.738281 187.722656 97.738281 C 188.898438 97.738281 189.851562 98.691406 189.851562 99.863281 C 189.851562 101.039062 188.894531 101.992188 187.71875 101.992188 Z M 187.71875 101.992188 " fill-opacity="1" fill-rule="nonzero"/>
  <path fill="#690001" d="M 143.070312 142.289062 C 138.378906 142.289062 133.542969 141.507812 128.566406 139.945312 C 108.980469 133.796875 96.585938 121.792969 96.066406 121.289062 C 95.226562 120.464844 95.214844 119.117188 96.039062 118.277344 C 96.863281 117.441406 98.210938 117.425781 99.050781 118.25 C 99.171875 118.367188 111.277344 130.058594 129.84375 135.886719 C 143.4375 140.15625 155.90625 137.984375 166.90625 129.4375 C 168.570312 128.140625 170.179688 126.675781 171.738281 125.261719 C 176.382812 121.039062 181.183594 116.671875 187.71875 116.671875 C 188.894531 116.671875 189.847656 117.625 189.847656 118.800781 C 189.847656 119.976562 188.894531 120.929688 187.71875 120.929688 C 182.832031 120.929688 179.019531 124.394531 174.609375 128.40625 C 172.988281 129.878906 171.316406 131.402344 169.523438 132.796875 C 161.386719 139.117188 152.53125 142.289062 143.070312 142.289062 Z M 143.070312 142.289062 " fill-opacity="1" fill-rule="nonzero"/>
  <path fill="#690001" d="M 116.804688 92.191406 C 116.523438 92.191406 116.238281 92.136719 115.964844 92.019531 C 114.882812 91.554688 114.382812 90.304688 114.847656 89.222656 C 125.121094 65.296875 140.863281 53.472656 159.207031 55.9375 C 178.363281 58.507812 188.980469 72.351562 189.421875 72.9375 C 190.128906 73.878906 189.941406 75.214844 189 75.917969 C 188.058594 76.625 186.726562 76.4375 186.019531 75.5 C 185.902344 75.347656 175.960938 62.480469 158.640625 60.152344 C 142.375 57.976562 128.214844 68.890625 118.761719 90.902344 C 118.417969 91.707031 117.628906 92.191406 116.804688 92.191406 Z M 116.804688 92.191406 " fill-opacity="1" fill-rule="nonzero"/>
  <path fill="#690001" d="M 162.9375 147.296875 C 165.179688 149.941406 167.558594 152.546875 170.429688 154.433594 C 171.558594 155.1875 172.664062 155.78125 173.910156 156.046875 C 177.738281 156.828125 181.710938 154.796875 184.84375 152.722656 C 185.210938 152.460938 185.640625 152.335938 186.0625 152.335938 L 189.375 152.359375 C 189.84375 152.359375 190.28125 152.511719 190.632812 152.773438 C 191.433594 153.371094 192.476562 153.980469 193.394531 154.46875 C 196.558594 156.171875 200.511719 157.222656 203.695312 155.375 C 207.210938 153.464844 209.988281 150.410156 212.5 147.296875 C 212.988281 146.613281 214.09375 147.242188 213.722656 148.019531 C 211.347656 152.6875 208.046875 157.25 203.066406 159.386719 C 200.605469 160.324219 197.746094 160.226562 195.273438 159.523438 C 192.667969 158.785156 190.347656 157.691406 188.121094 156.148438 L 189.375 156.5625 L 186.0625 156.582031 L 187.332031 156.164062 C 182.949219 159.195312 177.0625 161.578125 171.84375 159.296875 C 169.230469 158.132812 167.332031 156.277344 165.699219 154.355469 C 164.089844 152.390625 162.753906 150.3125 161.714844 148.019531 C 161.554688 147.660156 161.714844 147.238281 162.070312 147.078125 C 162.382812 146.933594 162.742188 147.039062 162.9375 147.296875 Z M 162.9375 147.296875 " fill-opacity="1" fill-rule="nonzero"/>
  <path fill="#690001" d="M 187.71875 204.933594 C 186.570312 204.933594 185.625 204.019531 185.589844 202.867188 C 185.558594 201.691406 186.484375 200.710938 187.660156 200.679688 C 188.300781 200.660156 252.128906 198.523438 271.519531 169.992188 C 290.796875 141.636719 266.5 95.449219 266.253906 94.988281 C 265.960938 94.441406 265.921875 93.792969 266.144531 93.214844 C 266.371094 92.636719 266.835938 92.183594 267.417969 91.976562 C 271.710938 90.457031 278.105469 87.171875 279.058594 84.585938 C 278.882812 82.167969 269.816406 73.578125 259.140625 65.734375 C 258.457031 65.230469 258.136719 64.367188 258.328125 63.539062 C 258.519531 62.710938 259.191406 62.074219 260.027344 61.925781 C 261.796875 61.601562 265.222656 60.335938 265.089844 58.882812 C 264.875 56.503906 254.359375 48.707031 244.816406 46.421875 C 243.691406 46.152344 242.988281 45.03125 243.234375 43.898438 C 243.269531 43.734375 247.089844 27.121094 265.96875 25.046875 C 267.144531 24.914062 268.191406 25.761719 268.320312 26.933594 C 268.449219 28.101562 267.605469 29.152344 266.433594 29.277344 C 254.089844 30.636719 249.484375 39.042969 248.003906 42.898438 C 256.710938 45.675781 268.84375 53.101562 269.335938 58.496094 C 269.609375 61.519531 267.414062 63.546875 264.914062 64.769531 C 267.019531 66.410156 269.894531 68.707031 272.746094 71.195312 C 283.144531 80.269531 283.835938 83.679688 283.140625 85.816406 C 281.730469 90.164062 274.910156 93.539062 271.089844 95.121094 C 273.097656 99.257812 277.4375 108.953125 280.371094 120.910156 C 285.511719 141.898438 283.675781 159.695312 275.050781 172.382812 C 254.433594 202.714844 190.492188 204.855469 187.78125 204.933594 C 187.757812 204.933594 187.738281 204.933594 187.71875 204.933594 Z M 187.71875 204.933594 " fill-opacity="1" fill-rule="nonzero"/>
  <path fill="#690001" d="M 279.871094 83.695312 C 278.960938 83.695312 278.121094 83.109375 277.835938 82.195312 C 277.488281 81.074219 278.117188 79.882812 279.242188 79.53125 C 288.996094 76.511719 292.289062 66.339844 292.320312 66.238281 C 292.667969 65.117188 293.863281 64.488281 294.984375 64.839844 C 296.105469 65.1875 296.734375 66.375 296.390625 67.496094 C 296.234375 68 292.441406 79.898438 280.5 83.597656 C 280.292969 83.664062 280.078125 83.695312 279.871094 83.695312 Z M 279.871094 83.695312 " fill-opacity="1" fill-rule="nonzero"/>
  <path fill="#690001" d="M 265.726562 70.253906 C 264.566406 70.253906 263.617188 69.324219 263.597656 68.160156 C 263.578125 66.988281 264.507812 66.019531 265.683594 65.996094 C 266.105469 65.984375 275.441406 65.628906 276.503906 56.0625 C 277.035156 51.289062 273.378906 48.546875 270.082031 47.652344 C 266.664062 46.722656 262.234375 47.40625 260.578125 51.097656 C 260.097656 52.171875 258.839844 52.652344 257.765625 52.171875 C 256.691406 51.691406 256.210938 50.433594 256.691406 49.359375 C 258.984375 44.238281 264.953125 41.84375 271.203125 43.546875 C 276.503906 44.988281 281.511719 49.5625 280.734375 56.53125 C 279.550781 67.203125 270.421875 70.171875 265.761719 70.25 C 265.75 70.253906 265.738281 70.253906 265.726562 70.253906 Z M 265.726562 70.253906 " fill-opacity="1" fill-rule="nonzero"/>
  <path fill="#690001" d="M 187.71875 101.992188 C 186.542969 101.992188 185.589844 101.039062 185.589844 99.863281 C 185.589844 98.691406 186.542969 97.738281 187.71875 97.738281 C 191.21875 97.738281 196.585938 95.476562 202.804688 92.855469 C 211.796875 89.070312 222.992188 84.355469 234.414062 84.132812 C 253.722656 83.75 268.539062 91.777344 269.160156 92.117188 C 270.191406 92.683594 270.566406 93.976562 270 95.007812 C 269.429688 96.039062 268.136719 96.414062 267.105469 95.847656 C 266.882812 95.726562 252.574219 88.039062 234.496094 88.390625 C 223.890625 88.597656 213.117188 93.132812 204.460938 96.78125 C 197.816406 99.578125 192.082031 101.992188 187.71875 101.992188 Z M 187.71875 101.992188 " fill-opacity="1" fill-rule="nonzero"/>
  <path fill="#690001" d="M 232.371094 142.289062 C 222.910156 142.289062 214.054688 139.117188 205.917969 132.796875 C 204.121094 131.402344 202.449219 129.878906 200.832031 128.40625 C 196.417969 124.394531 192.605469 120.925781 187.71875 120.925781 C 186.542969 120.925781 185.589844 119.972656 185.589844 118.796875 C 185.589844 117.625 186.542969 116.671875 187.71875 116.671875 C 194.253906 116.671875 199.058594 121.035156 203.699219 125.261719 C 205.257812 126.675781 206.867188 128.140625 208.53125 129.4375 C 219.535156 137.984375 232.003906 140.15625 245.597656 135.886719 C 264.164062 130.058594 276.269531 118.367188 276.390625 118.25 C 277.230469 117.425781 278.578125 117.441406 279.402344 118.28125 C 280.222656 119.121094 280.210938 120.464844 279.371094 121.289062 C 278.855469 121.796875 266.457031 133.800781 246.875 139.945312 C 241.902344 141.507812 237.058594 142.289062 232.371094 142.289062 Z M 232.371094 142.289062 " fill-opacity="1" fill-rule="nonzero"/>
  <path fill="#690001" d="M 258.636719 92.191406 C 257.8125 92.191406 257.023438 91.707031 256.675781 90.902344 C 247.226562 68.890625 233.066406 57.96875 216.800781 60.152344 C 199.464844 62.480469 189.519531 75.367188 189.421875 75.5 C 188.710938 76.4375 187.375 76.621094 186.4375 75.914062 C 185.5 75.207031 185.3125 73.878906 186.015625 72.9375 C 186.460938 72.351562 197.078125 58.507812 216.234375 55.9375 C 234.570312 53.476562 250.320312 65.296875 260.59375 89.222656 C 261.058594 90.304688 260.558594 91.554688 259.476562 92.019531 C 259.199219 92.136719 258.917969 92.191406 258.636719 92.191406 Z M 258.636719 92.191406 " fill-opacity="1" fill-rule="nonzero"/>
  <path fill="#690001" d="M 187.71875 148.316406 C 187.351562 148.316406 186.984375 148.21875 186.652344 148.03125 C 181.90625 145.289062 173.882812 140.121094 173.457031 136.3125 C 173.351562 135.347656 173.664062 134.394531 174.339844 133.628906 C 176.742188 130.90625 184.476562 130.503906 187.691406 130.457031 C 187.710938 130.457031 187.730469 130.457031 187.753906 130.457031 C 190.964844 130.503906 198.699219 130.90625 201.101562 133.628906 C 201.777344 134.394531 202.089844 135.347656 201.984375 136.3125 C 201.558594 140.121094 193.535156 145.289062 188.789062 148.03125 C 188.457031 148.21875 188.085938 148.316406 187.71875 148.316406 Z M 177.875 136.203125 C 178.835938 137.675781 183.050781 140.910156 187.71875 143.714844 C 192.351562 140.933594 196.535156 137.722656 197.550781 136.195312 C 196.140625 135.453125 191.804688 134.777344 187.71875 134.710938 C 183.621094 134.78125 179.265625 135.457031 177.875 136.203125 Z M 177.875 136.203125 " fill-opacity="1" fill-rule="nonzero"/>
  <path fill="#690001" d="M 187.71875 156.589844 C 186.542969 156.589844 185.589844 155.636719 185.589844 154.460938 L 185.589844 146.1875 C 185.589844 145.011719 186.542969 144.058594 187.71875 144.058594 C 188.898438 144.058594 189.851562 145.011719 189.851562 146.1875 L 189.851562 154.460938 C 189.851562 155.636719 188.894531 156.589844 187.71875 156.589844 Z M 187.71875 156.589844 " fill-opacity="1" fill-rule="nonzero"/>
  <path fill="#690001" d="M 129.652344 42.273438 C 132.054688 41.621094 134.511719 41.199219 136.976562 40.863281 C 139.597656 40.628906 141.957031 39.832031 144.625 40.867188 C 144.761719 40.921875 144.800781 41.109375 144.703125 41.214844 C 143.683594 42.339844 142.539062 42.894531 141.359375 43.3125 C 139.011719 44.167969 136.640625 44.945312 134.230469 45.589844 C 133.03125 45.917969 131.824219 46.207031 130.597656 46.425781 C 129.4375 46.632812 128.332031 45.859375 128.125 44.703125 C 127.933594 43.613281 128.609375 42.570312 129.652344 42.273438 Z M 129.652344 42.273438 " fill-opacity="1" fill-rule="nonzero"/>
  <path fill="#690001" d="M 244.84375 46.425781 C 241.164062 45.734375 237.601562 44.578125 234.082031 43.3125 C 232.902344 42.894531 231.757812 42.339844 230.738281 41.214844 C 230.636719 41.109375 230.679688 40.921875 230.816406 40.867188 C 233.480469 39.832031 235.84375 40.628906 238.464844 40.863281 C 240.929688 41.199219 243.386719 41.617188 245.789062 42.273438 C 248.363281 43.050781 247.488281 46.835938 244.84375 46.425781 Z M 244.84375 46.425781 " fill-opacity="1" fill-rule="nonzero"/>
</svg>
