<svg xmlns="http://www.w3.org/2000/svg" xmlns:xlink="http://www.w3.org/1999/xlink" width="500" zoomAndPan="magnify" viewBox="0 0 375 374.999991" height="500" preserveAspectRatio="xMidYMid meet" version="1.0"><defs><clipPath id="70cb4deeb2"><path d="M 20.390625 190 L 73 190 L 73 235 L 20.390625 235 Z M 20.390625 190 " clip-rule="nonzero"/></clipPath><clipPath id="1e271ed45e"><path d="M 80 0 L 354.890625 0 L 354.890625 258 L 80 258 Z M 80 0 " clip-rule="nonzero"/></clipPath></defs><rect x="-37.5" width="450" fill="#ffffff" y="-37.499999" height="449.999989" fill-opacity="1"/><rect x="-37.5" width="450" fill="#ffffff" y="-37.499999" height="449.999989" fill-opacity="1"/><path fill="#feb846" d="M 297.890625 340.949219 C 297.609375 340.863281 297.328125 340.796875 297.050781 340.71875 L 296.875 338.9375 C 296.992188 338.96875 297.109375 338.992188 297.222656 339.023438 C 296.441406 329.621094 291.089844 266.871094 285.378906 235.691406 C 278.460938 240.1875 257.761719 249.96875 260.03125 234.46875 C 229.144531 261.054688 205.9375 260.890625 175.21875 234.46875 C 177.273438 252.40625 151.523438 237.4375 144.648438 232.089844 C 141.390625 235.15625 124.121094 251.835938 116.511719 267.910156 C 123.734375 270.023438 130.214844 275.371094 132.378906 282.722656 C 129.695312 275.511719 122.671875 270.609375 115.261719 269.285156 C 79.816406 270.496094 80.148438 306.515625 90.523438 329.0625 C 90.652344 329.050781 90.777344 329.046875 90.902344 329.039062 L 90.671875 330.726562 C 90.550781 330.734375 90.433594 330.742188 90.308594 330.75 C 70.847656 346.6875 79.09375 361.214844 104.644531 361.378906 C 115.84375 362.1875 134.65625 360.070312 137.648438 354.808594 L 139.273438 355.230469 C 146.507812 374.933594 193 372.992188 201.550781 358.867188 C 207.90625 357.632812 230.441406 359.570312 240.355469 347.886719 C 243.324219 352.765625 246.066406 367.332031 271.921875 369.824219 C 279.765625 370.679688 290.773438 369.171875 295.628906 366.378906 C 309.078125 359.792969 310.777344 345.558594 297.890625 340.949219 Z M 297.890625 340.949219 " fill-opacity="1" fill-rule="nonzero"/><path fill="#ad3a38" d="M 60.886719 223.648438 C 57.808594 219.9375 61.585938 217.015625 64.175781 217.367188 C 66.171875 218.25 67.726562 220.128906 69.148438 221.480469 C 73.800781 207.164062 59.25 192.738281 41.75 196.691406 C 36.339844 197.3125 30.757812 197.949219 24.125 194.476562 C 24.085938 214.070312 40.070312 241.191406 63.714844 227.683594 C 62.796875 226.269531 61.796875 224.996094 60.886719 223.648438 Z M 60.886719 223.648438 " fill-opacity="1" fill-rule="nonzero"/><path fill="#feb846" d="M 70.484375 277.671875 C 70.980469 258.078125 83.367188 233.5 63.921875 219.058594 C 54.96875 220.132812 74.671875 228.691406 67.257812 249.363281 C 58.382812 269.125 61.496094 320.929688 87.109375 324.902344 C 85.640625 320.695312 83.820312 314.375 83.074219 307.226562 C 81.117188 305.691406 70.027344 296.160156 70.484375 277.671875 Z M 70.484375 277.671875 " fill-opacity="1" fill-rule="nonzero"/><path fill="#ffffff" d="M 209.863281 289.359375 C 209.863281 289.359375 223.683594 272.253906 236.027344 289.359375 L 240.007812 345.691406 L 240.199219 347.507812 C 234.761719 357.476562 212.347656 359.128906 204.742188 358.375 L 202.453125 355.78125 C 205.710938 334.117188 207.320312 318.238281 209.863281 289.359375 Z M 209.863281 289.359375 " fill-opacity="1" fill-rule="nonzero"/><path fill="#591124" d="M 43.179688 226.371094 C 52.757812 228.933594 60.179688 225.875 61.886719 225.070312 C 60.574219 223.449219 59.039062 220.777344 60.039062 219.289062 C 62.101562 216.816406 64.386719 216.929688 65.847656 218.425781 C 66.988281 210.164062 59.472656 207.792969 59.472656 207.792969 C 53.265625 238.761719 26.382812 201.902344 24.246094 195.972656 C 24.753906 206.109375 31.378906 221.804688 43.179688 226.371094 Z M 43.179688 226.371094 " fill-opacity="0.25" fill-rule="nonzero"/><path fill="#591124" d="M 84.605469 316.246094 C 63.398438 313.5625 64.414062 261.847656 66.511719 256.0625 L 65.835938 254.554688 C 58.160156 273.359375 63.570312 321.734375 87.042969 324.890625 C 87.0625 324.882812 87.082031 324.878906 87.101562 324.871094 C 86.292969 322.558594 85.382812 319.609375 84.605469 316.246094 Z M 84.605469 316.246094 " fill-opacity="0.25" fill-rule="nonzero"/><path fill="#591124" d="M 84.308594 339.160156 C 83.726562 339.683594 83.566406 338.992188 83.296875 338.683594 C 76.359375 345.296875 79.402344 356.523438 89.164062 358.816406 C 89.121094 356.636719 89.210938 354.511719 89.441406 352.359375 C 83.925781 350.34375 83.601562 341.628906 84.308594 339.160156 Z M 84.308594 339.160156 " fill-opacity="0.25" fill-rule="nonzero"/><path fill="#591124" d="M 90.519531 352.785156 C 90.441406 354.972656 90.699219 357.207031 90.816406 359.351562 C 98.636719 361.503906 104.238281 361.425781 111.042969 361.464844 C 110.382812 359.328125 109.980469 357.210938 109.777344 355.007812 C 102.375 355.097656 94.945312 354.347656 90.519531 352.785156 Z M 90.519531 352.785156 " fill-opacity="0.25" fill-rule="nonzero"/><path fill="#591124" d="M 141.75 299.214844 C 141.75 299.214844 131.023438 285.804688 125.394531 287.75 C 119.765625 289.699219 129.78125 303.894531 132.867188 315.058594 C 138.425781 339.152344 139.867188 356.175781 110.871094 354.984375 C 111.226562 357.195312 112.011719 359.378906 112.761719 361.429688 C 129.242188 360.191406 136.003906 360.289062 139.714844 349.714844 C 142.339844 337.855469 141.742188 324.804688 136.222656 313.816406 C 141.746094 323.640625 143.144531 335.347656 141.882812 346.4375 C 143.734375 344.078125 146.316406 341.703125 149.902344 340 C 150.339844 335.09375 147.40625 292.628906 152.402344 274.058594 C 152.441406 273.546875 152.460938 273.257812 152.460938 273.257812 C 144.449219 280.722656 141.75 299.214844 141.75 299.214844 Z M 141.75 299.214844 " fill-opacity="0.25" fill-rule="nonzero"/><path fill="#591124" d="M 298.699219 359.71875 C 298.550781 361.582031 298.214844 363.421875 297.714844 365.222656 C 301.726562 362.503906 307.183594 357.9375 305.851562 353.007812 C 304.523438 355.082031 302.289062 357.703125 298.699219 359.71875 Z M 298.699219 359.71875 " fill-opacity="0.25" fill-rule="nonzero"/><path fill="#591124" d="M 250.828125 332.367188 C 247.09375 327.011719 238.191406 277.816406 238.191406 277.816406 L 236.546875 277.910156 C 236.546875 277.910156 236.546875 277.914062 236.546875 277.917969 C 242.425781 331.734375 226.570312 367.328125 276.765625 370.027344 C 277.40625 367.613281 277.605469 365.089844 277.703125 362.589844 C 252.027344 359.023438 251.640625 348.742188 271.03125 339.164062 C 266.53125 339.710938 261.445312 340.800781 257.027344 341.9375 C 262.140625 340.253906 267.980469 339.234375 273.15625 338.101562 C 273.15625 338.101562 254.5625 337.71875 250.828125 332.367188 Z M 250.828125 332.367188 " fill-opacity="0.25" fill-rule="nonzero"/><path fill="#591124" d="M 278.65625 362.691406 C 278.769531 365.128906 278.777344 367.597656 278.40625 370.019531 C 286.058594 369.886719 291.628906 368.351562 295.628906 366.382812 C 296.378906 364.453125 297.183594 362.394531 297.570312 360.308594 C 292.207031 363.003906 284.882812 363.292969 278.65625 362.691406 Z M 278.65625 362.691406 " fill-opacity="0.25" fill-rule="nonzero"/><path fill="#591124" d="M 156.007812 360.792969 C 155.976562 363.253906 156.160156 365.757812 156.554688 368.175781 C 162.246094 369.867188 171.859375 370.207031 178.371094 369.402344 C 179.035156 366.992188 179.542969 364.503906 179.898438 362.023438 C 171.679688 363.234375 162.0625 362.179688 156.007812 360.792969 Z M 156.007812 360.792969 " fill-opacity="0.25" fill-rule="nonzero"/><path fill="#591124" d="M 143.417969 349.402344 C 143.417969 349.402344 142.53125 349.421875 141.804688 349.53125 C 140.753906 351.082031 139.324219 354.609375 139.261719 355.203125 C 139.765625 356.515625 143.105469 363.957031 154.871094 367.6875 C 154.730469 365.300781 154.78125 362.929688 155.011719 360.554688 C 147.003906 359.570312 142.890625 349.335938 143.417969 349.402344 Z M 143.417969 349.402344 " fill-opacity="0.25" fill-rule="nonzero"/><path fill="#591124" d="M 214.699219 343.777344 C 209.390625 341.53125 207.550781 335.933594 206.914062 332.085938 C 204.246094 347.484375 203.988281 347.234375 203.277344 358.335938 C 207.9375 358.503906 230.601562 358.757812 239.480469 348.628906 C 239.261719 346.671875 238.238281 337.257812 237.246094 324.585938 C 234.808594 331.59375 222.492188 347.070312 214.699219 343.777344 Z M 214.699219 343.777344 " fill-opacity="0.25" fill-rule="nonzero"/><path fill="#591124" d="M 205.714844 285.914062 C 204.742188 291.96875 201.925781 324.417969 195.757812 330.042969 C 189.585938 335.664062 175.097656 338.3125 175.097656 338.3125 C 180.460938 339.128906 185.785156 340.695312 190.8125 342.695312 C 186.820312 341.300781 182.667969 340.164062 178.496094 339.449219 C 186.578125 342.90625 205.625 357.519531 180.835938 361.871094 C 180.71875 364.328125 180.464844 366.765625 180.046875 369.191406 C 195.65625 367.03125 200.84375 359.945312 201.546875 358.867188 C 202.234375 341.5625 209.09375 321.863281 210.367188 277.929688 L 210.367188 277.042969 C 210.371094 277.042969 206.691406 279.855469 205.714844 285.914062 Z M 205.714844 285.914062 " fill-opacity="0.25" fill-rule="nonzero"/><path fill="#591124" d="M 142.636719 235.003906 C 144.308594 237.15625 176.449219 257.230469 178.871094 245.136719 C 206.933594 264.746094 226.199219 265.171875 254.753906 246.003906 C 259.742188 254.703125 280.363281 242.578125 285.769531 239.285156 C 286.007812 237.972656 285.523438 236.914062 285.378906 235.691406 C 278.460938 240.191406 257.761719 249.96875 260.03125 234.46875 C 229.144531 261.054688 205.9375 260.894531 175.21875 234.46875 C 177.273438 252.40625 151.523438 237.4375 144.648438 232.089844 C 144.148438 232.5625 143.3125 233.359375 142.238281 234.421875 C 142.566406 234.34375 142.71875 234.515625 142.636719 235.003906 Z M 142.636719 235.003906 " fill-opacity="0.25" fill-rule="nonzero"/><path fill="#ffffff" d="M 35.875 200.632812 C 52.925781 199.113281 60.40625 199.546875 69.707031 213.675781 C 69.695312 201.234375 52.5625 193.664062 41.75 196.691406 C 36.472656 197.292969 31.03125 197.90625 24.613281 194.714844 C 26.132812 197.316406 26.226562 199.675781 35.875 200.632812 Z M 35.875 200.632812 " fill-opacity="0.4" fill-rule="nonzero"/><path fill="#ffffff" d="M 94.871094 282.316406 C 103.890625 271.132812 124.246094 273.039062 124.570312 273.066406 C 117.417969 266.734375 93.082031 267.960938 85.777344 289.253906 C 83.203125 299.378906 84.683594 309.929688 86.679688 317.699219 L 87.832031 316.953125 C 87.832031 316.953125 85.777344 293.589844 94.871094 282.316406 Z M 94.871094 282.316406 " fill-opacity="0.4" fill-rule="nonzero"/><path fill="#ffffff" d="M 142.636719 235.003906 C 142.273438 234.742188 142.066406 234.589844 142.066406 234.589844 C 136.054688 240.535156 122.890625 254.433594 116.511719 267.910156 C 117.863281 268.308594 119.140625 268.816406 120.386719 269.410156 C 122.855469 265.90625 142.011719 238.699219 142.636719 235.003906 Z M 142.636719 235.003906 " fill-opacity="0.4" fill-rule="nonzero"/><path fill="#591124" d="M 142.238281 234.421875 C 142.179688 234.476562 142.121094 234.535156 142.066406 234.589844 C 142.070312 234.589844 142.273438 234.742188 142.636719 235.003906 C 142.71875 234.515625 142.566406 234.34375 142.238281 234.421875 Z M 142.238281 234.421875 " fill-opacity="0.25" fill-rule="nonzero"/><path fill="#ffffff" d="M 142.238281 234.421875 C 142.179688 234.476562 142.121094 234.535156 142.066406 234.589844 C 142.070312 234.589844 142.273438 234.742188 142.636719 235.003906 C 142.71875 234.515625 142.566406 234.34375 142.238281 234.421875 Z M 142.238281 234.421875 " fill-opacity="0.4" fill-rule="nonzero"/><path fill="#ffffff" d="M 84.53125 338.097656 C 84.53125 338.097656 84.421875 338.5 84.304688 339.160156 C 95.238281 330.671875 102.734375 331.589844 125.367188 333.652344 C 114.164062 329.632812 102.019531 329.703125 90.316406 330.746094 C 89.488281 331.390625 85.9375 334.285156 83.121094 338.28125 C 83.160156 338.410156 83.214844 338.546875 83.292969 338.683594 C 83.683594 338.460938 84.089844 338.257812 84.53125 338.097656 Z M 84.53125 338.097656 " fill-opacity="0.4" fill-rule="nonzero"/><path fill="#591124" d="M 83.292969 338.683594 C 83.566406 338.992188 83.722656 339.683594 84.304688 339.160156 C 84.421875 338.5 84.53125 338.097656 84.53125 338.097656 C 84.089844 338.257812 83.683594 338.460938 83.292969 338.683594 Z M 83.292969 338.683594 " fill-opacity="0.25" fill-rule="nonzero"/><path fill="#ffffff" d="M 83.292969 338.683594 C 83.566406 338.992188 83.722656 339.683594 84.304688 339.160156 C 84.421875 338.5 84.53125 338.097656 84.53125 338.097656 C 84.089844 338.257812 83.683594 338.460938 83.292969 338.683594 Z M 83.292969 338.683594 " fill-opacity="0.4" fill-rule="nonzero"/><path fill="#ffffff" d="M 155.429688 295.214844 C 155.164062 283.71875 153.152344 276.253906 153.125 276.152344 C 150.511719 295.0625 151.292969 332.664062 151.558594 339.410156 C 153.039062 338.976562 154.527344 338.65625 156.015625 338.394531 C 156.015625 338.394531 155.695312 306.789062 155.429688 295.214844 Z M 155.429688 295.214844 " fill-opacity="0.4" fill-rule="nonzero"/><path fill="#ffffff" d="M 156.894531 342.695312 C 164.8125 340.761719 176.875 339.226562 176.878906 339.226562 C 165.574219 337.878906 149.722656 337.941406 142.746094 348.128906 C 142.792969 348.550781 142.980469 348.988281 143.417969 349.398438 C 143.417969 349.402344 148.980469 344.628906 156.894531 342.695312 Z M 156.894531 342.695312 " fill-opacity="0.4" fill-rule="nonzero"/><path fill="#ffffff" d="M 305.851562 353.007812 C 306.292969 352.316406 306.636719 351.6875 306.894531 351.160156 C 303.871094 336.125 281.664062 338.347656 271.03125 339.164062 C 271.046875 339.164062 301.476562 340.414062 305.851562 353.007812 Z M 305.851562 353.007812 " fill-opacity="0.4" fill-rule="nonzero"/><path fill="#591124" d="M 306.300781 354.941406 C 306.695312 353.664062 306.925781 352.417969 306.894531 351.160156 C 306.636719 351.6875 306.296875 352.316406 305.851562 353.007812 C 306.066406 353.625 306.21875 354.269531 306.300781 354.941406 Z M 306.300781 354.941406 " fill-opacity="0.25" fill-rule="nonzero"/><path fill="#ffffff" d="M 306.300781 354.941406 C 306.695312 353.664062 306.925781 352.417969 306.894531 351.160156 C 306.636719 351.6875 306.296875 352.316406 305.851562 353.007812 C 306.066406 353.625 306.21875 354.269531 306.300781 354.941406 Z M 306.300781 354.941406 " fill-opacity="0.4" fill-rule="nonzero"/><path fill="#ffffff" d="M 285.496094 266.175781 C 286.734375 282.914062 291.535156 333.476562 291.957031 337.960938 C 293.738281 338.207031 295.46875 338.503906 297.222656 338.992188 C 296.457031 329.8125 291.460938 271.25 285.992188 239.15625 C 285.921875 239.195312 285.851562 239.238281 285.769531 239.285156 C 285.394531 242.179688 284.421875 251.714844 285.496094 266.175781 Z M 285.496094 266.175781 " fill-opacity="0.4" fill-rule="nonzero"/><path fill="#591124" d="M 285.992188 239.15625 C 285.953125 238.9375 285.914062 238.714844 285.878906 238.5 C 285.855469 238.648438 285.816406 238.910156 285.769531 239.285156 C 285.851562 239.238281 285.921875 239.195312 285.992188 239.15625 Z M 285.992188 239.15625 " fill-opacity="0.25" fill-rule="nonzero"/><path fill="#ffffff" d="M 285.992188 239.15625 C 285.953125 238.9375 285.914062 238.714844 285.878906 238.5 C 285.855469 238.648438 285.816406 238.910156 285.769531 239.285156 C 285.851562 239.238281 285.921875 239.195312 285.992188 239.15625 Z M 285.992188 239.15625 " fill-opacity="0.4" fill-rule="nonzero"/><path fill="#591124" d="M 278.554688 373.011719 C 278.417969 373.011719 278.277344 373.011719 278.140625 373.011719 C 261.429688 372.890625 243.460938 365.535156 239.078125 353.183594 C 228.460938 361.589844 209.007812 361.578125 203.613281 361.390625 C 197.726562 370.4375 179.273438 373.773438 164.148438 372.261719 C 150.691406 370.917969 141.230469 366.160156 137.503906 359.023438 C 130.273438 364.105469 115.980469 364.8125 104.535156 364.414062 C 84.316406 364.140625 78.773438 356.445312 77.273438 351.882812 C 74.949219 344.816406 78.765625 336.273438 87.261719 329.289062 C 80.789062 315.023438 78.585938 294.324219 86.75 280.84375 C 92.144531 271.9375 101.515625 266.921875 113.902344 266.296875 C 122.605469 248.171875 142.289062 230.121094 143.140625 229.34375 C 144.039062 228.527344 145.429688 228.589844 146.25 229.488281 C 147.066406 230.382812 147.003906 231.773438 146.105469 232.59375 C 145.898438 232.78125 125.328125 251.652344 117.332031 269.347656 C 116.984375 270.117188 116.226562 270.621094 115.382812 270.644531 C 103.726562 270.921875 95.359375 275.121094 90.515625 283.121094 C 82.855469 295.769531 85.449219 315.753906 91.972656 328.960938 C 92.4375 329.90625 92.167969 331.050781 91.328125 331.6875 C 83.515625 337.597656 79.640625 344.988281 81.453125 350.511719 C 83.414062 356.46875 91.648438 359.84375 104.640625 360.019531 C 121.460938 360.601562 133.113281 358.367188 136.65625 353.878906 C 137.175781 353.226562 138.019531 352.921875 138.835938 353.089844 C 139.652344 353.261719 140.300781 353.878906 140.511719 354.6875 C 142.328125 361.628906 151.328125 366.5625 164.585938 367.886719 C 180.628906 369.492188 197.027344 365.039062 200.390625 358.167969 C 200.78125 357.371094 201.628906 356.894531 202.507812 356.941406 C 202.777344 356.960938 229.4375 358.511719 238.667969 347.503906 C 239.234375 346.828125 240.152344 346.550781 241 346.8125 C 241.84375 347.074219 242.453125 347.8125 242.542969 348.691406 C 243.746094 360.46875 261.933594 368.5 278.167969 368.613281 C 284.125 368.652344 303.574219 367.535156 305.539062 351.363281 C 305.574219 345.460938 297.449219 342.238281 297.367188 342.207031 C 296.578125 341.902344 296.035156 341.171875 295.964844 340.332031 C 295.90625 339.609375 290.03125 267.652344 283.804688 234.675781 C 283.578125 233.484375 284.363281 232.332031 285.558594 232.109375 C 286.753906 231.886719 287.902344 232.667969 288.128906 233.859375 C 293.929688 264.601562 299.414062 328.75 300.242188 338.679688 C 303.195312 340.121094 310.089844 344.273438 309.9375 351.554688 C 309.9375 351.625 309.929688 351.695312 309.921875 351.765625 C 308.398438 364.894531 296.390625 373.011719 278.554688 373.011719 Z M 278.554688 373.011719 " fill-opacity="1" fill-rule="nonzero"/><path fill="#591124" d="M 240.351562 351.113281 C 239.25 351.113281 238.296875 350.285156 238.167969 349.164062 C 238.125 348.785156 233.824219 310.972656 233.824219 278.558594 C 233.824219 277.34375 234.808594 276.359375 236.023438 276.359375 C 237.238281 276.359375 238.226562 277.34375 238.226562 278.558594 C 238.226562 310.722656 242.496094 348.289062 242.539062 348.664062 C 242.679688 349.871094 241.8125 350.960938 240.605469 351.097656 C 240.519531 351.109375 240.4375 351.113281 240.351562 351.113281 Z M 240.351562 351.113281 " fill-opacity="1" fill-rule="nonzero"/><path fill="#591124" d="M 202.371094 361.332031 C 202.3125 361.332031 202.253906 361.332031 202.191406 361.328125 C 200.980469 361.230469 200.078125 360.167969 200.175781 358.960938 L 201.140625 346.953125 C 201.238281 345.746094 202.289062 344.847656 203.511719 344.9375 C 204.71875 345.035156 205.625 346.097656 205.527344 347.308594 L 204.5625 359.3125 C 204.46875 360.460938 203.507812 361.332031 202.371094 361.332031 Z M 202.371094 361.332031 " fill-opacity="1" fill-rule="nonzero"/><path fill="#591124" d="M 126.734375 334.167969 C 120.894531 332.042969 114.710938 331.21875 108.542969 331.027344 C 102.394531 330.839844 96.25 331.324219 90.164062 332.125 C 88.953125 332.292969 87.832031 331.4375 87.675781 330.226562 C 87.496094 328.929688 88.527344 327.75 89.835938 327.738281 C 93 327.703125 96.160156 327.742188 99.316406 327.902344 C 108.691406 328.457031 118.273438 329.9375 126.734375 334.167969 Z M 126.734375 334.167969 " fill-opacity="1" fill-rule="nonzero"/><path fill="#591124" d="M 138.3125 349.753906 C 140.683594 340.976562 141.132812 331.546875 139.1875 322.628906 C 139.1875 322.628906 138.644531 320.375 138.644531 320.375 C 138.425781 319.691406 137.796875 317.722656 137.578125 317.050781 C 137.273438 316.316406 136.53125 314.5625 136.222656 313.816406 C 136.878906 315.003906 137.929688 316.722656 138.445312 317.957031 C 140.46875 322.21875 141.832031 326.882812 142.542969 331.550781 C 143.40625 337.078125 143.53125 342.75 142.933594 348.324219 C 142.84375 349.140625 142.742188 349.914062 142.585938 350.800781 C 142.378906 352 141.234375 352.800781 140.035156 352.589844 C 138.726562 352.371094 137.902344 351.007812 138.3125 349.753906 Z M 138.3125 349.753906 " fill-opacity="1" fill-rule="nonzero"/><path fill="#591124" d="M 203.335938 349.328125 C 203.183594 349.328125 203.03125 349.3125 202.878906 349.28125 C 201.691406 349.03125 200.929688 347.863281 201.179688 346.675781 C 201.257812 346.308594 208.921875 309.757812 208.710938 278.574219 C 208.703125 277.359375 209.679688 276.371094 210.898438 276.363281 C 210.902344 276.363281 210.90625 276.363281 210.910156 276.363281 C 212.121094 276.363281 213.105469 277.335938 213.113281 278.546875 C 213.328125 310.214844 205.5625 347.21875 205.484375 347.585938 C 205.269531 348.621094 204.355469 349.328125 203.335938 349.328125 Z M 203.335938 349.328125 " fill-opacity="1" fill-rule="nonzero"/><path fill="#591124" d="M 275.671875 367.90625 C 276.722656 365.542969 277 362.84375 277.253906 360.25 C 277.429688 358.246094 277.460938 355.984375 277.4375 353.949219 C 277.4375 353.949219 277.375 351.835938 277.375 351.835938 L 277.890625 353.894531 C 278.703125 357.378906 279.351562 360.941406 279.457031 364.539062 C 279.480469 366.128906 279.496094 367.6875 279.078125 369.257812 C 278.128906 371.480469 274.835938 370.175781 275.671875 367.90625 Z M 275.671875 367.90625 " fill-opacity="1" fill-rule="nonzero"/><path fill="#591124" d="M 294.441406 365.589844 C 297.011719 360.820312 298.832031 354.789062 296.464844 349.5625 C 299.890625 353.800781 299.914062 359.792969 299.027344 364.945312 C 298.878906 365.742188 298.730469 366.492188 298.472656 367.359375 C 297.375 370.503906 292.863281 368.527344 294.441406 365.589844 Z M 294.441406 365.589844 " fill-opacity="1" fill-rule="nonzero"/><path fill="#591124" d="M 176.910156 368.753906 C 178.957031 363.398438 180.316406 357.605469 180.4375 351.835938 C 181.46875 356.214844 181.714844 360.765625 181.542969 365.265625 C 181.472656 366.796875 181.375 368.269531 181.164062 369.875 C 181.003906 371.089844 179.886719 371.945312 178.671875 371.78125 C 177.253906 371.617188 176.355469 370.066406 176.910156 368.753906 Z M 176.910156 368.753906 " fill-opacity="1" fill-rule="nonzero"/><path fill="#591124" d="M 153.632812 368.199219 C 153.492188 363.042969 154.117188 357.808594 156.222656 353.078125 C 156.953125 351.542969 157.875 350.113281 159.007812 348.914062 C 156.53125 353.152344 156.507812 358.210938 157.089844 362.929688 C 157.285156 364.433594 157.582031 366.074219 157.976562 367.5 C 158.316406 368.675781 157.636719 369.902344 156.460938 370.242188 C 155.105469 370.652344 153.675781 369.613281 153.632812 368.199219 Z M 153.632812 368.199219 " fill-opacity="1" fill-rule="nonzero"/><path fill="#591124" d="M 109.871094 362.285156 C 108.386719 356.003906 108.191406 348.746094 111.917969 343.226562 C 111.359375 344.707031 111.019531 346.21875 110.914062 347.742188 C 110.6875 352.210938 111.953125 356.722656 113.960938 360.660156 C 115.417969 363.636719 110.863281 365.449219 109.871094 362.285156 Z M 109.871094 362.285156 " fill-opacity="1" fill-rule="nonzero"/><path fill="#591124" d="M 87.808594 359.324219 C 88.171875 352.824219 89.238281 346.167969 92.597656 340.53125 C 91.113281 345.015625 91.117188 349.789062 91.542969 354.429688 C 91.695312 355.957031 91.90625 357.539062 92.191406 358.957031 C 92.679688 362.1875 87.867188 362.601562 87.808594 359.324219 Z M 87.808594 359.324219 " fill-opacity="1" fill-rule="nonzero"/><path fill="#591124" d="M 115.707031 266.28125 C 123.488281 268.613281 130.492188 274.660156 132.375 282.722656 C 130.953125 279.667969 128.898438 277.015625 126.203125 275.023438 C 122.933594 272.621094 118.964844 271.046875 114.949219 270.609375 C 111.707031 270.257812 112.527344 265.515625 115.707031 266.28125 Z M 115.707031 266.28125 " fill-opacity="1" fill-rule="nonzero"/><path fill="#591124" d="M 88.335938 328.070312 C 88.28125 328.070312 88.226562 328.070312 88.175781 328.066406 C 80.3125 327.492188 73.550781 322.824219 68.625 314.574219 C 57.738281 296.34375 57.414062 264.109375 64.378906 248.390625 C 67.910156 235.710938 64.242188 230.648438 61.007812 226.179688 C 60.570312 225.574219 60.144531 224.988281 59.757812 224.410156 C 58.28125 222.21875 57.972656 220.28125 58.839844 218.652344 C 60.164062 216.152344 63.511719 216.011719 64.171875 216.007812 C 64.628906 215.980469 65.089844 216.152344 65.46875 216.421875 C 80.628906 227.355469 78.183594 245.144531 75.816406 262.351562 C 73.476562 279.355469 71.269531 295.421875 85.097656 304.953125 C 86.097656 305.640625 86.351562 307.007812 85.660156 308.011719 C 84.96875 309.007812 83.597656 309.257812 82.601562 308.570312 C 66.539062 297.503906 69.039062 279.328125 71.457031 261.753906 C 73.710938 245.386719 75.839844 229.914062 63.546875 220.476562 C 63.242188 220.53125 62.953125 220.617188 62.785156 220.707031 C 62.828125 220.894531 62.960938 221.292969 63.410156 221.957031 C 63.769531 222.492188 64.164062 223.035156 64.574219 223.601562 C 68.023438 228.367188 72.75 234.894531 68.570312 249.734375 C 68.542969 249.839844 68.507812 249.941406 68.460938 250.039062 C 61.996094 264.429688 62.3125 295.417969 72.402344 312.320312 C 76.621094 319.386719 82.035156 323.207031 88.496094 323.679688 C 89.707031 323.769531 90.617188 324.820312 90.527344 326.03125 C 90.445312 327.1875 89.480469 328.070312 88.335938 328.070312 Z M 88.335938 328.070312 " fill-opacity="1" fill-rule="nonzero"/><g clip-path="url(#70cb4deeb2)"><path fill="#591124" d="M 51.183594 234.347656 C 46.347656 234.347656 42.394531 232.808594 39.4375 231.035156 C 27.261719 223.71875 20.394531 205.542969 21.011719 192.898438 C 21.050781 192.125 21.488281 191.433594 22.171875 191.066406 C 22.851562 190.703125 23.675781 190.722656 24.335938 191.117188 C 30.6875 194.902344 35.652344 194.335938 41.402344 193.671875 C 47.175781 193.007812 53.71875 192.257812 61.648438 196.714844 C 77.691406 205.730469 71.679688 223.738281 71.617188 223.917969 C 71.222656 225.066406 69.96875 225.675781 68.820312 225.277344 C 67.671875 224.882812 67.0625 223.632812 67.457031 222.484375 C 67.675781 221.84375 72.28125 207.734375 59.488281 200.546875 C 52.804688 196.789062 47.511719 197.398438 41.90625 198.039062 C 36.8125 198.625 31.574219 199.226562 25.441406 196.609375 C 26.144531 207.675781 32.289062 221.605469 41.707031 227.265625 C 48.3125 231.234375 55.726562 230.824219 63.753906 226.050781 C 64.796875 225.429688 66.148438 225.773438 66.769531 226.816406 C 67.390625 227.859375 67.050781 229.210938 66.003906 229.828125 C 60.433594 233.144531 55.464844 234.347656 51.183594 234.347656 Z M 51.183594 234.347656 " fill-opacity="1" fill-rule="nonzero"/></g><path fill="#591124" d="M 138.386719 357.4375 C 138.226562 357.4375 138.066406 357.417969 137.90625 357.382812 C 136.722656 357.117188 135.976562 355.949219 136.238281 354.765625 C 136.332031 354.324219 138.644531 344.328125 148.507812 339.171875 C 148.269531 331.28125 147.332031 294.003906 150.28125 274.546875 C 150.464844 273.347656 151.585938 272.515625 152.785156 272.703125 C 153.988281 272.886719 154.816406 274.007812 154.632812 275.207031 C 151.453125 296.175781 152.9375 340.007812 152.953125 340.449219 C 152.984375 341.34375 152.46875 342.167969 151.652344 342.535156 C 142.71875 346.519531 140.554688 355.628906 140.53125 355.71875 C 140.300781 356.742188 139.390625 357.4375 138.386719 357.4375 Z M 138.386719 357.4375 " fill-opacity="1" fill-rule="nonzero"/><path fill="#591124" d="M 149.953125 338.480469 C 159.296875 335.847656 169.300781 336.359375 178.671875 338.515625 C 182.808594 339.542969 186.917969 341 190.8125 342.695312 C 184.382812 340.660156 177.625 339.402344 170.871094 339.339844 C 164.308594 339.328125 157.65625 340.140625 151.554688 342.578125 C 148.714844 343.761719 147.046875 339.546875 149.953125 338.480469 Z M 149.953125 338.480469 " fill-opacity="1" fill-rule="nonzero"/><path fill="#591124" d="M 297.34375 342.195312 C 291.101562 339.761719 284.269531 339.257812 277.585938 339.28125 C 270.765625 339.351562 263.6875 340.4375 257.027344 341.9375 C 261.871094 340.324219 267.207031 338.753906 272.21875 337.890625 C 280.074219 336.464844 288.246094 335.945312 296.160156 337.410156 C 297.148438 337.613281 297.964844 337.777344 298.984375 338.117188 C 301.859375 339.203125 300.1875 343.402344 297.34375 342.195312 Z M 297.34375 342.195312 " fill-opacity="1" fill-rule="nonzero"/><path fill="#feb846" d="M 272.230469 61.3125 C 262.476562 51.292969 244.242188 46.207031 218.039062 46.207031 C 218.015625 46.207031 217.996094 46.207031 217.976562 46.207031 L 217.273438 46.207031 C 217.253906 46.207031 217.230469 46.207031 217.207031 46.207031 C 191.003906 46.207031 172.769531 51.289062 163.019531 61.3125 C 149.097656 75.617188 113.59375 128.367188 122.320312 171.75 C 129.578125 207.816406 170.949219 215.566406 182.71875 217.046875 C 182.933594 217.269531 183.132812 217.5 183.351562 217.71875 C 193.910156 227.222656 217.40625 227.78125 217.644531 227.785156 C 217.84375 227.78125 241.339844 227.214844 251.894531 217.722656 C 252.109375 217.503906 252.308594 217.277344 252.519531 217.054688 C 257.4375 216.449219 267.53125 214.773438 278.074219 210.410156 C 297.667969 202.304688 309.394531 189.296875 312.925781 171.746094 C 321.652344 128.363281 286.148438 75.617188 272.230469 61.3125 Z M 242.210938 95.496094 C 242.949219 94.214844 243.820312 93.238281 244.777344 92.273438 C 245.71875 91.3125 246.78125 90.484375 247.871094 89.71875 C 250.089844 88.222656 252.519531 87.089844 255.035156 86.292969 L 256.933594 85.738281 L 258.863281 85.335938 L 259.832031 85.148438 C 260.152344 85.097656 260.484375 85.070312 260.808594 85.027344 L 262.757812 84.804688 C 264.058594 84.710938 265.367188 84.71875 266.664062 84.675781 C 267.96875 84.726562 269.265625 84.800781 270.554688 84.890625 C 269.257812 84.988281 267.96875 85.0625 266.683594 85.125 C 265.402344 85.296875 264.121094 85.414062 262.855469 85.628906 L 260.96875 85.988281 C 260.65625 86.046875 260.339844 86.097656 260.03125 86.171875 L 259.105469 86.421875 L 257.261719 86.914062 L 255.460938 87.542969 C 253.101562 88.449219 250.8125 89.546875 248.789062 91.027344 C 247.78125 91.761719 246.792969 92.539062 245.9375 93.433594 C 245.523438 93.851562 245.117188 94.304688 244.746094 94.765625 L 246.582031 94.484375 C 247.847656 94.359375 249.109375 94.167969 250.386719 94.097656 C 251.660156 94.03125 252.933594 93.925781 254.210938 93.933594 C 254.847656 93.933594 255.484375 93.902344 256.125 93.925781 L 258.039062 94 C 260.585938 94.136719 263.125 94.4375 265.621094 94.964844 C 266.863281 95.246094 268.097656 95.558594 269.304688 95.957031 C 270.515625 96.34375 271.710938 96.796875 272.824219 97.398438 C 270.441406 96.558594 267.96875 96.066406 265.484375 95.761719 C 263 95.433594 260.496094 95.316406 258 95.292969 C 255.503906 95.292969 253.003906 95.421875 250.519531 95.664062 C 249.277344 95.785156 248.039062 95.960938 246.800781 96.101562 L 243.101562 96.707031 L 243.050781 96.714844 C 242.601562 96.785156 242.183594 96.484375 242.109375 96.039062 C 242.082031 95.84375 242.117188 95.652344 242.210938 95.496094 Z M 165.933594 95.953125 C 167.144531 95.554688 168.378906 95.242188 169.621094 94.960938 C 172.117188 94.433594 174.65625 94.132812 177.203125 93.996094 L 179.117188 93.921875 C 179.753906 93.898438 180.394531 93.929688 181.03125 93.929688 C 182.308594 93.925781 183.578125 94.027344 184.855469 94.09375 C 186.128906 94.164062 187.390625 94.355469 188.660156 94.480469 L 190.496094 94.761719 C 190.121094 94.296875 189.71875 93.847656 189.304688 93.429688 C 188.445312 92.535156 187.460938 91.757812 186.453125 91.023438 C 184.429688 89.542969 182.140625 88.445312 179.777344 87.539062 L 177.980469 86.910156 L 176.136719 86.417969 L 175.210938 86.167969 C 174.902344 86.09375 174.585938 86.042969 174.273438 85.980469 L 172.382812 85.625 C 171.121094 85.410156 169.839844 85.292969 168.558594 85.121094 C 167.273438 85.058594 165.984375 84.984375 164.6875 84.886719 C 165.976562 84.796875 167.277344 84.722656 168.578125 84.671875 C 169.875 84.714844 171.183594 84.707031 172.484375 84.800781 L 174.433594 85.023438 C 174.757812 85.066406 175.089844 85.09375 175.410156 85.144531 L 176.375 85.332031 L 178.308594 85.734375 L 180.207031 86.289062 C 182.722656 87.085938 185.152344 88.21875 187.367188 89.714844 C 188.464844 90.480469 189.519531 91.308594 190.464844 92.269531 C 191.421875 93.238281 192.292969 94.210938 193.03125 95.492188 C 193.257812 95.882812 193.121094 96.382812 192.730469 96.609375 C 192.5625 96.707031 192.371094 96.738281 192.191406 96.707031 L 192.140625 96.699219 L 188.4375 96.09375 C 187.199219 95.949219 185.960938 95.777344 184.71875 95.65625 C 182.234375 95.414062 179.738281 95.285156 177.238281 95.285156 C 174.742188 95.308594 172.238281 95.425781 169.753906 95.75 C 167.269531 96.058594 164.796875 96.550781 162.410156 97.390625 C 163.53125 96.792969 164.726562 96.335938 165.933594 95.953125 Z M 165.933594 95.953125 " fill-opacity="1" fill-rule="nonzero"/><path fill="#ff3569" d="M 248.535156 185.90625 C 236.617188 174.546875 224.6875 169.3125 213.09375 170.382812 C 198.132812 171.75 188.347656 183.347656 186.613281 185.550781 C 187.339844 188.164062 188.257812 190.746094 189.414062 193.207031 C 190.839844 190.300781 194.382812 185.640625 200.441406 182.320312 C 200.714844 182.171875 201.050781 182.183594 201.308594 182.359375 C 201.566406 182.53125 201.710938 182.832031 201.679688 183.144531 C 201.664062 183.300781 200.085938 198.753906 202.328125 207.484375 C 206.453125 209.6875 211.488281 210.988281 217.621094 210.988281 C 223.757812 210.988281 228.792969 209.6875 232.917969 207.484375 C 235.164062 198.75 233.582031 183.300781 233.566406 183.144531 C 233.535156 182.835938 233.675781 182.53125 233.9375 182.359375 C 234.195312 182.183594 234.53125 182.171875 234.804688 182.320312 C 240.859375 185.640625 244.40625 190.300781 245.832031 193.207031 C 246.9375 190.855469 247.824219 188.394531 248.535156 185.90625 Z M 248.535156 185.90625 " fill-opacity="1" fill-rule="nonzero"/><path fill="#ffffff" d="M 244.863281 195.144531 C 244.375 193.742188 241.757812 188.578125 235.386719 184.601562 C 235.714844 188.589844 236.347656 198.929688 234.894531 206.3125 C 239.253906 203.480469 242.484375 199.566406 244.863281 195.144531 Z M 244.863281 195.144531 " fill-opacity="1" fill-rule="nonzero"/><path fill="#ffffff" d="M 244.089844 142.140625 C 241.105469 138.175781 237.59375 135.484375 234.363281 133.992188 C 235.65625 138.378906 236.773438 147.6875 237.214844 151.707031 C 241.125 147.65625 243.4375 143.417969 244.089844 142.140625 Z M 244.089844 142.140625 " fill-opacity="1" fill-rule="nonzero"/><path fill="#591124" d="M 230.976562 132.824219 C 224.300781 131.382812 219.378906 125.683594 217.621094 123.378906 C 215.863281 125.683594 210.945312 131.382812 204.269531 132.824219 C 203.835938 132.917969 203.390625 133.042969 202.9375 133.1875 C 201.703125 135.632812 200.226562 146.597656 199.515625 153.613281 C 199.480469 153.929688 199.269531 154.203125 198.972656 154.3125 C 198.875 154.347656 198.777344 154.367188 198.679688 154.367188 C 198.46875 154.367188 198.261719 154.285156 198.105469 154.136719 C 193.871094 150.152344 191.207031 145.765625 190.070312 143.675781 C 186.402344 149.21875 183.796875 156.90625 184.039062 166.917969 C 184.160156 171.808594 184.679688 177.683594 186.089844 183.527344 C 189.207031 179.8125 198.699219 170.019531 212.921875 168.710938 C 224.824219 167.628906 236.957031 172.800781 249.027344 184.074219 C 250.535156 178.050781 251.085938 171.960938 251.210938 166.917969 C 251.453125 156.90625 248.847656 149.21875 245.179688 143.675781 C 244.042969 145.765625 241.375 150.152344 237.144531 154.136719 C 236.988281 154.289062 236.78125 154.367188 236.570312 154.367188 C 236.472656 154.367188 236.371094 154.347656 236.277344 154.3125 C 235.976562 154.203125 235.769531 153.929688 235.734375 153.613281 C 235.023438 146.597656 233.542969 135.632812 232.308594 133.1875 C 231.855469 133.042969 231.40625 132.917969 230.976562 132.824219 Z M 230.976562 132.824219 " fill-opacity="1" fill-rule="nonzero"/><path fill="#ffffff" d="M 262 132.523438 C 252.125 111.390625 235.734375 104.277344 229.503906 102.261719 C 229.519531 102.425781 229.519531 102.59375 229.492188 102.765625 C 229.003906 106.03125 221.03125 110.183594 218.460938 111.441406 L 218.460938 121.683594 C 219.355469 122.9375 224.433594 129.695312 231.332031 131.183594 C 239.953125 133.046875 253.433594 144.40625 252.886719 166.960938 C 252.679688 175.3125 251.339844 186.433594 246.546875 195.617188 C 246.535156 195.664062 246.535156 195.726562 246.515625 195.761719 C 246.484375 195.820312 246.4375 195.863281 246.394531 195.914062 C 241.371094 205.347656 232.636719 212.664062 217.621094 212.664062 C 202.609375 212.664062 193.878906 205.347656 188.851562 195.914062 C 188.808594 195.867188 188.761719 195.824219 188.730469 195.761719 C 188.710938 195.726562 188.710938 195.667969 188.699219 195.617188 C 187.085938 192.523438 185.863281 189.214844 184.945312 185.863281 C 184.867188 185.742188 184.835938 185.601562 184.832031 185.457031 C 183.105469 178.984375 182.492188 172.386719 182.359375 166.960938 C 181.8125 144.410156 195.292969 133.046875 203.914062 131.1875 C 210.8125 129.695312 215.890625 122.941406 216.785156 121.683594 L 216.785156 111.441406 C 214.214844 110.179688 206.242188 106.03125 205.753906 102.765625 C 205.726562 102.59375 205.726562 102.425781 205.742188 102.261719 C 199.511719 104.277344 183.121094 111.390625 173.246094 132.519531 C 160.125 160.589844 165.53125 195.578125 186.394531 217.609375 C 196.015625 226.570312 217.425781 227.097656 217.640625 227.101562 C 217.824219 227.097656 239.234375 226.566406 248.851562 217.613281 C 269.714844 195.582031 275.125 160.59375 262 132.523438 Z M 262 132.523438 " fill-opacity="1" fill-rule="nonzero"/><path fill="#591124" d="M 227.832031 102.515625 C 227.851562 102.410156 227.84375 102.285156 227.691406 102.105469 C 226.507812 100.714844 220.894531 100.121094 217.621094 100.070312 C 214.351562 100.121094 208.738281 100.714844 207.550781 102.105469 C 207.402344 102.285156 207.394531 102.410156 207.410156 102.515625 C 207.691406 104.394531 213.429688 107.941406 217.621094 109.984375 C 221.816406 107.941406 227.550781 104.394531 227.832031 102.515625 Z M 227.832031 102.515625 " fill-opacity="1" fill-rule="nonzero"/><path fill="#ffffff" d="M 190.382812 195.144531 C 192.761719 199.566406 195.992188 203.480469 200.347656 206.3125 C 198.898438 198.929688 199.53125 188.589844 199.859375 184.601562 C 193.488281 188.578125 190.871094 193.742188 190.382812 195.144531 Z M 190.382812 195.144531 " fill-opacity="1" fill-rule="nonzero"/><path fill="#ffffff" d="M 200.878906 133.992188 C 197.652344 135.484375 194.140625 138.175781 191.15625 142.140625 C 191.8125 143.421875 194.128906 147.664062 198.027344 151.707031 C 198.472656 147.6875 199.589844 138.378906 200.878906 133.992188 Z M 200.878906 133.992188 " fill-opacity="1" fill-rule="nonzero"/><path fill="#ff3569" d="M 134.957031 62.441406 C 132.878906 61.097656 128.441406 60.316406 124.578125 61.273438 C 122.027344 61.902344 118.652344 63.535156 117.089844 67.726562 C 114.300781 75.195312 119.144531 81.667969 120.878906 83.65625 C 123.746094 80.433594 127.675781 77.292969 133.019531 74.464844 C 132.644531 72.765625 132.054688 68.175781 134.84375 62.644531 C 134.878906 62.578125 134.921875 62.511719 134.957031 62.441406 Z M 134.957031 62.441406 " fill-opacity="1" fill-rule="nonzero"/><path fill="#ff3569" d="M 314.367188 83.65625 C 316.097656 81.660156 320.9375 75.175781 318.15625 67.726562 C 316.59375 63.535156 313.21875 61.902344 310.667969 61.273438 C 306.800781 60.316406 302.367188 61.09375 300.289062 62.441406 C 300.324219 62.511719 300.367188 62.578125 300.398438 62.644531 C 303.195312 68.175781 302.601562 72.761719 302.226562 74.464844 C 307.570312 77.289062 311.5 80.429688 314.367188 83.65625 Z M 314.367188 83.65625 " fill-opacity="1" fill-rule="nonzero"/><path fill="#feb846" d="M 114.117188 107.335938 C 113.179688 102.195312 113.035156 93.394531 119.777344 84.957031 C 117.976562 82.96875 112.292969 75.78125 115.515625 67.144531 C 117.335938 62.265625 121.226562 60.375 124.175781 59.644531 C 128.585938 58.554688 133.304688 59.445312 135.777344 60.984375 C 139.222656 55.351562 145.359375 50.5625 154.070312 46.664062 C 144.992188 33.019531 119.324219 36.359375 118.5625 36.464844 C 118.292969 36.523438 110.367188 38.316406 103.511719 45.527344 C 94.332031 55.195312 91.234375 70.222656 94.554688 88.992188 C 94.777344 89.734375 98.945312 102.859375 114.117188 107.335938 Z M 114.117188 107.335938 " fill-opacity="1" fill-rule="nonzero"/><path fill="#feb846" d="M 281.175781 46.664062 C 289.886719 50.558594 296.019531 55.351562 299.464844 60.980469 C 301.941406 59.445312 306.65625 58.550781 311.070312 59.644531 C 314.015625 60.371094 317.90625 62.265625 319.726562 67.140625 C 322.953125 75.78125 317.269531 82.96875 315.464844 84.953125 C 322.207031 93.394531 322.0625 102.191406 321.128906 107.332031 C 336.371094 102.839844 340.488281 89.671875 340.691406 88.984375 C 344.011719 70.21875 340.914062 55.191406 331.730469 45.527344 C 324.882812 38.320312 316.964844 36.523438 316.683594 36.460938 C 315.953125 36.363281 290.253906 33.019531 281.175781 46.664062 Z M 281.175781 46.664062 " fill-opacity="1" fill-rule="nonzero"/><path fill="#ad3a38" d="M 341.707031 91.074219 C 340.023438 95.144531 334.480469 105.511719 320.730469 109.183594 C 320.425781 110.332031 319.078125 115.160156 317.804688 115.160156 C 317.34375 115.160156 316.96875 114.785156 316.96875 114.320312 C 316.96875 114.066406 317.082031 113.835938 317.261719 113.683594 C 317.90625 112.75 321.261719 105.371094 319.375 96.667969 C 317.507812 88.078125 311.28125 81.003906 300.859375 75.640625 C 300.492188 75.453125 300.316406 75.023438 300.449219 74.632812 C 300.464844 74.582031 302.054688 69.589844 298.878906 63.34375 C 295.003906 55.730469 285.628906 49.34375 271.761719 44.871094 C 271.320312 44.726562 271.078125 44.257812 271.21875 43.816406 C 271.363281 43.375 271.835938 43.136719 272.277344 43.273438 C 274.890625 44.117188 277.335938 45.023438 279.621094 45.984375 C 287.84375 33.171875 308.546875 33.988281 315.015625 34.589844 C 302.554688 18.394531 285.996094 18.457031 285.835938 18.464844 C 285.832031 18.464844 285.828125 18.464844 285.824219 18.464844 C 285.445312 18.464844 285.113281 18.214844 285.011719 17.851562 C 284.847656 17.257812 280.746094 3.53125 258.222656 3.53125 C 257.851562 3.53125 257.480469 3.535156 257.097656 3.542969 C 233.199219 4.015625 218.371094 18.773438 218.222656 18.921875 C 218.066406 19.082031 217.851562 19.171875 217.625 19.171875 C 217.402344 19.171875 217.1875 19.082031 217.027344 18.921875 C 216.882812 18.773438 202.019531 4.015625 178.152344 3.542969 C 154.550781 3.054688 150.277344 17.703125 150.238281 17.851562 C 150.136719 18.21875 149.796875 18.4375 149.414062 18.46875 C 149.410156 18.46875 149.402344 18.46875 149.390625 18.46875 C 148.664062 18.46875 132.472656 18.683594 120.230469 34.589844 C 126.703125 33.988281 147.40625 33.171875 155.628906 45.984375 C 157.914062 45.023438 160.359375 44.121094 162.972656 43.277344 C 163.417969 43.136719 163.886719 43.378906 164.03125 43.816406 C 164.171875 44.257812 163.929688 44.730469 163.488281 44.871094 C 149.621094 49.34375 140.246094 55.730469 136.371094 63.347656 C 133.195312 69.589844 134.785156 74.585938 134.800781 74.632812 C 134.929688 75.027344 134.753906 75.453125 134.386719 75.644531 C 123.964844 81.007812 117.738281 88.078125 115.871094 96.667969 C 113.984375 105.375 117.339844 112.75 117.984375 113.683594 C 118.164062 113.839844 118.28125 114.066406 118.28125 114.324219 C 118.28125 114.785156 117.90625 115.160156 117.441406 115.160156 C 116.167969 115.160156 114.820312 110.332031 114.519531 109.183594 C 100.769531 105.515625 95.226562 95.148438 93.542969 91.078125 C 91.226562 95.066406 85.085938 107.460938 84.183594 127.824219 C 83.683594 139.117188 83.625 149.789062 86.558594 151.445312 C 87.847656 152.167969 90.117188 151.363281 93.921875 148.832031 C 94.179688 148.65625 94.515625 148.644531 94.789062 148.792969 C 95.0625 148.945312 95.230469 149.234375 95.222656 149.546875 C 95.21875 149.820312 94.703125 177.171875 100.859375 194.128906 C 103.253906 200.730469 106.277344 204.707031 109.84375 205.945312 C 113.484375 207.207031 117.125 205.363281 119.542969 203.867188 C 119.929688 203.628906 120.433594 203.738281 120.6875 204.117188 C 120.917969 204.464844 144.105469 238.992188 169.988281 241.375 C 171.582031 241.183594 172.648438 240.585938 173.246094 239.546875 C 174.8125 236.820312 172.714844 232.007812 172.695312 231.960938 C 172.527344 231.585938 172.65625 231.148438 173 230.921875 C 173.140625 230.828125 173.300781 230.78125 173.460938 230.78125 C 173.6875 230.78125 173.914062 230.871094 174.078125 231.050781 C 174.238281 231.222656 190.40625 248.375 217.625 254.125 C 244.847656 248.375 261.015625 231.222656 261.175781 231.050781 C 261.453125 230.75 261.910156 230.695312 262.253906 230.921875 C 262.597656 231.144531 262.726562 231.585938 262.558594 231.960938 C 262.539062 232.007812 260.441406 236.820312 262.007812 239.546875 C 262.605469 240.585938 263.671875 241.183594 265.265625 241.375 C 291.148438 238.992188 314.335938 204.464844 314.566406 204.117188 C 314.816406 203.738281 315.324219 203.632812 315.710938 203.867188 C 318.128906 205.363281 321.769531 207.210938 325.410156 205.945312 C 328.976562 204.707031 332 200.730469 334.394531 194.128906 C 340.546875 177.171875 340.035156 149.820312 340.027344 149.546875 C 340.019531 149.234375 340.191406 148.945312 340.460938 148.792969 C 340.738281 148.644531 341.070312 148.660156 341.332031 148.832031 C 345.136719 151.363281 347.40625 152.167969 348.691406 151.445312 C 351.628906 149.789062 351.570312 139.117188 351.070312 127.824219 C 350.160156 107.421875 344.023438 95.054688 341.707031 91.074219 Z M 314.570312 172.082031 C 310.972656 189.96875 298.558594 203.765625 278.671875 211.976562 C 264.9375 217.648438 251.933594 218.855469 249.800781 219.019531 C 239.636719 228.238281 218.539062 228.761719 217.640625 228.777344 C 216.707031 228.757812 195.613281 228.238281 185.445312 219.019531 C 183.3125 218.855469 170.308594 217.648438 156.574219 211.976562 C 136.6875 203.765625 124.273438 189.96875 120.675781 172.082031 C 111.816406 128.039062 147.730469 74.621094 161.816406 60.144531 C 171.894531 49.789062 190.535156 44.535156 217.207031 44.535156 C 217.230469 44.535156 217.25 44.535156 217.273438 44.535156 L 217.972656 44.535156 C 217.992188 44.535156 218.015625 44.535156 218.035156 44.535156 C 244.710938 44.535156 263.347656 49.785156 273.429688 60.144531 C 287.515625 74.621094 323.429688 128.035156 314.570312 172.082031 Z M 314.570312 172.082031 " fill-opacity="1" fill-rule="nonzero"/><path fill="#591124" d="M 122.960938 67.070312 C 127.40625 65.148438 131.617188 66.210938 133.28125 66.78125 C 133.613281 65.488281 134.109375 64.101562 134.84375 62.644531 C 134.878906 62.578125 134.921875 62.511719 134.957031 62.441406 C 132.878906 61.097656 128.441406 60.316406 124.578125 61.273438 C 122.027344 61.902344 118.652344 63.535156 117.089844 67.726562 C 115.609375 71.6875 116.285156 75.363281 117.5 78.242188 C 117.609375 75.746094 118.339844 69.070312 122.960938 67.070312 Z M 122.960938 67.070312 " fill-opacity="0.25" fill-rule="nonzero"/><path fill="#591124" d="M 104.472656 60 C 91.621094 72.601562 99.210938 97.003906 104.472656 102.261719 C 104.882812 102.671875 105.289062 103.039062 105.6875 103.390625 C 108.023438 104.972656 110.804688 106.359375 114.117188 107.335938 C 113.390625 103.34375 113.15625 97.136719 116.242188 90.613281 L 116.242188 90.09375 C 116.242188 90.09375 110.347656 80.578125 111.105469 71.113281 C 111.597656 64.972656 116.421875 62.019531 121.105469 60.789062 C 122.160156 60.246094 123.214844 59.882812 124.171875 59.644531 C 128.585938 58.554688 133.304688 59.445312 135.777344 60.980469 C 136.941406 59.078125 138.421875 57.273438 140.195312 55.566406 L 140.203125 55.550781 C 140.207031 55.550781 117.324219 47.398438 104.472656 60 Z M 104.472656 60 " fill-opacity="0.25" fill-rule="nonzero"/><path fill="#591124" d="M 203.914062 131.183594 C 210.8125 129.695312 215.890625 122.941406 216.785156 121.683594 L 216.785156 111.4375 C 215.363281 110.742188 212.289062 109.160156 209.746094 107.332031 L 209.742188 107.332031 C 209.742188 107.332031 210.628906 120.808594 209.742188 121.621094 C 208.855469 122.433594 194.40625 126.648438 185.152344 139.222656 C 175.894531 151.796875 183.640625 180.054688 183.640625 180.054688 C 183.640625 180.054688 183.628906 179.984375 183.617188 179.875 C 182.804688 175.289062 182.457031 170.824219 182.363281 166.960938 C 181.8125 144.40625 195.292969 133.046875 203.914062 131.183594 Z M 203.914062 131.183594 " fill-opacity="0.25" fill-rule="nonzero"/><path fill="#591124" d="M 189.589844 182.230469 C 188.082031 183.746094 187.070312 184.972656 186.613281 185.550781 C 187.339844 188.164062 188.257812 190.746094 189.414062 193.207031 C 190.261719 191.480469 191.863281 189.132812 194.292969 186.8125 L 190.382812 182.054688 Z M 189.589844 182.230469 " fill-opacity="0.25" fill-rule="nonzero"/><path fill="#591124" d="M 312.285156 67.070312 C 316.898438 69.0625 317.636719 75.714844 317.75 78.226562 C 318.957031 75.34375 319.632812 71.675781 318.160156 67.730469 C 316.59375 63.539062 313.222656 61.90625 310.667969 61.273438 C 306.800781 60.316406 302.367188 61.097656 300.289062 62.445312 C 300.324219 62.511719 300.367188 62.578125 300.402344 62.644531 C 301.136719 64.101562 301.632812 65.492188 301.964844 66.78125 C 303.628906 66.210938 307.84375 65.148438 312.285156 67.070312 Z M 312.285156 67.070312 " fill-opacity="0.25" fill-rule="nonzero"/><path fill="#591124" d="M 330.773438 60 C 317.921875 47.398438 295.039062 55.550781 295.039062 55.550781 L 295.050781 55.566406 C 296.824219 57.277344 298.300781 59.078125 299.464844 60.980469 C 301.9375 59.445312 306.652344 58.550781 311.070312 59.644531 C 312.027344 59.882812 313.082031 60.246094 314.136719 60.789062 C 318.820312 62.019531 323.644531 64.972656 324.136719 71.113281 C 324.894531 80.578125 319.003906 90.09375 319.003906 90.09375 L 319.003906 90.613281 C 322.085938 97.140625 321.851562 103.34375 321.128906 107.335938 C 324.425781 106.363281 327.199219 104.984375 329.53125 103.414062 C 329.941406 103.054688 330.351562 102.679688 330.769531 102.261719 C 336.035156 97.003906 343.625 72.605469 330.773438 60 Z M 330.773438 60 " fill-opacity="0.25" fill-rule="nonzero"/><path fill="#591124" d="M 327.226562 200.550781 C 331.691406 196.859375 334.570312 181.324219 335.585938 175.890625 C 336.59375 170.488281 339.972656 154.238281 340.011719 154.039062 C 340.054688 151.296875 340.023438 149.613281 340.023438 149.546875 C 340.015625 149.234375 340.183594 148.941406 340.457031 148.792969 C 340.730469 148.644531 341.066406 148.65625 341.324219 148.828125 C 345.128906 151.363281 347.398438 152.167969 348.6875 151.441406 C 351.621094 149.789062 351.566406 139.113281 351.0625 127.824219 C 350.429688 113.484375 347.207031 103.117188 344.542969 96.839844 C 344.542969 96.835938 344.535156 96.828125 344.535156 96.828125 C 344.535156 96.828125 344.894531 132.734375 341.984375 135.492188 C 339.074219 138.25 335.992188 132.816406 333.554688 135.492188 C 331.117188 138.171875 329.332031 187.085938 324.625 191.546875 C 319.917969 196.007812 316.667969 191.246094 313.90625 194.476562 C 311.148438 197.710938 278.917969 232.023438 274.207031 230.398438 C 269.5 228.777344 268.199219 219.9375 263.410156 221.152344 C 258.621094 222.371094 233.207031 242.542969 217.621094 242.542969 C 202.03125 242.542969 176.621094 222.371094 171.832031 221.152344 C 167.042969 219.9375 165.742188 228.777344 161.035156 230.398438 C 156.324219 232.019531 124.09375 197.710938 121.332031 194.476562 C 118.574219 191.246094 115.324219 196.007812 110.617188 191.546875 C 105.90625 187.085938 104.121094 138.171875 101.6875 135.492188 C 99.25 132.816406 96.164062 138.25 93.257812 135.492188 C 90.347656 132.734375 90.707031 96.839844 90.707031 96.828125 C 88.042969 103.113281 84.8125 113.492188 84.175781 127.824219 C 83.675781 139.113281 83.617188 149.789062 86.554688 151.441406 C 87.839844 152.167969 90.109375 151.359375 93.914062 148.828125 C 94.171875 148.65625 94.507812 148.640625 94.78125 148.792969 C 95.054688 148.941406 95.222656 149.234375 95.214844 149.546875 C 95.214844 149.613281 95.183594 151.292969 95.226562 154.03125 C 95.234375 154.066406 98.640625 170.460938 99.65625 175.890625 C 100.667969 181.324219 103.550781 196.859375 108.015625 200.550781 C 112.480469 204.238281 119.285156 202.902344 119.285156 202.902344 L 118.792969 204.308594 C 119.050781 204.160156 119.300781 204.011719 119.539062 203.867188 C 119.921875 203.628906 120.429688 203.738281 120.679688 204.117188 C 120.710938 204.160156 121.125 204.78125 121.878906 205.824219 C 124.125 207.539062 129.207031 211.589844 134.242188 216.773438 C 140.980469 223.710938 156.039062 235.917969 164.484375 237.460938 C 172.925781 239 173.128906 236.566406 173.128906 236.566406 L 173.695312 235.503906 C 173.40625 233.613281 172.699219 231.988281 172.6875 231.960938 C 172.519531 231.585938 172.652344 231.144531 172.992188 230.917969 C 173.136719 230.828125 173.296875 230.78125 173.453125 230.78125 C 173.679688 230.78125 173.90625 230.871094 174.070312 231.046875 C 174.121094 231.101562 175.734375 232.8125 178.757812 235.316406 C 194.890625 246.265625 217.621094 248.597656 217.621094 248.597656 C 217.621094 248.597656 240.347656 246.265625 256.476562 235.320312 C 259.503906 232.8125 261.121094 231.101562 261.171875 231.046875 C 261.449219 230.746094 261.902344 230.691406 262.246094 230.917969 C 262.589844 231.144531 262.71875 231.582031 262.554688 231.957031 C 262.539062 231.984375 261.835938 233.609375 261.546875 235.5 L 262.113281 236.566406 C 262.113281 236.566406 262.3125 239 270.757812 237.457031 C 279.203125 235.917969 294.261719 223.710938 301 216.773438 C 306.035156 211.589844 311.113281 207.539062 313.359375 205.824219 C 314.113281 204.78125 314.53125 204.160156 314.5625 204.113281 C 314.8125 203.738281 315.316406 203.628906 315.703125 203.863281 C 315.9375 204.011719 316.1875 204.160156 316.445312 204.308594 L 315.957031 202.902344 C 315.957031 202.902344 322.761719 204.238281 327.226562 200.550781 Z M 327.226562 200.550781 " fill-opacity="0.25" fill-rule="nonzero"/><path fill="#591124" d="M 298.160156 179.863281 C 284.804688 207.167969 256.757812 207.558594 256.757812 207.558594 C 256.757812 207.558594 238.40625 220.503906 217.625 220.503906 C 196.839844 220.503906 178.488281 207.558594 178.488281 207.558594 C 178.488281 207.558594 150.445312 207.167969 137.089844 179.863281 C 123.867188 152.84375 128.601562 119.398438 128.699219 118.71875 C 122.359375 135.882812 118.863281 154.550781 122.324219 171.75 C 130.757812 213.675781 185.296875 217.339844 185.851562 217.371094 C 186.042969 217.382812 186.230469 217.460938 186.371094 217.59375 C 195.988281 226.574219 217.425781 227.097656 217.640625 227.101562 C 217.824219 227.097656 239.269531 226.566406 248.875 217.59375 C 249.019531 217.460938 249.207031 217.382812 249.398438 217.371094 C 249.539062 217.363281 263.378906 216.488281 278.074219 210.414062 C 297.667969 202.304688 309.394531 189.296875 312.925781 171.75 C 316.386719 154.550781 312.890625 135.882812 306.546875 118.71875 C 306.648438 119.425781 311.375 152.851562 298.160156 179.863281 Z M 298.160156 179.863281 " fill-opacity="0.25" fill-rule="nonzero"/><path fill="#591124" d="M 218.460938 121.683594 C 219.355469 122.941406 224.433594 129.695312 231.332031 131.1875 C 239.953125 133.050781 253.433594 144.410156 252.886719 166.960938 C 252.789062 170.835938 252.445312 175.304688 251.628906 179.898438 C 251.617188 179.992188 251.609375 180.058594 251.609375 180.058594 C 251.609375 180.058594 259.351562 151.796875 250.097656 139.226562 C 240.84375 126.652344 226.390625 122.433594 225.503906 121.621094 C 224.617188 120.8125 225.503906 107.335938 225.503906 107.335938 C 222.957031 109.164062 219.882812 110.742188 218.460938 111.441406 Z M 218.460938 121.683594 " fill-opacity="0.25" fill-rule="nonzero"/><path fill="#591124" d="M 245.832031 193.207031 C 246.9375 190.855469 247.824219 188.398438 248.535156 185.90625 C 247.222656 184.652344 245.90625 183.488281 244.59375 182.386719 L 240.953125 186.816406 C 243.382812 189.132812 244.984375 191.476562 245.832031 193.207031 Z M 245.832031 193.207031 " fill-opacity="0.25" fill-rule="nonzero"/><path fill="#591124" d="M 201.128906 195.457031 C 201.15625 199.617188 201.449219 204.0625 202.328125 207.484375 C 206.453125 209.683594 211.488281 210.988281 217.621094 210.988281 C 223.757812 210.988281 228.792969 209.683594 232.917969 207.484375 C 233.796875 204.0625 234.089844 199.617188 234.117188 195.460938 C 234.101562 195.472656 226.785156 201.765625 217.621094 201.765625 C 208.453125 201.765625 201.136719 195.464844 201.128906 195.457031 Z M 201.128906 195.457031 " fill-opacity="0.25" fill-rule="nonzero"/><path fill="#591124" d="M 217.207031 44.53125 C 217.230469 44.53125 217.25 44.53125 217.273438 44.53125 L 217.972656 44.53125 C 217.992188 44.53125 218.015625 44.53125 218.035156 44.53125 C 244.710938 44.53125 263.347656 49.785156 273.429688 60.144531 C 277.707031 64.539062 283.996094 72.53125 290.433594 82.753906 L 289.929688 80.394531 C 289.929688 80.394531 275.859375 54.292969 258.972656 44.53125 C 242.085938 34.769531 217.621094 39.960938 217.621094 39.960938 C 217.621094 39.960938 193.15625 34.769531 176.269531 44.53125 C 159.382812 54.292969 145.3125 80.394531 145.3125 80.394531 L 144.808594 82.75 C 151.246094 72.527344 157.539062 64.539062 161.816406 60.144531 C 171.894531 49.785156 190.535156 44.53125 217.207031 44.53125 Z M 217.207031 44.53125 " fill-opacity="0.25" fill-rule="nonzero"/><path fill="#ffffff" d="M 113.949219 42.289062 C 126.488281 36.289062 144.992188 42.84375 150.347656 48.472656 C 151.535156 47.851562 152.769531 47.246094 154.070312 46.664062 C 144.992188 33.019531 119.324219 36.359375 118.5625 36.464844 C 118.292969 36.523438 110.367188 38.316406 103.511719 45.527344 C 97.507812 51.851562 94.125 60.480469 93.417969 70.9375 C 93.875 69.59375 101.292969 48.34375 113.949219 42.289062 Z M 113.949219 42.289062 " fill-opacity="0.4" fill-rule="nonzero"/><path fill="#ffffff" d="M 321.300781 42.289062 C 333.949219 48.339844 341.367188 69.574219 341.828125 70.933594 C 341.121094 60.476562 337.738281 51.847656 331.734375 45.527344 C 324.886719 38.320312 316.96875 36.523438 316.683594 36.460938 C 315.953125 36.363281 290.253906 33.019531 281.175781 46.664062 C 282.476562 47.246094 283.710938 47.851562 284.894531 48.472656 C 290.253906 42.84375 308.761719 36.289062 321.300781 42.289062 Z M 321.300781 42.289062 " fill-opacity="0.4" fill-rule="nonzero"/><path fill="#ffffff" d="M 138.546875 25.039062 C 146.773438 22.226562 150.886719 22.710938 153 21.738281 C 155.109375 20.765625 158.683594 13.25 170.695312 10.488281 C 182.714844 7.730469 198.597656 13.519531 204.929688 17.304688 C 211.261719 21.089844 217.621094 26.144531 217.621094 26.144531 C 217.621094 26.144531 225.660156 21.089844 231.992188 17.304688 C 238.324219 13.519531 252.535156 7.730469 264.546875 10.488281 C 276.5625 13.25 280.136719 20.765625 282.246094 21.738281 C 284.359375 22.710938 288.472656 22.226562 296.699219 25.039062 C 303.820312 27.472656 307.609375 32.894531 308.5 34.3125 C 311.21875 34.300781 313.503906 34.449219 315.015625 34.589844 C 302.550781 18.394531 285.992188 18.457031 285.832031 18.464844 C 285.828125 18.464844 285.824219 18.464844 285.820312 18.464844 C 285.441406 18.464844 285.109375 18.214844 285.007812 17.851562 C 284.84375 17.257812 280.742188 3.53125 258.222656 3.53125 C 257.851562 3.53125 257.476562 3.535156 257.09375 3.542969 C 233.195312 4.015625 218.367188 18.773438 218.21875 18.921875 C 218.0625 19.082031 217.847656 19.171875 217.621094 19.171875 C 217.398438 19.171875 217.183594 19.082031 217.027344 18.921875 C 216.878906 18.773438 202.019531 4.015625 178.148438 3.542969 C 154.550781 3.054688 150.273438 17.703125 150.234375 17.851562 C 150.132812 18.21875 149.792969 18.4375 149.410156 18.46875 C 149.410156 18.46875 149.398438 18.46875 149.386719 18.46875 C 148.660156 18.46875 132.472656 18.683594 120.230469 34.589844 C 121.738281 34.449219 124.027344 34.300781 126.742188 34.3125 C 127.636719 32.894531 131.429688 27.472656 138.546875 25.039062 Z M 138.546875 25.039062 " fill-opacity="0.4" fill-rule="nonzero"/><path fill="#ffffff" d="M 134.957031 106.371094 C 134.957031 106.371094 165.015625 64.675781 174.433594 59.160156 C 183.851562 53.644531 207.230469 52.589844 217.625 52.589844 C 228.015625 52.589844 251.398438 53.644531 260.816406 59.160156 C 270.234375 64.675781 300.289062 106.371094 300.289062 106.371094 L 298.242188 99.835938 C 289.210938 82.085938 278.515625 67.777344 272.230469 61.3125 C 262.476562 51.292969 244.242188 46.207031 218.039062 46.207031 C 218.015625 46.207031 217.996094 46.207031 217.976562 46.207031 L 217.273438 46.207031 C 217.253906 46.207031 217.230469 46.207031 217.207031 46.207031 C 191.003906 46.207031 172.769531 51.289062 163.019531 61.3125 C 156.730469 67.777344 146.035156 82.085938 137.003906 99.835938 Z M 134.957031 106.371094 " fill-opacity="0.4" fill-rule="nonzero"/><path fill="#591124" d="M 117.441406 116.519531 C 116.742188 116.519531 114.890625 116.519531 113.128906 109.253906 C 111.472656 102.433594 110.050781 85.542969 131.511719 73.730469 C 131.175781 71.378906 131.105469 67.035156 133.628906 62.03125 C 137.921875 53.53125 147.652344 46.785156 162.550781 41.980469 C 163.710938 41.609375 164.949219 42.242188 165.320312 43.398438 C 165.695312 44.554688 165.058594 45.792969 163.902344 46.164062 C 130.960938 56.789062 135.867188 73.507812 136.09375 74.214844 C 136.417969 75.234375 135.960938 76.359375 135.007812 76.851562 C 125.347656 81.824219 119.429688 88.285156 117.417969 96.058594 C 115.300781 104.230469 118.257812 111.480469 119.058594 112.832031 C 119.421875 113.226562 119.640625 113.746094 119.640625 114.320312 C 119.640625 115.535156 118.65625 116.519531 117.441406 116.519531 Z M 117.457031 112.121094 C 117.613281 112.125 117.761719 112.140625 117.90625 112.171875 C 117.765625 112.144531 117.617188 112.125 117.457031 112.121094 Z M 117.453125 112.121094 C 117.457031 112.121094 117.457031 112.121094 117.457031 112.121094 C 117.457031 112.121094 117.453125 112.121094 117.453125 112.121094 Z M 117.449219 112.121094 Z M 117.445312 112.121094 Z M 117.445312 112.121094 " fill-opacity="1" fill-rule="nonzero"/><path fill="#591124" d="M 155.3125 49.230469 C 154.558594 49.230469 153.824219 48.839844 153.414062 48.144531 C 145.199219 34.203125 118.988281 37.773438 118.726562 37.8125 C 117.523438 37.988281 116.40625 37.152344 116.234375 35.949219 C 116.0625 34.746094 116.898438 33.632812 118.101562 33.460938 C 119.296875 33.289062 147.511719 29.460938 157.207031 45.914062 C 157.820312 46.960938 157.472656 48.308594 156.425781 48.921875 C 156.074219 49.132812 155.691406 49.230469 155.3125 49.230469 Z M 155.3125 49.230469 " fill-opacity="1" fill-rule="nonzero"/><path fill="#591124" d="M 115.21875 110.707031 C 115.039062 110.707031 114.859375 110.683594 114.679688 110.640625 C 96.324219 106.027344 91.796875 90.425781 91.613281 89.761719 C 91.289062 88.59375 91.972656 87.382812 93.144531 87.058594 C 94.316406 86.734375 95.523438 87.414062 95.851562 88.582031 C 96.015625 89.167969 99.960938 102.410156 115.75 106.375 C 116.929688 106.671875 117.644531 107.867188 117.347656 109.042969 C 117.097656 110.039062 116.203125 110.707031 115.21875 110.707031 Z M 115.21875 110.707031 " fill-opacity="1" fill-rule="nonzero"/><path fill="#591124" d="M 120.875 87.089844 C 120.324219 87.089844 119.773438 86.882812 119.34375 86.46875 C 118.96875 86.105469 110.210938 77.460938 114.238281 66.667969 C 115.820312 62.429688 119.234375 59.464844 123.847656 58.324219 C 129.304688 56.972656 135.074219 58.398438 137.496094 60.558594 C 138.40625 61.367188 138.484375 62.757812 137.675781 63.664062 C 136.867188 64.570312 135.476562 64.648438 134.570312 63.839844 C 133.234375 62.648438 128.910156 61.597656 124.90625 62.589844 C 121.652344 63.394531 119.453125 65.28125 118.363281 68.203125 C 115.328125 76.332031 122.335938 83.242188 122.40625 83.308594 C 123.277344 84.15625 123.300781 85.546875 122.453125 86.417969 C 122.027344 86.863281 121.449219 87.089844 120.875 87.089844 Z M 120.875 87.089844 " fill-opacity="1" fill-rule="nonzero"/><path fill="#591124" d="M 162.417969 97.394531 C 171.105469 92.011719 182.894531 92.066406 192.6875 93.71875 C 192.6875 93.71875 190.339844 96.890625 190.339844 96.890625 C 189.785156 95.984375 189.105469 95.140625 188.34375 94.386719 C 182.183594 88.113281 173.105469 86.191406 164.6875 84.890625 C 173.253906 83.140625 182.820312 84.328125 189.824219 89.90625 C 191.5625 91.304688 193.128906 92.914062 194.242188 94.871094 C 195.121094 96.40625 193.660156 98.390625 191.949219 98.050781 C 189.777344 97.660156 186.769531 97.195312 184.613281 96.941406 C 177.230469 96.128906 169.75 95.828125 162.417969 97.394531 Z M 162.417969 97.394531 " fill-opacity="1" fill-rule="nonzero"/><path fill="#591124" d="M 208.507812 102.902344 C 202.988281 103.925781 197.78125 106.382812 193.015625 109.304688 C 191.308594 110.425781 189.15625 111.96875 187.566406 113.28125 C 186.46875 114.144531 185.242188 115.367188 184.191406 116.292969 C 183.441406 117.019531 181.804688 118.816406 181.058594 119.582031 C 180.449219 120.332031 178.777344 122.386719 178.1875 123.125 C 177.335938 124.28125 175.976562 126.328125 175.152344 127.519531 C 174.871094 128 174.292969 129.027344 174.011719 129.507812 C 174.011719 129.507812 172.484375 132.167969 172.484375 132.167969 C 173.265625 130.539062 174.253906 128.164062 175.109375 126.609375 C 175.671875 125.625 176.820312 123.503906 177.390625 122.582031 C 177.921875 121.789062 179.425781 119.546875 179.984375 118.722656 C 180.699219 117.855469 182.179688 115.886719 182.886719 115.070312 C 183.414062 114.496094 184.46875 113.34375 185 112.773438 C 187.453125 110.179688 190.390625 107.660156 193.316406 105.617188 C 197.707031 102.550781 202.527344 99.984375 207.730469 98.570312 C 210.726562 97.992188 211.535156 102.398438 208.507812 102.902344 Z M 208.507812 102.902344 " fill-opacity="1" fill-rule="nonzero"/><path fill="#591124" d="M 217.621094 214.023438 C 194.746094 214.023438 181.738281 197.320312 181 166.992188 C 180.433594 143.621094 194.578125 131.8125 203.628906 129.855469 C 209.566406 128.574219 214.132812 122.976562 215.425781 121.242188 L 215.425781 110.914062 C 215.425781 109.699219 216.410156 108.714844 217.625 108.714844 C 218.839844 108.714844 219.824219 109.699219 219.824219 110.914062 L 219.824219 121.945312 C 219.824219 122.378906 219.695312 122.800781 219.457031 123.160156 C 219.214844 123.53125 213.34375 132.257812 204.558594 134.152344 C 196.882812 135.8125 184.898438 146.164062 185.402344 166.886719 C 185.875 186.382812 191.851562 209.625 217.625 209.625 C 218.839844 209.625 219.824219 210.609375 219.824219 211.824219 C 219.824219 213.039062 218.839844 214.023438 217.621094 214.023438 Z M 217.621094 214.023438 " fill-opacity="1" fill-rule="nonzero"/><path fill="#591124" d="M 198.679688 155.726562 C 198.128906 155.726562 197.585938 155.519531 197.171875 155.128906 C 191.300781 149.601562 188.328125 143.289062 188.203125 143.023438 C 187.691406 141.921875 188.167969 140.613281 189.269531 140.101562 C 190.371094 139.59375 191.679688 140.066406 192.191406 141.167969 C 192.226562 141.238281 193.871094 144.695312 197.019531 148.527344 C 197.757812 142.410156 199.042969 133.53125 200.535156 131.285156 C 201.207031 130.269531 202.570312 129.996094 203.585938 130.664062 C 204.597656 131.335938 204.875 132.699219 204.203125 133.710938 C 203.246094 135.238281 201.726562 145.300781 200.867188 153.753906 C 200.78125 154.585938 200.230469 155.296875 199.449219 155.589844 C 199.199219 155.679688 198.9375 155.726562 198.679688 155.726562 Z M 198.679688 155.726562 " fill-opacity="1" fill-rule="nonzero"/><path fill="#591124" d="M 201.621094 210.3125 C 200.65625 210.3125 199.773438 209.671875 199.5 208.699219 C 197.753906 202.402344 197.972656 192.921875 198.300781 187.347656 C 193.9375 190.753906 192.015625 194.507812 191.660156 195.625 C 191.582031 196.328125 191.164062 196.980469 190.488281 197.328125 C 189.40625 197.886719 188.082031 197.464844 187.519531 196.390625 C 186.707031 194.820312 188.414062 191.867188 189.992188 189.667969 C 191.699219 187.285156 194.785156 183.871094 199.785156 181.128906 C 200.503906 180.734375 201.382812 180.773438 202.0625 181.226562 C 202.742188 181.679688 203.117188 182.472656 203.03125 183.285156 C 203.015625 183.441406 201.414062 199.128906 203.742188 207.523438 C 204.066406 208.695312 203.382812 209.90625 202.210938 210.230469 C 202.011719 210.285156 201.816406 210.3125 201.621094 210.3125 Z M 191.433594 194.382812 C 191.4375 194.382812 191.4375 194.382812 191.433594 194.382812 C 191.4375 194.382812 191.4375 194.382812 191.433594 194.382812 Z M 191.433594 194.378906 Z M 191.433594 194.375 Z M 191.429688 194.371094 C 191.429688 194.371094 191.429688 194.371094 191.433594 194.375 C 191.429688 194.375 191.429688 194.371094 191.429688 194.371094 Z M 191.429688 194.367188 C 191.429688 194.371094 191.429688 194.371094 191.429688 194.371094 C 191.429688 194.371094 191.429688 194.371094 191.429688 194.367188 Z M 191.425781 194.363281 C 191.425781 194.367188 191.429688 194.367188 191.429688 194.367188 C 191.429688 194.367188 191.429688 194.367188 191.425781 194.363281 Z M 191.425781 194.363281 " fill-opacity="1" fill-rule="nonzero"/><g clip-path="url(#1e271ed45e)"><path fill="#591124" d="M 217.621094 257.179688 C 217.472656 257.179688 217.320312 257.164062 217.171875 257.132812 C 197.601562 253.039062 183.742188 243.464844 176.832031 237.710938 C 176.75 238.859375 176.476562 240.015625 175.878906 241.050781 C 175.117188 242.378906 173.519531 244.039062 170.234375 244.402344 C 170.089844 244.417969 169.945312 244.421875 169.796875 244.40625 C 145.542969 242.242188 124.484375 214.746094 119.324219 207.492188 C 116.492188 208.972656 112.792969 210.1875 108.839844 208.8125 C 104.371094 207.261719 100.71875 202.667969 97.996094 195.160156 C 93.007812 181.410156 92.253906 161.746094 92.171875 153.414062 C 89.464844 154.796875 87.128906 155.253906 85.0625 154.089844 C 81.300781 151.96875 80.351562 145.554688 81.140625 127.691406 C 82.152344 104.933594 89.371094 91.941406 91.417969 88.691406 C 87.296875 64.195312 94.53125 50.53125 101.375 43.367188 C 107.664062 36.78125 114.671875 34.375 117.09375 33.703125 C 128.429688 18.21875 143.074219 15.847656 147.882812 15.492188 C 149.734375 11.269531 156.6875 0.0703125 178.207031 0.507812 C 199.058594 0.921875 213.089844 11.417969 217.621094 15.34375 C 222.15625 11.417969 236.183594 0.917969 257.035156 0.503906 C 278.5625 0.0664062 285.507812 11.269531 287.363281 15.488281 C 292.171875 15.84375 306.816406 18.21875 318.148438 33.703125 C 320.574219 34.375 327.578125 36.78125 333.867188 43.367188 C 340.710938 50.53125 347.945312 64.195312 343.828125 88.691406 C 345.871094 91.9375 353.09375 104.933594 354.101562 127.6875 C 354.894531 145.554688 353.941406 151.96875 350.183594 154.085938 C 348.113281 155.253906 345.78125 154.796875 343.074219 153.414062 C 342.992188 161.742188 342.238281 181.40625 337.246094 195.160156 C 334.523438 202.664062 330.875 207.257812 326.402344 208.8125 C 322.453125 210.183594 318.75 208.972656 315.921875 207.488281 C 310.761719 214.742188 289.699219 242.238281 265.445312 244.40625 C 265.300781 244.417969 265.152344 244.417969 265.007812 244.402344 C 261.726562 244.039062 260.128906 242.378906 259.367188 241.050781 C 258.769531 240.011719 258.492188 238.859375 258.414062 237.710938 C 251.503906 243.464844 237.644531 253.039062 218.074219 257.132812 C 217.925781 257.164062 217.773438 257.179688 217.621094 257.179688 Z M 173.460938 229.421875 C 174.054688 229.421875 174.644531 229.660156 175.070312 230.125 C 175.226562 230.292969 191.039062 247.023438 217.621094 252.734375 C 244.207031 247.023438 260.019531 230.292969 260.175781 230.125 C 260.90625 229.335938 262.101562 229.195312 263 229.785156 C 263.898438 230.375 264.234375 231.527344 263.796875 232.511719 C 263.195312 233.882812 262.25 237.25 263.183594 238.867188 C 263.316406 239.097656 263.710938 239.78125 265.285156 240.007812 C 290.449219 237.5625 313.199219 203.707031 313.425781 203.363281 C 314.085938 202.375 315.410156 202.085938 316.417969 202.710938 C 318.789062 204.175781 321.898438 205.722656 324.957031 204.660156 C 328.117188 203.5625 330.859375 199.863281 333.109375 193.664062 C 339.171875 176.949219 338.667969 149.847656 338.664062 149.574219 C 338.644531 148.753906 339.085938 147.996094 339.804688 147.601562 C 340.519531 147.207031 341.398438 147.242188 342.082031 147.699219 C 346.417969 150.585938 347.679688 150.449219 348.019531 150.257812 C 350.632812 148.785156 349.933594 133.054688 349.703125 127.886719 C 348.609375 103.1875 339.808594 90.574219 339.71875 90.449219 C 339.375 89.96875 339.242188 89.371094 339.34375 88.792969 C 342.628906 70.257812 339.769531 56.050781 330.84375 46.570312 C 324.203125 39.515625 316.457031 37.804688 316.378906 37.789062 C 315.839844 37.671875 315.355469 37.359375 315.035156 36.90625 C 302.921875 19.8125 286.554688 19.8125 285.851562 19.828125 C 284.859375 19.816406 283.960938 19.175781 283.695312 18.210938 C 283.539062 17.660156 279.460938 4.460938 257.121094 4.902344 C 233.851562 5.363281 219.332031 19.734375 219.1875 19.878906 C 218.773438 20.292969 218.210938 20.527344 217.621094 20.527344 C 217.03125 20.527344 216.46875 20.292969 216.054688 19.875 C 215.914062 19.730469 201.394531 5.363281 178.121094 4.898438 C 155.757812 4.46875 151.707031 17.660156 151.542969 18.222656 C 151.269531 19.175781 150.378906 19.855469 149.386719 19.824219 C 148.710938 19.824219 132.320312 19.8125 120.210938 36.90625 C 119.886719 37.359375 119.40625 37.675781 118.859375 37.789062 C 118.789062 37.804688 111.042969 39.515625 104.402344 46.566406 C 95.476562 56.050781 92.613281 70.253906 95.898438 88.789062 C 96.003906 89.371094 95.867188 89.96875 95.523438 90.449219 C 95.4375 90.570312 86.628906 103.308594 85.539062 127.882812 C 85.308594 133.054688 84.609375 148.785156 87.222656 150.257812 C 87.5625 150.449219 88.824219 150.585938 93.160156 147.695312 C 93.84375 147.242188 94.722656 147.203125 95.441406 147.597656 C 96.160156 147.992188 96.597656 148.753906 96.582031 149.574219 C 96.574219 149.84375 96.070312 176.949219 102.132812 193.660156 C 104.382812 199.863281 107.125 203.5625 110.285156 204.660156 C 113.347656 205.722656 116.457031 204.175781 118.824219 202.707031 C 119.835938 202.082031 121.160156 202.375 121.816406 203.363281 C 122.046875 203.707031 144.792969 237.5625 169.957031 240.003906 C 171.535156 239.78125 171.925781 239.097656 172.058594 238.867188 C 172.996094 237.246094 172.050781 233.882812 171.445312 232.507812 C 171.011719 231.523438 171.355469 230.371094 172.253906 229.78125 C 172.621094 229.539062 173.042969 229.421875 173.460938 229.421875 Z M 217.621094 230.140625 C 217.609375 230.140625 217.59375 230.140625 217.578125 230.140625 C 216.667969 230.121094 195.550781 229.597656 184.886719 220.34375 C 181.683594 220.074219 169.367188 218.734375 156.054688 213.234375 C 135.730469 204.839844 123.035156 190.703125 119.34375 172.347656 C 114.5 148.285156 123.027344 122.5 131.027344 105.101562 C 140.234375 85.09375 152.632812 67.628906 160.839844 59.199219 C 171.1875 48.566406 190.152344 43.171875 217.207031 43.171875 C 217.230469 43.171875 217.25 43.171875 217.273438 43.171875 L 217.972656 43.171875 C 217.992188 43.171875 218.019531 43.171875 218.039062 43.171875 C 245.097656 43.171875 264.0625 48.5625 274.40625 59.199219 C 282.613281 67.628906 295.011719 85.097656 304.21875 105.101562 C 312.222656 122.5 320.746094 148.285156 315.90625 172.347656 C 312.210938 190.703125 299.519531 204.839844 279.191406 213.234375 C 265.878906 218.734375 253.5625 220.074219 250.363281 220.34375 C 239.695312 229.597656 218.578125 230.121094 217.667969 230.140625 C 217.652344 230.140625 217.636719 230.140625 217.621094 230.140625 Z M 217.207031 47.570312 C 191.382812 47.570312 173.480469 52.511719 163.992188 62.261719 C 150.207031 76.429688 115.035156 128.636719 123.65625 171.480469 C 127.085938 188.535156 138.515625 201.199219 157.625 209.125 C 172.113281 215.132812 185.789062 216.003906 185.925781 216.011719 C 186.4375 216.042969 186.925781 216.25 187.300781 216.597656 C 196.332031 225.035156 216.535156 225.710938 217.621094 225.742188 C 218.710938 225.710938 238.929688 225.019531 247.945312 216.597656 C 248.320312 216.25 248.808594 216.042969 249.320312 216.011719 C 249.457031 216.003906 263.132812 215.132812 277.621094 209.125 C 296.730469 201.199219 308.160156 188.535156 311.589844 171.480469 L 313.746094 171.914062 L 311.589844 171.480469 C 320.210938 128.636719 285.039062 76.429688 271.253906 62.261719 C 261.765625 52.511719 243.859375 47.570312 218.039062 47.570312 C 218.015625 47.570312 217.996094 47.570312 217.976562 47.570312 L 217.269531 47.570312 C 217.25 47.570312 217.226562 47.570312 217.207031 47.570312 Z M 217.207031 47.570312 " fill-opacity="1" fill-rule="nonzero"/></g><path fill="#591124" d="M 317.808594 116.519531 C 316.59375 116.519531 315.605469 115.535156 315.605469 114.320312 C 315.605469 113.746094 315.828125 113.226562 316.1875 112.832031 C 316.988281 111.480469 319.945312 104.230469 317.832031 96.058594 C 315.820312 88.285156 309.898438 81.824219 300.238281 76.851562 C 299.273438 76.355469 298.816406 75.226562 299.160156 74.199219 C 299.378906 73.507812 304.285156 56.785156 271.34375 46.164062 C 270.1875 45.792969 269.550781 44.554688 269.921875 43.398438 C 270.296875 42.242188 271.535156 41.609375 272.695312 41.980469 C 287.59375 46.785156 297.324219 53.53125 301.617188 62.03125 C 304.140625 67.035156 304.070312 71.378906 303.734375 73.730469 C 325.195312 85.542969 323.773438 102.433594 322.117188 109.253906 C 320.355469 116.519531 318.503906 116.519531 317.808594 116.519531 Z M 317.789062 112.121094 C 317.628906 112.125 317.476562 112.144531 317.339844 112.171875 C 317.484375 112.140625 317.632812 112.125 317.789062 112.121094 Z M 317.792969 112.121094 C 317.792969 112.121094 317.792969 112.121094 317.789062 112.121094 C 317.789062 112.121094 317.792969 112.121094 317.792969 112.121094 Z M 317.796875 112.121094 Z M 317.800781 112.121094 Z M 317.800781 112.121094 " fill-opacity="1" fill-rule="nonzero"/><path fill="#591124" d="M 279.933594 49.230469 C 279.554688 49.230469 279.171875 49.132812 278.820312 48.925781 C 277.773438 48.308594 277.425781 46.960938 278.039062 45.914062 C 287.730469 29.460938 315.949219 33.289062 317.144531 33.460938 C 318.347656 33.632812 319.183594 34.746094 319.011719 35.949219 C 318.839844 37.148438 317.722656 37.984375 316.523438 37.8125 C 316.261719 37.773438 290.027344 34.230469 281.835938 48.148438 C 281.421875 48.839844 280.6875 49.230469 279.933594 49.230469 Z M 279.933594 49.230469 " fill-opacity="1" fill-rule="nonzero"/><path fill="#591124" d="M 320.027344 110.707031 C 319.042969 110.707031 318.148438 110.039062 317.894531 109.042969 C 317.597656 107.867188 318.316406 106.671875 319.492188 106.375 C 335.296875 102.40625 339.234375 89.144531 339.394531 88.582031 C 339.722656 87.417969 340.9375 86.734375 342.105469 87.0625 C 343.273438 87.390625 343.957031 88.597656 343.632812 89.761719 C 343.449219 90.425781 338.921875 106.03125 320.566406 110.640625 C 320.386719 110.683594 320.207031 110.707031 320.027344 110.707031 Z M 320.027344 110.707031 " fill-opacity="1" fill-rule="nonzero"/><path fill="#591124" d="M 314.371094 87.089844 C 313.796875 87.089844 313.222656 86.863281 312.789062 86.421875 C 311.945312 85.550781 311.964844 84.160156 312.835938 83.316406 C 313.132812 83.023438 319.890625 76.269531 316.882812 68.203125 C 315.792969 65.285156 313.589844 63.398438 310.339844 62.59375 C 306.332031 61.597656 302.007812 62.648438 300.675781 63.839844 C 299.769531 64.648438 298.378906 64.570312 297.570312 63.664062 C 296.761719 62.757812 296.839844 61.367188 297.746094 60.5625 C 300.167969 58.402344 305.941406 56.972656 311.398438 58.324219 C 316.011719 59.46875 319.421875 62.429688 321.003906 66.667969 C 325.03125 77.460938 316.273438 86.109375 315.898438 86.472656 C 315.472656 86.882812 314.921875 87.089844 314.371094 87.089844 Z M 314.371094 87.089844 " fill-opacity="1" fill-rule="nonzero"/><path fill="#591124" d="M 272.828125 97.394531 C 265.496094 95.828125 258.015625 96.128906 250.632812 96.941406 C 248.484375 97.191406 245.453125 97.667969 243.296875 98.046875 C 242.105469 98.246094 240.980469 97.445312 240.78125 96.253906 C 240.597656 95.308594 241.183594 94.507812 241.675781 93.808594 C 242.71875 92.335938 244.007812 91.023438 245.421875 89.90625 C 252.425781 84.328125 261.992188 83.140625 270.558594 84.890625 C 262.144531 86.1875 253.0625 88.109375 246.902344 94.386719 C 246.144531 95.140625 245.464844 95.984375 244.90625 96.886719 C 244.90625 96.886719 242.5625 93.71875 242.5625 93.71875 C 252.351562 92.066406 264.140625 92.011719 272.828125 97.394531 Z M 272.828125 97.394531 " fill-opacity="1" fill-rule="nonzero"/><path fill="#591124" d="M 217.621094 113.113281 C 217.300781 113.113281 216.976562 113.042969 216.675781 112.898438 C 212.339844 110.832031 204.980469 106.792969 204.40625 102.964844 C 204.253906 101.953125 204.550781 100.953125 205.238281 100.140625 C 207.515625 97.460938 214.636719 97.078125 217.59375 97.035156 C 217.613281 97.035156 217.632812 97.035156 217.65625 97.035156 C 220.609375 97.074219 227.734375 97.460938 230.011719 100.140625 C 230.699219 100.949219 230.992188 101.953125 230.839844 102.964844 C 230.265625 106.792969 222.90625 110.832031 218.570312 112.898438 C 218.269531 113.042969 217.949219 113.113281 217.621094 113.113281 Z M 209 102.726562 C 210.007812 104.019531 213.695312 106.492188 217.621094 108.464844 C 221.523438 106.503906 225.1875 104.050781 226.230469 102.71875 C 224.855469 102.066406 221.117188 101.488281 217.621094 101.433594 C 214.117188 101.488281 210.363281 102.070312 209 102.726562 Z M 209 102.726562 " fill-opacity="1" fill-rule="nonzero"/><path fill="#591124" d="M 227.558594 98.582031 C 236.730469 101.203125 244.929688 106.914062 251.304688 113.921875 C 252.5625 115.191406 254.136719 117.320312 255.261719 118.722656 C 255.261719 118.722656 256.996094 121.296875 256.996094 121.296875 C 258.207031 123 259.476562 125.460938 260.511719 127.28125 C 261.113281 128.585938 262.152344 130.855469 262.761719 132.167969 C 262.039062 130.902344 260.796875 128.753906 260.089844 127.519531 C 259.851562 127.140625 258.222656 124.800781 257.933594 124.371094 C 257.011719 122.933594 255.261719 120.949219 254.1875 119.585938 C 252.964844 118.3125 251.269531 116.40625 249.9375 115.277344 C 246.324219 111.90625 242.101562 108.960938 237.679688 106.753906 C 234.210938 105.023438 230.546875 103.597656 226.738281 102.902344 C 223.707031 102.40625 224.519531 97.945312 227.558594 98.582031 Z M 227.558594 98.582031 " fill-opacity="1" fill-rule="nonzero"/><path fill="#591124" d="M 217.621094 214.023438 C 216.410156 214.023438 215.421875 213.039062 215.421875 211.824219 C 215.421875 210.609375 216.410156 209.625 217.621094 209.625 C 243.398438 209.625 249.371094 186.382812 249.847656 166.886719 C 250.351562 146.164062 238.363281 135.8125 230.691406 134.152344 C 221.90625 132.257812 216.035156 123.53125 215.789062 123.160156 C 215.550781 122.800781 215.425781 122.378906 215.425781 121.945312 L 215.425781 110.914062 C 215.425781 109.699219 216.410156 108.714844 217.625 108.714844 C 218.839844 108.714844 219.824219 109.699219 219.824219 110.914062 L 219.824219 121.242188 C 221.113281 122.972656 225.679688 128.574219 231.621094 129.855469 C 240.671875 131.8125 254.816406 143.621094 254.246094 166.992188 C 253.507812 197.320312 240.503906 214.023438 217.621094 214.023438 Z M 217.621094 214.023438 " fill-opacity="1" fill-rule="nonzero"/><path fill="#591124" d="M 236.566406 155.726562 C 236.308594 155.726562 236.046875 155.683594 235.796875 155.589844 C 235.011719 155.296875 234.464844 154.582031 234.378906 153.75 C 233.519531 145.300781 232 135.234375 231.042969 133.707031 C 230.402344 132.6875 230.6875 131.320312 231.703125 130.667969 C 232.714844 130.019531 234.046875 130.277344 234.710938 131.28125 C 236.203125 133.53125 237.492188 142.40625 238.226562 148.527344 C 241.390625 144.679688 243.035156 141.210938 243.054688 141.164062 C 243.570312 140.066406 244.878906 139.589844 245.980469 140.101562 C 247.078125 140.613281 247.554688 141.917969 247.046875 143.019531 C 246.921875 143.285156 243.945312 149.601562 238.078125 155.128906 C 237.660156 155.519531 237.117188 155.726562 236.566406 155.726562 Z M 236.566406 155.726562 " fill-opacity="1" fill-rule="nonzero"/><path fill="#591124" d="M 233.625 210.3125 C 233.429688 210.3125 233.234375 210.285156 233.035156 210.230469 C 231.863281 209.90625 231.179688 208.695312 231.503906 207.523438 C 233.832031 199.128906 232.230469 183.441406 232.210938 183.285156 C 232.128906 182.472656 232.5 181.679688 233.183594 181.226562 C 233.867188 180.773438 234.742188 180.738281 235.460938 181.128906 C 240.460938 183.871094 243.546875 187.285156 245.253906 189.667969 C 246.832031 191.867188 248.539062 194.820312 247.722656 196.390625 C 247.164062 197.464844 245.839844 197.890625 244.757812 197.328125 C 244.082031 196.976562 243.664062 196.328125 243.585938 195.625 C 243.230469 194.507812 241.308594 190.757812 236.941406 187.347656 C 237.273438 192.921875 237.488281 202.402344 235.742188 208.699219 C 235.472656 209.671875 234.589844 210.3125 233.625 210.3125 Z M 243.808594 194.382812 Z M 243.8125 194.378906 Z M 243.8125 194.375 Z M 243.816406 194.371094 C 243.816406 194.371094 243.816406 194.371094 243.816406 194.375 C 243.816406 194.375 243.816406 194.371094 243.816406 194.371094 Z M 243.816406 194.367188 C 243.816406 194.371094 243.816406 194.371094 243.816406 194.371094 C 243.816406 194.371094 243.816406 194.371094 243.816406 194.367188 Z M 243.820312 194.363281 C 243.820312 194.367188 243.816406 194.367188 243.816406 194.367188 C 243.816406 194.367188 243.820312 194.367188 243.820312 194.363281 Z M 243.820312 194.363281 " fill-opacity="1" fill-rule="nonzero"/><path fill="#591124" d="M 249.246094 187.621094 C 248.699219 187.621094 248.152344 187.417969 247.726562 187.011719 C 236.070312 175.859375 224.46875 170.71875 213.242188 171.734375 C 197.417969 173.167969 187.539062 186.574219 187.4375 186.710938 C 186.726562 187.691406 185.351562 187.914062 184.367188 187.203125 C 183.386719 186.496094 183.160156 185.125 183.871094 184.140625 C 184.316406 183.523438 194.960938 169 212.796875 167.363281 C 225.359375 166.207031 238.136719 171.75 250.769531 183.835938 C 251.644531 184.675781 251.675781 186.066406 250.835938 186.945312 C 250.40625 187.394531 249.828125 187.621094 249.246094 187.621094 Z M 249.246094 187.621094 " fill-opacity="1" fill-rule="nonzero"/></svg>